SplineFontDB: 3.0
FontName: Parastoo
FullName: Parastoo
FamilyName: Parastoo
Weight: Regular
Copyright: Copyright (c) 2003 by Bitstream, Inc. All Rights Reserved.\nDejaVu changes are in public domain\nCopyright (c) 2015 by Saber Rastikerdar. All Rights Reserved.
Version: 0.3.1
ItalicAngle: 0
UnderlinePosition: -100
UnderlineWidth: 100
Ascent: 1536
Descent: 512
LayerCount: 2
Layer: 0 1 "Back"  1
Layer: 1 1 "Fore"  0
XUID: [1021 502 1027637223 7335572]
UniqueID: 4193122
UseUniqueID: 1
FSType: 0
OS2Version: 1
OS2_WeightWidthSlopeOnly: 0
OS2_UseTypoMetrics: 1
CreationTime: 1431850356
ModificationTime: 1448914106
PfmFamily: 17
TTFWeight: 400
TTFWidth: 5
LineGap: 0
VLineGap: 0
Panose: 2 11 6 3 3 8 4 2 2 4
OS2TypoAscent: 2000
OS2TypoAOffset: 0
OS2TypoDescent: -1000
OS2TypoDOffset: 0
OS2TypoLinegap: 0
OS2WinAscent: 2000
OS2WinAOffset: 0
OS2WinDescent: 1000
OS2WinDOffset: 0
HheadAscent: 2000
HheadAOffset: 0
HheadDescent: -1000
HheadDOffset: 0
OS2SubXSize: 1331
OS2SubYSize: 1433
OS2SubXOff: 0
OS2SubYOff: 286
OS2SupXSize: 1331
OS2SupYSize: 1433
OS2SupXOff: 0
OS2SupYOff: 983
OS2StrikeYSize: 102
OS2StrikeYPos: 530
OS2Vendor: 'PfEd'
OS2CodePages: 600001ff.dfff0000
Lookup: 1 0 0 "'case' Case-Sensitive Forms in Latin lookup 0"  {"'case' Case-Sensitive Forms in Latin lookup 0 subtable"  } ['case' ('DFLT' <'dflt' > 'latn' <'CAT ' 'ESP ' 'GAL ' 'dflt' > ) ]
Lookup: 6 1 0 "'ccmp' Glyph Composition/Decomposition lookup 2"  {"'ccmp' Glyph Composition/Decomposition lookup 2 subtable"  } ['ccmp' ('arab' <'KUR ' 'SND ' 'URD ' 'dflt' > 'hebr' <'dflt' > 'nko ' <'dflt' > ) ]
Lookup: 6 0 0 "'ccmp' Glyph Composition/Decomposition lookup 3"  {"'ccmp' Glyph Composition/Decomposition lookup 3 subtable"  } ['ccmp' ('cyrl' <'MKD ' 'SRB ' 'dflt' > 'grek' <'dflt' > 'latn' <'ISM ' 'KSM ' 'LSM ' 'MOL ' 'NSM ' 'ROM ' 'SKS ' 'SSM ' 'dflt' > ) ]

StartChar: afii57388
Encoding: 1548 1548 2
Width: 666
VWidth: 2054
GlyphClass: 2
Flags: W
LayerCount: 2
Fore
SplineSet
362.518 243.54 m 1,0,-1
 389.409 243.54 l 2,1,2
 470.148 243.54 470.148 243.54 470.148 146.18 c 2,3,-1
 470.148 94.5098 l 2,4,5
 470.148 0 470.148 0 390.248 0 c 2,6,-1
 319.039 0 l 2,7,8
 235.219 -0.884766 235.219 -0.884766 235.219 90.7402 c 2,9,-1
 235.219 204.18 l 0,10,11
 254.018 407.588 254.018 407.588 444.659 569.698 c 1,12,-1
 503.059 540.527 l 1,13,14
 364.018 387.588 364.018 387.588 362.518 243.54 c 1,0,-1
EndSplineSet
EndChar

StartChar: uni0615
Encoding: 1557 1557 3
Width: 0
VWidth: 2186
GlyphClass: 4
Flags: W
AnchorPoint: "Anchor-10" 547.84 1279.5 mark 0
AnchorPoint: "Anchor-9" 547.84 1279.5 mark 0
AnchorPoint: "Anchor-1" 547.84 1975 basemark 0
AnchorPoint: "Anchor-1" 547.84 1279.5 mark 0
LayerCount: 2
Fore
SplineSet
466.096 1456.96 m 1,0,-1
 552.12 1456.96 l 2,1,2
 639.138 1456.96 639.138 1456.96 665.862 1472.75 c 0,3,4
 697.288 1492.32 697.288 1492.32 713.059 1508.3 c 128,-1,5
 728.83 1524.27 728.83 1524.27 728.83 1541.65 c 0,6,7
 728.83 1583.09 728.83 1583.09 689.03 1604.94 c 1,8,9
 681.399 1607.6 681.399 1607.6 672.751 1605.46 c 128,-1,10
 664.102 1603.31 664.102 1603.31 640.309 1592.64 c 128,-1,11
 616.515 1581.97 616.515 1581.97 601.865 1576.19 c 0,12,13
 543.049 1552.44 543.049 1552.44 483.147 1478.12 c 2,14,-1
 466.096 1456.96 l 1,0,-1
576.73 1374.89 m 2,15,-1
 282.64 1374.89 l 1,16,-1
 282.64 1456.96 l 1,17,-1
 369.31 1456.96 l 1,18,-1
 369.31 1883.89 l 1,19,-1
 452.45 1883.89 l 1,20,-1
 452.45 1497.67 l 1,21,-1
 477.109 1547.67 l 2,22,23
 513.381 1621.22 513.381 1621.22 619.878 1662.18 c 0,24,25
 682.718 1686.12 682.718 1686.12 752.956 1660.03 c 0,26,27
 814.11 1636.51 814.11 1636.51 814.11 1557.7 c 0,28,29
 814.11 1466.67 814.11 1466.67 750.648 1417.09 c 0,30,31
 696.384 1374.89 696.384 1374.89 576.73 1374.89 c 2,15,-1
EndSplineSet
EndChar

StartChar: uni061B
Encoding: 1563 1563 4
Width: 654
VWidth: 2054
GlyphClass: 2
Flags: W
LayerCount: 2
Fore
SplineSet
437.015 184.68 m 6,0,-1
 437.015 21.6602 l 6,1,2
 437.015 8.375 437.015 8.375 433.684 4.1875 c 132,-1,3
 430.354 0 430.354 0 422.195 0 c 6,4,-1
 260.315 0 l 6,5,6
 249.941 0 249.941 0 246.008 4.38281 c 132,-1,7
 242.075 8.76465 242.075 8.76465 242.075 21.6602 c 6,8,-1
 242.075 183.54 l 6,9,10
 242.075 195.047 242.075 195.047 245.868 198.983 c 132,-1,11
 249.66 202.92 249.66 202.92 260.315 202.92 c 6,12,-1
 418.775 202.92 l 6,13,14
 429.572 202.92 429.572 202.92 433.293 199.198 c 132,-1,15
 437.015 195.477 437.015 195.477 437.015 184.68 c 6,0,-1
344.574 597.451 m 1,16,-1
 371.466 597.451 l 2,17,18
 452.205 597.452 452.205 597.452 452.205 500.091 c 2,19,-1
 452.205 448.421 l 2,20,21
 452.205 353.911 452.205 353.911 372.305 353.911 c 2,22,-1
 301.096 353.911 l 2,23,24
 217.276 353.027 217.276 353.027 217.275 444.651 c 2,25,-1
 217.275 558.091 l 0,26,27
 236.074 761.499 236.074 761.499 426.716 923.61 c 1,28,-1
 485.115 894.439 l 1,29,30
 346.074 741.499 346.074 741.499 344.574 597.451 c 1,16,-1
EndSplineSet
EndChar

StartChar: uni061F
Encoding: 1567 1567 5
Width: 1087
GlyphClass: 2
Flags: W
LayerCount: 2
Fore
SplineSet
697.015 184.68 m 2,0,-1
 697.015 21.6602 l 2,1,2
 697.015 8.375 697.015 8.375 693.684 4.1875 c 128,-1,3
 690.354 0 690.354 0 682.195 0 c 2,4,-1
 520.315 0 l 2,5,6
 509.941 0 509.941 0 506.008 4.38281 c 128,-1,7
 502.075 8.76465 502.075 8.76465 502.075 21.6602 c 2,8,-1
 502.075 183.54 l 2,9,10
 502.075 195.047 502.075 195.047 505.868 198.983 c 128,-1,11
 509.66 202.92 509.66 202.92 520.315 202.92 c 2,12,-1
 678.775 202.92 l 2,13,14
 689.572 202.92 689.572 202.92 693.293 199.198 c 128,-1,15
 697.015 195.477 697.015 195.477 697.015 184.68 c 2,0,-1
513 358 m 1,16,-1
 513 474 l 2,17,18
 513 526.503 513 526.503 509.95 556.995 c 0,19,20
 506.861 587.887 506.861 587.887 500.572 609.898 c 0,21,22
 492.025 636.608 492.025 636.608 471.554 664.427 c 0,23,24
 448.767 695.392 448.767 695.392 403.989 739.152 c 2,25,-1
 315.948 825.193 l 1,26,27
 227.091 910.1 227.091 910.1 191.852 977.152 c 0,28,29
 157 1043.47 157 1043.47 157 1117 c 0,30,31
 157 1271.44 157 1271.44 265.063 1365.46 c 0,32,33
 373.736 1460 373.736 1460 554 1460 c 0,34,35
 669.458 1460 669.458 1460 750.713 1432.4 c 0,36,37
 837.966 1405.94 837.966 1405.94 917.955 1359 c 1,38,-1
 868.626 1228.71 l 1,39,40
 702.899 1315.01 702.899 1315.01 589 1316 c 0,41,42
 477.356 1316 477.356 1316 409.069 1258.66 c 0,43,44
 340 1200.66 340 1200.66 340 1107 c 0,45,46
 340 1055.46 340 1055.46 366.71 1006.23 c 0,47,48
 392.99 957.795 392.99 957.795 451.078 903.781 c 1,49,-1
 541.03 814.829 l 1,50,51
 629.622 730.171 629.622 730.171 656.816 667.044 c 128,-1,52
 684 603.94 684 603.94 684 505 c 2,53,-1
 684 358 l 1,54,-1
 513 358 l 1,16,-1
EndSplineSet
EndChar

StartChar: uni0621
Encoding: 1569 1569 6
Width: 724
VWidth: 2269
GlyphClass: 2
Flags: W
AnchorPoint: "Anchor-7" 356.254 -253.511 basechar 0
AnchorPoint: "Anchor-10" 305.904 1009.48 basechar 0
LayerCount: 2
Fore
SplineSet
75.5352 -42.4277 m 1,0,-1
 75.5352 87.8232 l 1,1,2
 236.962 132.859 236.962 132.859 332.037 186.849 c 5,3,4
 79.3477 229.556 79.3477 229.556 79.3477 445.469 c 0,5,6
 79.3477 619.116 79.3477 619.116 213.343 701.685 c 128,-1,7
 347.341 784.254 347.341 784.254 554.505 738.41 c 1,8,-1
 554.505 601.417 l 1,9,10
 472.738 624.498 472.738 624.498 413.428 622.803 c 0,11,12
 363.879 621.871 363.879 621.871 314.832 597.349 c 0,13,14
 219.179 549.523 219.179 549.523 219.179 436.566 c 0,15,16
 219.179 300.465 219.179 300.465 388.868 269.509 c 0,17,18
 451.768 257.852 451.768 257.852 510.768 272.175 c 0,19,20
 612.893 299.804 612.893 299.804 628.001 308.119 c 1,21,-1
 628.001 172.897 l 1,22,23
 545.112 119.895 545.112 119.895 366.828 50.3213 c 0,24,25
 174.844 -24.4814 174.844 -24.4814 75.5352 -42.4277 c 1,0,-1
EndSplineSet
EndChar

StartChar: uni0627
Encoding: 1575 1575 12
Width: 431
VWidth: 2247
GlyphClass: 2
Flags: W
AnchorPoint: "Anchor-10" 216.033 1520.03 basechar 0
AnchorPoint: "Anchor-7" 191.453 -302.144 basechar 0
LayerCount: 2
Fore
SplineSet
299.18 1407.04 m 1,0,-1
 277.18 171 l 2,1,2
 273.934 -11.3525 273.934 -11.3525 196.473 -19.5 c 2,3,4
 186.167 -20.584 l 1,5,-1
 137.766 1304.65 l 5,6,-1
 299.18 1407.04 l 1,0,-1
EndSplineSet
Substitution2: "'fina' Terminal Forms in Arabic lookup 9 subtable" uniFE8E
EndChar

StartChar: uni062D
Encoding: 1581 1581 18
Width: 1379
VWidth: 2267
GlyphClass: 2
Flags: W
AnchorPoint: "Anchor-10" 525.88 1252.22 basechar 0
AnchorPoint: "Anchor-7" 369.835 -815.086 basechar 0
LayerCount: 2
Fore
SplineSet
427.64 288.984 m 4,0,1
 231.738 137.058 231.738 137.058 235.731 -106.538 c 4,2,3
 239.006 -306.979 239.006 -306.979 401.202 -408.945 c 4,4,5
 567.096 -513.237 567.096 -513.237 893.624 -481.727 c 4,6,7
 1127.17 -459.19 1127.17 -459.19 1273.36 -353.811 c 5,8,-1
 1270.62 -381.727 l 6,9,10
 1250.22 -589.601 1250.22 -589.601 971.624 -650.727 c 4,11,12
 890.725 -668.477 890.725 -668.477 803.624 -671.727 c 4,13,14
 659.942 -677.251 659.942 -677.251 549 -656 c 4,15,16
 140.603 -575.109 140.603 -575.109 94.5244 -196.803 c 4,17,18
 50.1064 167.87 50.1064 167.87 395.64 411 c 4,19,20
 597.384 552.208 597.384 552.208 1002 642.537 c 5,21,22
 943.229 648.741 943.229 648.741 820.339 712.491 c 4,23,24
 665.485 793.377 665.485 793.377 558.093 784.329 c 4,25,26
 433.743 773.85 433.743 773.85 328.499 565.652 c 5,27,-1
 314.72 566.434 l 6,28,29
 285.622 568.086 285.622 568.086 314.765 700.266 c 4,30,31
 323.632 740.484 323.632 740.484 354.686 804.492 c 4,32,33
 416.805 932.865 416.805 932.865 556.686 936.492 c 4,34,35
 684.413 940.49 684.413 940.49 919.979 805.771 c 4,36,37
 1033.93 740.606 1033.93 740.606 1255.66 716.238 c 5,38,-1
 1232.34 572.498 l 5,39,40
 684.322 487.049 684.322 487.049 427.64 288.984 c 4,0,1
EndSplineSet
Substitution2: "'fina' Terminal Forms in Arabic lookup 9 subtable" uniFEA2
Substitution2: "'medi' Medial Forms in Arabic lookup 11 subtable" uniFEA4
Substitution2: "'init' Initial Forms in Arabic lookup 13 subtable" uniFEA3
EndChar

StartChar: uni062F
Encoding: 1583 1583 20
Width: 872
VWidth: 2265
GlyphClass: 2
Flags: W
AnchorPoint: "Anchor-10" 174.131 1123.75 basechar 0
AnchorPoint: "Anchor-7" 226.202 -266.157 basechar 0
LayerCount: 2
Fore
SplineSet
661.054 322.808 m 1,0,1
 591.109 516.4 591.109 516.4 340.649 683.846 c 1,2,-1
 416.054 889.808 l 1,3,4
 671.433 670.692 671.433 670.692 741.054 470.808 c 0,5,6
 790.715 328.228 790.715 328.228 780.116 244.867 c 0,7,8
 772.506 185.013 772.506 185.013 750.649 138.404 c 1,9,10
 680.694 -42.9502 680.694 -42.9502 315.798 -16.5 c 0,11,-1
 283.119 -12.8184 l 0,12,13
 91.1855 14.9111 91.1855 14.9111 91.6172 183.13 c 2,14,-1
 91.9541 314.3 l 1,15,16
 104 320.345 104 320.345 118.454 314.3 c 1,17,18
 135.85 176.71 135.85 176.71 331.35 164.866 c 0,19,20
 545.125 152.232 545.125 152.232 617.799 191 c 0,21,22
 687.668 227.047 687.668 227.047 661.054 322.808 c 1,0,1
EndSplineSet
Substitution2: "'fina' Terminal Forms in Arabic lookup 9 subtable" uniFEAA
EndChar

StartChar: uni0631
Encoding: 1585 1585 22
Width: 816
VWidth: 2270
GlyphClass: 2
Flags: W
AnchorPoint: "Anchor-7" 534.396 -754.688 basechar 0
AnchorPoint: "Anchor-10" 447.274 913.234 basechar 0
LayerCount: 2
Fore
SplineSet
513.275 367.559 m 1,0,1
 583.275 463.559 583.275 463.559 636.256 483.844 c 5,2,3
 732.782 299.169 732.782 299.169 728.781 43.1689 c 1,4,5
 683.946 -420.928 683.946 -420.928 326.953 -463 c 0,6,7
 161.898 -482.452 161.898 -482.452 19.6104 -350.909 c 1,8,9
 628.953 -282.655 628.953 -282.655 631.953 115.317 c 1,10,11
 631.953 198.204 631.953 198.204 513.275 367.559 c 1,0,1
EndSplineSet
PairPos2: "'kern' Horizontal Kerning lookup 15-1" uni06CC dx=-141 dy=0 dh=-141 dv=0 dx=0 dy=0 dh=0 dv=0
PairPos2: "'kern' Horizontal Kerning lookup 15-1" uniFEEB dx=-213 dy=0 dh=-213 dv=0 dx=0 dy=0 dh=0 dv=0
PairPos2: "'kern' Horizontal Kerning lookup 15-1" uniFB7C dx=-141 dy=0 dh=-141 dv=0 dx=0 dy=0 dh=0 dv=0
PairPos2: "'kern' Horizontal Kerning lookup 15-1" uniFB58 dx=71 dy=0 dh=71 dv=0 dx=0 dy=0 dh=0 dv=0
PairPos2: "'kern' Horizontal Kerning lookup 15-1" uniFEF3 dx=99 dy=0 dh=99 dv=0 dx=0 dy=0 dh=0 dv=0
PairPos2: "'kern' Horizontal Kerning lookup 15-1" uniFBFE dx=99 dy=0 dh=99 dv=0 dx=0 dy=0 dh=0 dv=0
PairPos2: "'kern' Horizontal Kerning lookup 15-1" uniFEDF dx=-213 dy=0 dh=-213 dv=0 dx=0 dy=0 dh=0 dv=0
PairPos2: "'kern' Horizontal Kerning lookup 15-1" uniFB90 dx=-213 dy=0 dh=-213 dv=0 dx=0 dy=0 dh=0 dv=0
PairPos2: "'kern' Horizontal Kerning lookup 15-1" uni06A9 dx=-213 dy=0 dh=-213 dv=0 dx=0 dy=0 dh=0 dv=0
PairPos2: "'kern' Horizontal Kerning lookup 15-1" uni0649 dx=-141 dy=0 dh=-141 dv=0 dx=0 dy=0 dh=0 dv=0
PairPos2: "'kern' Horizontal Kerning lookup 15-1" uni0647 dx=-213 dy=0 dh=-213 dv=0 dx=0 dy=0 dh=0 dv=0
PairPos2: "'kern' Horizontal Kerning lookup 15-1" uniFEE7 dx=-213 dy=0 dh=-213 dv=0 dx=0 dy=0 dh=0 dv=0
PairPos2: "'kern' Horizontal Kerning lookup 15-1" uniFEE3 dx=-213 dy=0 dh=-213 dv=0 dx=0 dy=0 dh=0 dv=0
PairPos2: "'kern' Horizontal Kerning lookup 15-1" uni0645 dx=-213 dy=0 dh=-213 dv=0 dx=0 dy=0 dh=0 dv=0
PairPos2: "'kern' Horizontal Kerning lookup 15-1" uni0644 dx=-141 dy=0 dh=-141 dv=0 dx=0 dy=0 dh=0 dv=0
PairPos2: "'kern' Horizontal Kerning lookup 15-1" uniFEDB dx=-213 dy=0 dh=-213 dv=0 dx=0 dy=0 dh=0 dv=0
PairPos2: "'kern' Horizontal Kerning lookup 15-1" uniFED7 dx=-213 dy=0 dh=-213 dv=0 dx=0 dy=0 dh=0 dv=0
PairPos2: "'kern' Horizontal Kerning lookup 15-1" uni0642 dx=-141 dy=0 dh=-141 dv=0 dx=0 dy=0 dh=0 dv=0
PairPos2: "'kern' Horizontal Kerning lookup 15-1" uniFED3 dx=-213 dy=0 dh=-213 dv=0 dx=0 dy=0 dh=0 dv=0
PairPos2: "'kern' Horizontal Kerning lookup 15-1" uni0641 dx=-213 dy=0 dh=-213 dv=0 dx=0 dy=0 dh=0 dv=0
PairPos2: "'kern' Horizontal Kerning lookup 15-1" uniFECF dx=-213 dy=0 dh=-213 dv=0 dx=0 dy=0 dh=0 dv=0
PairPos2: "'kern' Horizontal Kerning lookup 15-1" uniFECB dx=-213 dy=0 dh=-213 dv=0 dx=0 dy=0 dh=0 dv=0
PairPos2: "'kern' Horizontal Kerning lookup 15-1" uniFEC7 dx=-213 dy=0 dh=-213 dv=0 dx=0 dy=0 dh=0 dv=0
PairPos2: "'kern' Horizontal Kerning lookup 15-1" uni0638 dx=-213 dy=0 dh=-213 dv=0 dx=0 dy=0 dh=0 dv=0
PairPos2: "'kern' Horizontal Kerning lookup 15-1" uniFEC3 dx=-213 dy=0 dh=-213 dv=0 dx=0 dy=0 dh=0 dv=0
PairPos2: "'kern' Horizontal Kerning lookup 15-1" uni0637 dx=-213 dy=0 dh=-213 dv=0 dx=0 dy=0 dh=0 dv=0
PairPos2: "'kern' Horizontal Kerning lookup 15-1" uniFEBF dx=-213 dy=0 dh=-213 dv=0 dx=0 dy=0 dh=0 dv=0
PairPos2: "'kern' Horizontal Kerning lookup 15-1" uni0636 dx=-213 dy=0 dh=-213 dv=0 dx=0 dy=0 dh=0 dv=0
PairPos2: "'kern' Horizontal Kerning lookup 15-1" uniFEBB dx=-213 dy=0 dh=-213 dv=0 dx=0 dy=0 dh=0 dv=0
PairPos2: "'kern' Horizontal Kerning lookup 15-1" uni0635 dx=-213 dy=0 dh=-213 dv=0 dx=0 dy=0 dh=0 dv=0
PairPos2: "'kern' Horizontal Kerning lookup 15-1" uniFEB7 dx=-213 dy=0 dh=-213 dv=0 dx=0 dy=0 dh=0 dv=0
PairPos2: "'kern' Horizontal Kerning lookup 15-1" uni0634 dx=-213 dy=0 dh=-213 dv=0 dx=0 dy=0 dh=0 dv=0
PairPos2: "'kern' Horizontal Kerning lookup 15-1" uniFEB3 dx=-213 dy=0 dh=-213 dv=0 dx=0 dy=0 dh=0 dv=0
PairPos2: "'kern' Horizontal Kerning lookup 15-1" uni0633 dx=-213 dy=0 dh=-213 dv=0 dx=0 dy=0 dh=0 dv=0
PairPos2: "'kern' Horizontal Kerning lookup 15-1" uni0630 dx=-213 dy=0 dh=-213 dv=0 dx=0 dy=0 dh=0 dv=0
PairPos2: "'kern' Horizontal Kerning lookup 15-1" uni062F dx=-213 dy=0 dh=-213 dv=0 dx=0 dy=0 dh=0 dv=0
PairPos2: "'kern' Horizontal Kerning lookup 15-1" uniFEA7 dx=-213 dy=0 dh=-213 dv=0 dx=0 dy=0 dh=0 dv=0
PairPos2: "'kern' Horizontal Kerning lookup 15-1" uniFEA3 dx=-213 dy=0 dh=-213 dv=0 dx=0 dy=0 dh=0 dv=0
PairPos2: "'kern' Horizontal Kerning lookup 15-1" uniFE9F dx=-213 dy=0 dh=-213 dv=0 dx=0 dy=0 dh=0 dv=0
PairPos2: "'kern' Horizontal Kerning lookup 15-1" uniFE9B dx=-213 dy=0 dh=-213 dv=0 dx=0 dy=0 dh=0 dv=0
PairPos2: "'kern' Horizontal Kerning lookup 15-1" uni062B dx=-213 dy=0 dh=-213 dv=0 dx=0 dy=0 dh=0 dv=0
PairPos2: "'kern' Horizontal Kerning lookup 15-1" uniFE97 dx=-213 dy=0 dh=-213 dv=0 dx=0 dy=0 dh=0 dv=0
PairPos2: "'kern' Horizontal Kerning lookup 15-1" uni062A dx=-213 dy=0 dh=-213 dv=0 dx=0 dy=0 dh=0 dv=0
PairPos2: "'kern' Horizontal Kerning lookup 15-1" uni0629 dx=-99 dy=0 dh=-99 dv=0 dx=0 dy=0 dh=0 dv=0
PairPos2: "'kern' Horizontal Kerning lookup 15-1" uniFE91 dx=-99 dy=0 dh=-99 dv=0 dx=0 dy=0 dh=0 dv=0
PairPos2: "'kern' Horizontal Kerning lookup 15-1" uni0628 dx=-213 dy=0 dh=-213 dv=0 dx=0 dy=0 dh=0 dv=0
PairPos2: "'kern' Horizontal Kerning lookup 15-1" uni0627 dx=-241 dy=0 dh=-241 dv=0 dx=0 dy=0 dh=0 dv=0
PairPos2: "'kern' Horizontal Kerning lookup 15-1" uni0622 dx=-241 dy=0 dh=-241 dv=0 dx=0 dy=0 dh=0 dv=0
PairPos2: "'kern' Horizontal Kerning lookup 15-1" uniFB94 dx=-213 dy=0 dh=-213 dv=0 dx=0 dy=0 dh=0 dv=0
PairPos2: "'kern' Horizontal Kerning lookup 15-1" afii57509 dx=-213 dy=0 dh=-213 dv=0 dx=0 dy=0 dh=0 dv=0
PairPos2: "'kern' Horizontal Kerning lookup 15-1" uniFB56 dx=-213 dy=0 dh=-213 dv=0 dx=0 dy=0 dh=0 dv=0
PairPos2: "'kern' Horizontal Kerning lookup 15-1" afii57506 dx=-213 dy=0 dh=-213 dv=0 dx=0 dy=0 dh=0 dv=0
Substitution2: "'fina' Terminal Forms in Arabic lookup 9 subtable" uniFEAE
EndChar

StartChar: uni0633
Encoding: 1587 1587 24
Width: 2192
VWidth: 2270
GlyphClass: 2
Flags: W
AnchorPoint: "Anchor-7" 296.459 -730.369 basechar 0
AnchorPoint: "Anchor-10" 499.989 870.793 basechar 0
LayerCount: 2
Fore
SplineSet
1421.81 -20 m 0,0,1
 1299.93 -23.0957 1299.93 -23.0957 1258.58 63.1084 c 1,2,3
 1268.58 17.1084 1268.58 17.1084 1266.58 -20 c 1,4,5
 1186.55 -491.442 1186.55 -491.442 667.084 -501.362 c 0,6,7
 303.238 -508.027 303.238 -508.027 163.697 -307.568 c 0,8,9
 54.8994 -150.017 54.8994 -150.017 114.188 87.3965 c 0,10,11
 129.817 149.977 129.817 149.977 164.933 253.351 c 0,12,13
 186.841 317.842 186.841 317.842 206 359.108 c 1,14,-1
 274.45 314.109 l 1,15,16
 170.739 20.8916 170.739 20.8916 237.178 -120.305 c 0,17,18
 339.242 -337.212 339.242 -337.212 662.852 -331.804 c 0,19,20
 1131.32 -323.834 1131.32 -323.834 1155.58 -20 c 1,21,-1
 1023.58 388.108 l 1,22,-1
 1173.33 529.794 l 1,23,24
 1215.92 302.382 1215.92 302.382 1243.93 243.396 c 0,25,26
 1290.84 144.622 1290.84 144.622 1391.45 149.392 c 2,27,-1
 1425.2 150.992 l 0,28,29
 1530.05 149.466 1530.05 149.466 1571.6 280.535 c 0,30,31
 1588.28 332.914 1588.28 332.914 1589.96 411.416 c 1,32,33
 1594.96 467.022 1594.96 467.022 1628.46 467.302 c 0,34,35
 1669.93 467.669 1669.93 467.669 1673.96 416.916 c 1,36,-1
 1675.08 394.141 l 2,37,38
 1686.38 164.334 1686.38 164.334 1845.34 159.642 c 1,39,40
 1990.38 159.642 1990.38 159.642 1984.43 323.5 c 0,41,42
 1983.01 368.028 1983.01 368.028 1861.93 587.62 c 1,43,-1
 2005.45 717.838 l 1,44,45
 2089.89 540.655 2089.89 540.655 2100.54 371.615 c 0,46,47
 2111.21 195.674 2111.21 195.674 2025.95 80.1309 c 0,48,49
 1948.61 -24.6939 1948.61 -24.6939 1839.14 -19.4756 c 0,50,51
 1769.9 -16.175 1769.9 -16.175 1743.15 -3.5459 c 0,52,53
 1647.22 42.4795 1647.22 42.4795 1609.8 150.513 c 1,54,55
 1551.51 -15.6968 1551.51 -15.6968 1421.81 -20 c 0,0,1
EndSplineSet
Substitution2: "'fina' Terminal Forms in Arabic lookup 9 subtable" uniFEB2
Substitution2: "'medi' Medial Forms in Arabic lookup 11 subtable" uniFEB4
Substitution2: "'init' Initial Forms in Arabic lookup 13 subtable" uniFEB3
EndChar

StartChar: uni0635
Encoding: 1589 1589 26
Width: 2346
VWidth: 2271
GlyphClass: 2
Flags: W
AnchorPoint: "Anchor-10" 388.398 872.124 basechar 0
AnchorPoint: "Anchor-7" 351.298 -768.756 basechar 0
LayerCount: 2
Fore
SplineSet
1468.28 -20 m 2,0,1
 1321.53 -19.6201 1321.53 -19.6201 1260.58 63.1084 c 1,2,3
 1270.58 17.1084 1270.58 17.1084 1268.58 -20 c 1,4,5
 1188.55 -491.442 1188.55 -491.442 669.084 -501.362 c 0,6,7
 305.238 -508.027 305.238 -508.027 165.697 -307.568 c 0,8,9
 56.8994 -150.017 56.8994 -150.017 116.188 87.3965 c 0,10,11
 131.817 149.977 131.817 149.977 166.933 253.351 c 0,12,13
 193.618 331.907 193.618 331.907 206 359.108 c 1,14,-1
 271.839 305.704 l 1,15,16
 174.405 17.3516 174.405 17.3516 239.178 -120.305 c 0,17,18
 341.242 -337.212 341.242 -337.212 664.852 -331.804 c 0,19,20
 1133.32 -323.834 1133.32 -323.834 1157.58 -20 c 1,21,-1
 1025.58 388.108 l 1,22,-1
 1175.33 529.794 l 1,23,24
 1221.53 283.094 1221.53 283.094 1245.93 243.396 c 8,25,26
 1297.36 162.33 1297.36 162.33 1384.34 180.704 c 1,27,28
 1576.17 452.246 1576.17 452.246 1666.34 540.704 c 0,29,30
 1846.02 713.756 1846.02 713.756 2007.13 702.529 c 0,31,32
 2239.54 686.815 2239.54 686.815 2254.07 419.104 c 4,33,34
 2268.82 157.211 2268.82 157.211 2068.07 56.1035 c 0,35,36
 1914.67 -21.1562 1914.67 -21.1562 1742.81 -20.7109 c 2,37,-1
 1468.28 -20 l 2,0,1
1492.06 159.099 m 1,38,-1
 1681.56 159.099 l 2,39,40
 1871.45 159.099 1871.45 159.099 2018.98 208.126 c 0,41,42
 2141.11 247.346 2141.11 247.346 2135.13 392.529 c 0,43,44
 2128.08 585.043 2128.08 585.043 1947.87 544.348 c 0,45,46
 1862.34 525.033 1862.34 525.033 1730.05 404.088 c 0,47,48
 1590.07 276.104 1590.07 276.104 1492.06 159.099 c 1,38,-1
EndSplineSet
Substitution2: "'fina' Terminal Forms in Arabic lookup 9 subtable" uniFEBA
Substitution2: "'medi' Medial Forms in Arabic lookup 11 subtable" uniFEBC
Substitution2: "'init' Initial Forms in Arabic lookup 13 subtable" uniFEBB
EndChar

StartChar: uni0637
Encoding: 1591 1591 28
Width: 1317
VWidth: 2271
GlyphClass: 2
Flags: W
AnchorPoint: "Anchor-10" 258.828 1506.61 basechar 0
AnchorPoint: "Anchor-7" 706.148 -337.606 basechar 0
LayerCount: 2
Fore
SplineSet
242.422 158.992 m 1,0,1
 243.062 159.799 243.062 159.799 235.604 456.371 c 2,2,3
 225.37 902.756 225.37 902.756 222.385 982 c 0,4,5
 210.656 1226.96 210.656 1226.96 198.163 1306.77 c 5,6,-1
 355.755 1409.02 l 1,7,-1
 355.112 182.301 l 1,8,9
 544.643 453.843 544.643 453.843 637.112 541.301 c 0,10,11
 816.795 714.354 816.795 714.354 977.901 703.126 c 0,12,13
 1211.32 687.412 1211.32 687.412 1225.84 419.7 c 0,14,15
 1240.56 157.81 1240.56 157.81 1038.84 56.7002 c 0,16,17
 885.449 -20.5594 885.449 -20.5594 713.584 -20.1143 c 2,18,-1
 439.054 -19.4033 l 2,19,-1
 204.696 -19.8584 l 2,20,21
 52.6963 -20.1536 52.6963 -20.1536 52.6963 144 c 2,22,-1
 52.6963 158.958 l 1,23,-1
 242.422 158.992 l 1,0,1
462.834 159.695 m 1,24,-1
 652.334 159.695 l 2,25,26
 837.085 159.695 837.085 159.695 989.753 208.723 c 0,27,28
 1111.88 247.942 1111.88 247.942 1105.9 393.126 c 0,29,30
 1098.86 585.64 1098.86 585.64 918.644 544.944 c 0,31,32
 833.11 525.63 833.11 525.63 700.828 404.685 c 0,33,34
 560.844 276.7 560.844 276.7 462.834 159.695 c 1,24,-1
EndSplineSet
Substitution2: "'fina' Terminal Forms in Arabic lookup 9 subtable" uniFEC2
Substitution2: "'medi' Medial Forms in Arabic lookup 11 subtable" uniFEC4
Substitution2: "'init' Initial Forms in Arabic lookup 13 subtable" uniFEC3
EndChar

StartChar: uni0639
Encoding: 1593 1593 30
Width: 1379
VWidth: 2267
GlyphClass: 2
Flags: W
AnchorPoint: "Anchor-10" 540.969 1462.94 basechar 0
AnchorPoint: "Anchor-7" 294.953 -805.751 basechar 0
LayerCount: 2
Fore
SplineSet
94.5244 -237.803 m 0,0,1
 58.6035 158.877 58.6035 158.877 395.64 391 c 1,2,3
 126.186 495.292 126.186 495.292 193.702 780.7 c 0,4,5
 240.42 974.021 240.42 974.021 442.702 1022 c 4,6,7
 553.538 1049.47 553.538 1049.47 668.202 1016.81 c 0,8,9
 729.939 999.72 729.939 999.72 793.702 939.153 c 1,10,11
 801.451 794.993 l 1,12,13
 690.702 888.7 690.702 888.7 536.702 871.699 c 0,14,15
 340.43 850.582 340.43 850.582 321.694 703.41 c 0,16,17
 304.145 560.952 304.145 560.952 486.64 458 c 1,18,19
 712.435 522.626 712.435 522.626 907.202 538.626 c 1,20,21
 879.202 380.626 l 1,22,23
 583.759 366.263 583.759 366.263 428.64 247.984 c 0,24,25
 231.75 96.0566 231.75 96.0566 235.731 -147.538 c 0,26,27
 239.205 -357.156 239.205 -357.156 401.202 -452.945 c 0,28,29
 541.532 -535.923 541.532 -535.923 853.211 -512.016 c 0,30,31
 1114.14 -492.002 1114.14 -492.002 1284.34 -367.699 c 1,32,-1
 1281.6 -395.615 l 2,33,34
 1257.34 -642.822 1257.34 -642.822 893.4 -700.217 c 0,35,36
 698.002 -731.033 698.002 -731.033 517 -692 c 0,37,38
 127.418 -607.929 127.418 -607.929 94.5244 -237.803 c 0,0,1
EndSplineSet
Substitution2: "'fina' Terminal Forms in Arabic lookup 9 subtable" uniFECA
Substitution2: "'medi' Medial Forms in Arabic lookup 11 subtable" uniFECC
Substitution2: "'init' Initial Forms in Arabic lookup 13 subtable" uniFECB
EndChar

StartChar: afii57440
Encoding: 1600 1600 32
Width: 661
VWidth: 2286
GlyphClass: 2
Flags: W
AnchorPoint: "Anchor-10" 321 1330.9 basechar 0
AnchorPoint: "Anchor-7" 321 -143.56 basechar 0
LayerCount: 2
Fore
SplineSet
-10.8643 -20.0693 m 1,0,-1
 -10.8643 159.049 l 1,1,-1
 671.864 159.049 l 1,2,-1
 671.864 -20.0693 l 5,3,-1
 -10.8643 -20.0693 l 1,0,-1
EndSplineSet
EndChar

StartChar: uni0643
Encoding: 1603 1603 35
Width: 1733
VWidth: 2247
GlyphClass: 2
Flags: W
AnchorPoint: "Anchor-10" 469.786 1417.38 basechar 0
AnchorPoint: "Anchor-7" 502.908 -301.096 basechar 0
LayerCount: 2
Fore
SplineSet
1431.31 1295.7 m 5,0,1
 1592.72 1398.09 l 1,2,-1
 1592.72 410.096 l 2,3,-1
 1589.92 352.519 l 0,4,5
 1585.02 283.369 1585.02 283.369 1572 249 c 0,6,7
 1543.27 173.176 1543.27 173.176 1464 117 c 0,8,9
 1323.93 17.7383 1323.93 17.7383 1174 2.19922 c 0,10,11
 968.703 -19.0781 968.703 -19.0781 927.431 -20.5625 c 16,12,13
 461.388 -37.3242 461.388 -37.3242 275.763 59.6758 c 0,14,15
 84.918 159.401 84.918 159.401 91.3027 456.599 c 0,16,17
 94 583.155 94 583.155 145.753 684.154 c 1,18,19
 206.763 684 l 1,20,21
 191.182 612.774 191.182 612.774 184.763 555 c 0,22,23
 179.543 508.021 179.543 508.021 181.479 453.573 c 0,24,25
 189.608 224.913 189.608 224.913 549.649 173.732 c 0,26,27
 647.879 159.769 647.879 159.769 963.263 159.172 c 0,28,29
 1066.85 159.044 1066.85 159.044 1146 172.199 c 0,30,31
 1452.04 224.983 1452.04 224.983 1466.91 388.855 c 0,32,-1
 1468.75 445.301 l 2,33,34
 1472.59 563.17 1472.59 563.17 1455.53 970.931 c 0,35,36
 1443.8 1215.89 1443.8 1215.89 1431.31 1295.7 c 5,0,1
1008.64 1234.2 m 1,37,-1
 1008.64 1179.14 l 1,38,39
 934.768 1173.7 934.768 1173.7 893.99 1158.67 c 0,40,41
 790.869 1120.01 790.869 1120.01 790.869 1069.36 c 0,42,43
 790.869 1031.05 790.869 1031.05 810.664 1005.6 c 0,44,45
 828.888 981.3 828.888 981.3 913.788 968.812 c 0,46,47
 966.146 961.115 966.146 961.115 992.578 936.977 c 0,48,49
 1018.47 913.325 1018.47 913.325 1018.47 870.869 c 0,50,51
 1018.47 769.004 1018.47 769.004 923.908 715.529 c 0,52,53
 850.908 674.246 850.908 674.246 750.97 673.317 c 0,54,55
 687.436 673.317 687.436 673.317 631.677 682.631 c 1,56,-1
 631.677 744.59 l 1,57,58
 696.081 736.101 696.081 736.101 740.762 736.101 c 0,59,60
 820.059 736.101 820.059 736.101 871.184 756.229 c 0,61,62
 960.598 790.567 960.598 790.567 960.598 848.185 c 0,63,64
 960.598 913.451 960.598 913.451 856.785 929.27 c 0,65,66
 796.58 938.443 796.58 938.443 763.983 971.781 c 128,-1,67
 731.306 1005.2 731.306 1005.2 732.615 1065.49 c 0,68,69
 734.605 1145.95 734.605 1145.95 809.488 1183.9 c 0,70,71
 894.611 1226.97 894.611 1226.97 1008.64 1234.2 c 1,37,-1
EndSplineSet
Substitution2: "'fina' Terminal Forms in Arabic lookup 9 subtable" uniFEDA
Substitution2: "'medi' Medial Forms in Arabic lookup 11 subtable" uniFEDC
Substitution2: "'init' Initial Forms in Arabic lookup 13 subtable" uniFEDB
EndChar

StartChar: uni0644
Encoding: 1604 1604 36
Width: 1393
VWidth: 2247
GlyphClass: 2
Flags: W
AnchorPoint: "Anchor-10" 568.887 988.06 basechar 0
AnchorPoint: "Anchor-7" 390.854 -615.884 basechar 0
LayerCount: 2
Fore
SplineSet
1153.84 145.489 m 2,0,1
 1156.31 198.442 1156.31 198.442 1123.64 979.461 c 0,2,3
 1111.91 1224.42 1111.91 1224.42 1099.42 1304.23 c 5,4,-1
 1260.83 1406.62 l 1,5,-1
 1260.83 369.488 l 2,6,7
 1260.83 12.1104 1260.83 12.1104 1257.55 -16.665 c 17,8,9
 1177.41 -489.132 1177.41 -489.132 658.4 -498.643 c 0,10,11
 294.555 -505.308 294.555 -505.308 155.014 -304.849 c 0,12,13
 46.2158 -147.297 46.2158 -147.297 105.505 90.1152 c 0,14,15
 121.134 152.696 121.134 152.696 156.249 256.07 c 0,16,17
 178.157 320.562 178.157 320.562 197.316 361.828 c 1,18,-1
 266.711 322 l 1,19,20
 160.44 25.7773 160.44 25.7773 228.494 -117.585 c 0,21,22
 330.559 -334.492 330.559 -334.492 654.168 -329.084 c 0,23,24
 1120.48 -321.19 1120.48 -321.19 1145.88 -10.332 c 9,25,26
 1148.34 22.3955 1148.34 22.3955 1149.33 48.7959 c 0,27,28
 1153.4 143.999 1153.4 143.999 1153.84 145.489 c 2,0,1
EndSplineSet
Substitution2: "'fina' Terminal Forms in Arabic lookup 9 subtable" uniFEDE
Substitution2: "'medi' Medial Forms in Arabic lookup 11 subtable" uniFEE0
Substitution2: "'init' Initial Forms in Arabic lookup 13 subtable" uniFEDF
EndChar

StartChar: uni0645
Encoding: 1605 1605 37
Width: 1094
VWidth: 2288
GlyphClass: 2
Flags: W
AnchorPoint: "Anchor-10" 599.117 1043.54 basechar 0
AnchorPoint: "Anchor-7" 212.476 -733.894 basechar 0
LayerCount: 2
Fore
SplineSet
798.812 287.33 m 1,0,1
 891.462 280.944 891.462 280.944 872.87 340 c 0,2,3
 823.148 498.111 823.148 498.111 697.488 565.762 c 0,4,5
 588.094 623.553 588.094 623.553 514.118 532.686 c 2,6,-1
 513.994 532.533 l 1,7,8
 458.24 452.892 458.24 452.892 471.729 299.33 c 1,9,-1
 798.812 287.33 l 1,0,1
420.507 140.096 m 0,10,11
 270.847 140.096 270.847 140.096 229.789 60.3262 c 0,12,13
 190.024 -17.2283 190.024 -17.2283 206.812 -137.67 c 0,14,15
 234.311 -334.956 234.311 -334.956 273.747 -550.947 c 0,16,17
 142.907 -657.625 l 1,18,-1
 91.9072 -102.645 l 2,19,20
 78.7307 40.7417 78.7307 40.7417 135.609 149 c 0,21,22
 190.394 253.277 190.394 253.277 333.43 277.973 c 2,23,-1
 338.052 278.771 l 1,24,-1
 337.82 283.457 l 2,25,26
 326.126 519.664 326.126 519.664 446.533 650.491 c 0,27,28
 601.149 817.068 601.149 817.068 808.55 658.686 c 24,29,30
 981.273 527.406 981.273 527.406 1005.31 295.044 c 4,31,32
 1014.31 208.044 1014.31 208.044 935.869 139 c 0,33,34
 921.48 127.145 921.48 127.145 710.545 133.732 c 0,35,36
 520.751 140.096 520.751 140.096 420.507 140.096 c 0,10,11
EndSplineSet
Substitution2: "'init' Initial Forms in Arabic lookup 13 subtable" uniFEE3
Substitution2: "'medi' Medial Forms in Arabic lookup 11 subtable" uniFEE4
Substitution2: "'fina' Terminal Forms in Arabic lookup 9 subtable" uniFEE2
EndChar

StartChar: uni0647
Encoding: 1607 1607 39
Width: 849
VWidth: 2266
GlyphClass: 2
Flags: W
AnchorPoint: "Anchor-10" 372.637 1172.82 basechar 0
AnchorPoint: "Anchor-7" 276.113 -238.192 basechar 0
LayerCount: 2
Fore
SplineSet
207.307 324.196 m 0,0,1
 171.201 193.319 171.201 193.319 309.087 149.272 c 0,2,3
 414.774 114.809 414.774 114.809 508.763 145.635 c 0,4,5
 646.616 189.937 646.616 189.937 582.191 343.385 c 0,6,7
 528.774 470.519 528.774 470.519 388.64 587.517 c 1,8,9
 230.882 412.922 230.882 412.922 207.307 324.196 c 0,0,1
128.887 446.057 m 24,10,11
 194.29 566.534 194.29 566.534 324.191 681.385 c 5,12,13
 295.205 705.065 l 5,14,15
 370.566 843.213 l 1,16,17
 652.195 598.648 652.195 598.648 722.851 406.638 c 0,18,19
 808.613 174.337 808.613 174.337 654.646 43.7529 c 0,20,21
 577.465 -21.707 577.465 -21.707 420.343 -20.2344 c 0,22,23
 264.538 -18.8086 264.538 -18.8086 197.191 21.3848 c 0,24,25
 89.0146 84.4062 89.0146 84.4062 71.6465 179.433 c 0,26,27
 48.9678 301.297 48.9678 301.297 128.887 446.057 c 24,10,11
EndSplineSet
Substitution2: "'fina' Terminal Forms in Arabic lookup 9 subtable" uniFEEA
Substitution2: "'medi' Medial Forms in Arabic lookup 11 subtable" uniFEEC
Substitution2: "'init' Initial Forms in Arabic lookup 13 subtable" uniFEEB
EndChar

StartChar: uni0648
Encoding: 1608 1608 40
Width: 839
VWidth: 2287
GlyphClass: 2
Flags: W
AnchorPoint: "Anchor-10" 414.024 1025.03 basechar 0
AnchorPoint: "Anchor-7" 335.608 -734.098 basechar 0
LayerCount: 2
Fore
SplineSet
471.147 410.134 m 4,0,1
 362.168 407.911 362.168 407.911 340.147 271.135 c 4,2,3
 325.514 183.271 325.514 183.271 396.065 154.669 c 4,4,5
 492.65 115.513 492.65 115.513 640.146 162.133 c 5,6,7
 641.694 240.763 641.694 240.763 613.146 303.53 c 4,8,9
 564.986 411.077 564.986 411.077 471.147 410.134 c 4,0,1
631.315 -11.2451 m 5,10,11
 551.364 -32.3359 551.364 -32.3359 455.147 -21.9697 c 4,12,13
 337.059 -9.24707 337.059 -9.24707 281.935 76.6768 c 4,14,15
 232.939 153.167 232.939 153.167 244.935 266.078 c 4,16,17
 262.795 445.016 262.795 445.016 359.147 538.134 c 4,18,19
 412.37 589.57 412.37 589.57 507.147 581.53 c 4,20,21
 575.659 575.373 575.659 575.373 643.146 499.53 c 4,22,23
 724.609 409.473 724.609 409.473 744.83 243.518 c 4,24,25
 765.411 65.7949 765.411 65.7949 746.315 -23.2451 c 28,26,27
 658.498 -439.917 658.498 -439.917 362.916 -465.825 c 4,28,29
 192.75 -481.274 192.75 -481.274 53.7939 -352.319 c 5,30,31
 549.09 -297.062 549.09 -297.062 631.315 -11.2451 c 5,10,11
EndSplineSet
Substitution2: "'fina' Terminal Forms in Arabic lookup 9 subtable" uniFEEE
EndChar

StartChar: uni0649
Encoding: 1609 1609 41
Width: 1482
VWidth: 2284
GlyphClass: 2
Flags: W
AnchorPoint: "Anchor-10" 467.085 1001.11 basechar 0
AnchorPoint: "Anchor-7" 250.388 -597.419 basechar 0
LayerCount: 2
Fore
SplineSet
1339 -141.667 m 4,0,1
 1135.31 -379.758 1135.31 -379.758 745.706 -401 c 0,2,3
 202.133 -430.636 202.133 -430.636 135.878 -95 c 1,4,5
 106.725 60.0801 106.725 60.0801 158.675 244.373 c 0,6,7
 182.258 328.032 182.258 328.032 253.412 505.802 c 0,8,9
 274.036 557.329 274.036 557.329 299.412 602.802 c 1,10,11
 370.982 567.802 l 1,12,13
 315.041 425.39 315.041 425.39 302.783 387.688 c 0,14,15
 286.962 339.026 286.962 339.026 268.712 255.232 c 0,16,17
 222.487 44.3037 222.487 44.3037 298.261 -79.9834 c 0,18,19
 409.13 -261.835 409.13 -261.835 805.706 -230 c 0,20,21
 1059 -209.667 1059 -209.667 1185 -134 c 0,22,23
 1228.99 -107.153 1228.99 -107.153 1254.21 -78.4307 c 0,24,25
 1272.24 -57.8203 1272.24 -57.8203 1277.71 -41.9971 c 0,26,27
 1284.04 -23.667 1284.04 -23.667 1268.37 -3.66699 c 0,28,29
 1239.61 32.6143 1239.61 32.6143 1118.9 22.1279 c 0,30,31
 953.387 8.17773 953.387 8.17773 869.725 76.8242 c 0,32,33
 763.038 162.638 763.038 162.638 839 354 c 0,34,35
 963.916 667.886 963.916 667.886 1188.41 688.164 c 0,36,37
 1347.31 703.071 1347.31 703.071 1359.33 546.844 c 2,38,-1
 1361.11 523.713 l 1,39,40
 1135.58 549.268 1135.58 549.268 1030.88 430 c 0,41,42
 945.212 333.005 945.212 333.005 952.954 222.293 c 0,43,44
 958.073 154.078 958.073 154.078 1118.31 155.513 c 0,45,46
 1235.96 157.226 1235.96 157.226 1302.37 123.713 c 0,47,48
 1387.84 79.708 1387.84 79.708 1391.85 -0.40332 c 0,49,50
 1392.93 -22.0879 1392.93 -22.0879 1389.54 -36.5 c 0,51,52
 1376.83 -94.791 1376.83 -94.791 1339 -141.667 c 4,0,1
EndSplineSet
Substitution2: "'fina' Terminal Forms in Arabic lookup 9 subtable" uniFEF0
Substitution2: "'medi' Medial Forms in Arabic lookup 11 subtable" uniFBE9
Substitution2: "'init' Initial Forms in Arabic lookup 13 subtable" uniFBE8
EndChar

StartChar: uni064B
Encoding: 1611 1611 43
Width: 0
VWidth: 2186
GlyphClass: 4
Flags: W
AnchorPoint: "Anchor-10" 547.84 1041.5 mark 0
AnchorPoint: "Anchor-9" 547.84 1041.5 mark 0
AnchorPoint: "Anchor-1" 547.84 1576.5 basemark 0
AnchorPoint: "Anchor-1" 547.84 1041.5 mark 0
LayerCount: 2
Fore
SplineSet
269.4 977.41 m 5,0,-1
 269.4 1104.48 l 5,1,-1
 827.28 1332.79 l 5,2,-1
 827.28 1205.72 l 5,3,-1
 269.4 977.41 l 5,0,-1
269.4 1234.21 m 5,4,-1
 269.4 1361.28 l 5,5,-1
 827.28 1589.59 l 5,6,-1
 827.28 1462.52 l 5,7,-1
 269.4 1234.21 l 5,4,-1
EndSplineSet
EndChar

StartChar: uni064C
Encoding: 1612 1612 44
Width: 0
VWidth: 2186
GlyphClass: 4
Flags: W
AnchorPoint: "Anchor-10" 554.386 1155.44 mark 0
AnchorPoint: "Anchor-9" 554.386 1155.44 mark 0
AnchorPoint: "Anchor-1" 546.386 1810.94 basemark 0
AnchorPoint: "Anchor-1" 554.386 1155.44 mark 0
LayerCount: 2
Fore
SplineSet
567.219 1298.72 m 0,0,1
 608.391 1338.78 608.391 1338.78 631.845 1385.69 c 2,2,-1
 639.364 1400.73 l 1,3,-1
 622.913 1404.22 l 2,4,5
 589.558 1411.29 589.558 1411.29 566.532 1424.31 c 0,6,7
 457.736 1481.73 457.736 1481.73 457.736 1574.47 c 0,8,9
 457.736 1661.08 457.736 1661.08 526.365 1712.8 c 0,10,11
 552.86 1732.67 552.86 1732.67 615.937 1732.67 c 0,12,13
 688.759 1732.67 688.759 1732.67 727.738 1694.66 c 0,14,15
 782.696 1640.71 782.696 1640.71 782.696 1561.63 c 0,16,17
 782.696 1521.9 782.696 1521.9 770.46 1483.15 c 2,18,-1
 765.402 1467.14 l 1,19,-1
 782.175 1466.26 l 2,20,21
 802.247 1465.2 802.247 1465.2 817.806 1465.17 c 0,22,23
 831.205 1464.45 831.205 1464.45 845.826 1464.2 c 1,24,-1
 845.826 1372.44 l 1,25,26
 806.232 1372.69 806.232 1372.69 788.381 1374.48 c 2,27,-1
 723.27 1380.74 l 1,28,-1
 719.537 1371.99 l 2,29,30
 692.652 1308.91 692.652 1308.91 614.12 1227.24 c 1,31,32
 527.043 1139.14 527.043 1139.14 431.896 1139.14 c 0,33,34
 319.02 1139.14 319.02 1139.14 262.205 1295.39 c 0,35,36
 247.89 1334.51 247.89 1334.51 246.994 1442.7 c 1,37,-1
 317.299 1442.7 l 1,38,39
 318.143 1347.11 318.143 1347.11 331.307 1318.59 c 0,40,41
 372.26 1230.84 372.26 1230.84 431.896 1230.84 c 0,42,43
 497.076 1230.84 497.076 1230.84 567.219 1298.72 c 0,0,1
669.292 1482.64 m 1,44,-1
 680.316 1508.36 l 2,45,46
 690.996 1533.28 690.996 1533.28 690.996 1561.63 c 0,47,48
 690.996 1604.15 690.996 1604.15 668.07 1623.02 c 0,49,50
 646.28 1640.97 646.28 1640.97 620.217 1640.97 c 0,51,52
 591.787 1640.97 591.787 1640.97 575.875 1628.63 c 0,53,54
 551.576 1610.34 551.576 1610.34 551.576 1574.47 c 0,55,56
 551.576 1526.08 551.576 1526.08 607.898 1503.55 c 0,57,58
 629.803 1494.79 629.803 1494.79 658.123 1486.08 c 2,59,-1
 669.292 1482.64 l 1,44,-1
EndSplineSet
EndChar

StartChar: uni064D
Encoding: 1613 1613 45
Width: 0
VWidth: 2186
GlyphClass: 4
Flags: W
AnchorPoint: "Anchor-7" 531.84 75.5 mark 0
AnchorPoint: "Anchor-6" 531.84 75.5 mark 0
AnchorPoint: "Anchor-0" 547.84 -439.5 basemark 0
AnchorPoint: "Anchor-0" 531.84 75.5 mark 0
LayerCount: 2
Fore
SplineSet
270.96 -512.18 m 5,0,-1
 270.96 -385.109 l 5,1,-1
 828.84 -156.8 l 5,2,-1
 828.84 -283.87 l 5,3,-1
 270.96 -512.18 l 5,0,-1
270.96 -255.38 m 5,4,-1
 270.96 -128.31 l 5,5,-1
 828.84 100 l 5,6,-1
 828.84 -27.0703 l 5,7,-1
 270.96 -255.38 l 5,4,-1
EndSplineSet
EndChar

StartChar: uni064E
Encoding: 1614 1614 46
Width: 0
VWidth: 2186
GlyphClass: 4
Flags: W
AnchorPoint: "Anchor-10" 517.84 1279.5 mark 0
AnchorPoint: "Anchor-9" 517.84 1279.5 mark 0
AnchorPoint: "Anchor-1" 517.84 1600.5 basemark 0
AnchorPoint: "Anchor-1" 517.84 1279.5 mark 0
LayerCount: 2
Fore
SplineSet
237.4 1237.41 m 1,0,-1
 237.4 1364.48 l 1,1,-1
 795.28 1592.79 l 5,2,-1
 795.28 1465.72 l 1,3,-1
 237.4 1237.41 l 1,0,-1
EndSplineSet
EndChar

StartChar: uni064F
Encoding: 1615 1615 47
Width: 0
VWidth: 2186
GlyphClass: 4
Flags: W
AnchorPoint: "Anchor-10" 531.84 1205.5 mark 0
AnchorPoint: "Anchor-9" 531.84 1205.5 mark 0
AnchorPoint: "Anchor-1" 547.84 1825 basemark 0
AnchorPoint: "Anchor-1" 531.84 1205.5 mark 0
LayerCount: 2
Fore
SplineSet
594.529 1426.81 m 6,0,1
 586.598 1428.57 586.598 1428.57 567.734 1438.5 c 4,2,3
 459.19 1494.78 459.19 1494.78 459.19 1588.53 c 4,4,5
 459.19 1675.14 459.19 1675.14 527.819 1726.86 c 4,6,7
 554.314 1746.73 554.314 1746.73 617.39 1746.73 c 4,8,9
 690.212 1746.73 690.212 1746.73 729.192 1708.72 c 4,10,11
 784.15 1654.77 784.15 1654.77 784.15 1575.69 c 4,12,13
 784.15 1543.43 784.15 1543.43 769.757 1497.16 c 6,14,-1
 764.821 1481.3 l 5,15,-1
 781.407 1480.32 l 6,16,17
 799.81 1479.24 799.81 1479.24 819.259 1478.7 c 4,18,19
 832.229 1478.34 832.229 1478.34 847.28 1478.21 c 5,20,-1
 847.28 1386.53 l 5,21,22
 817.029 1386.85 817.029 1386.85 789.455 1388.57 c 4,23,24
 757.6 1390.7 757.6 1390.7 727.915 1393.88 c 6,25,-1
 720.312 1394.69 l 5,26,-1
 715.905 1388.44 l 6,27,28
 671.45 1325.37 671.45 1325.37 599.88 1281.81 c 4,29,30
 398.294 1157.85 398.294 1157.85 248.4 1152.36 c 5,31,-1
 248.4 1244.01 l 5,32,33
 408.671 1248.65 408.671 1248.65 554.781 1363.22 c 4,34,35
 580.142 1383.07 580.142 1383.07 601.135 1405.16 c 6,36,-1
 616.962 1421.83 l 5,37,-1
 594.529 1426.81 l 6,0,1
670.746 1496.7 m 5,38,-1
 681.77 1522.42 l 6,39,40
 692.45 1547.34 692.45 1547.34 692.45 1575.69 c 4,41,42
 692.45 1618.21 692.45 1618.21 669.524 1637.08 c 4,43,44
 647.734 1655.03 647.734 1655.03 621.67 1655.03 c 4,45,46
 593.241 1655.03 593.241 1655.03 577.329 1642.69 c 4,47,48
 553.03 1624.4 553.03 1624.4 553.03 1588.53 c 4,49,50
 553.03 1540.14 553.03 1540.14 609.352 1517.61 c 4,51,52
 631.256 1508.85 631.256 1508.85 659.577 1500.14 c 6,53,-1
 670.746 1496.7 l 5,38,-1
EndSplineSet
EndChar

StartChar: uni0650
Encoding: 1616 1616 48
Width: 0
VWidth: 2186
GlyphClass: 4
Flags: W
AnchorPoint: "Anchor-7" 467.84 -12.5 mark 0
AnchorPoint: "Anchor-6" 467.84 -12.5 mark 0
AnchorPoint: "Anchor-0" 556.84 -311.5 basemark 0
AnchorPoint: "Anchor-0" 467.84 -12.5 mark 0
LayerCount: 2
Fore
SplineSet
267.96 -356.836 m 1,0,-1
 267.96 -229.766 l 1,1,-1
 825.84 -1.45605 l 1,2,-1
 825.84 -128.526 l 1,3,-1
 267.96 -356.836 l 1,0,-1
EndSplineSet
EndChar

StartChar: uni0651
Encoding: 1617 1617 49
Width: 0
VWidth: 2186
GlyphClass: 4
Flags: W
AnchorPoint: "Anchor-10" 547.84 1316.5 mark 0
AnchorPoint: "Anchor-9" 547.84 1316.5 mark 0
AnchorPoint: "Anchor-1" 535.84 1818.5 basemark 0
AnchorPoint: "Anchor-1" 547.84 1316.5 mark 0
LayerCount: 2
Fore
SplineSet
398.84 1305.99 m 4,0,1
 306.498 1302.93 306.498 1302.93 261.261 1355.91 c 4,2,3
 227 1396.24 227 1396.24 227 1486.07 c 4,4,5
 227 1527.41 227 1527.41 242.222 1626.56 c 5,6,-1
 320.73 1626.56 l 5,7,8
 307.674 1502.98 307.674 1502.98 307.674 1479 c 4,9,10
 307.674 1394.91 307.674 1394.91 398.84 1393.09 c 4,11,12
 497.128 1391.16 497.128 1391.16 506.266 1518.54 c 4,13,14
 508.184 1545.08 508.184 1545.08 508.4 1680.83 c 5,15,-1
 589.06 1680.83 l 5,16,17
 588.775 1624.49 588.775 1624.49 589.34 1597.53 c 4,18,19
 594.84 1448.99 594.84 1448.99 700.84 1452.09 c 4,20,21
 790.089 1453.28 790.089 1453.28 783.674 1604 c 4,22,23
 779.218 1710.94 779.218 1710.94 774.521 1770.1 c 5,24,-1
 857.705 1770.1 l 5,25,26
 868.68 1694.87 868.68 1694.87 868.68 1580.87 c 4,27,28
 868.68 1504.29 868.68 1504.29 843.84 1449.99 c 4,29,30
 804.992 1364.89 804.992 1364.89 713.84 1360.49 c 4,31,32
 611.451 1355.49 611.451 1355.49 554.84 1431.09 c 5,33,34
 519.173 1310.01 519.173 1310.01 398.84 1305.99 c 4,0,1
EndSplineSet
EndChar

StartChar: uni0652
Encoding: 1618 1618 50
Width: 0
VWidth: 2186
GlyphClass: 4
Flags: W
AnchorPoint: "Anchor-10" 565.84 1128.5 mark 0
AnchorPoint: "Anchor-9" 565.84 1128.5 mark 0
AnchorPoint: "Anchor-1" 551.84 1702 basemark 0
AnchorPoint: "Anchor-1" 565.84 1128.5 mark 0
LayerCount: 2
Fore
SplineSet
674.569 1383.62 m 0,0,1
 674.569 1428.15 674.569 1428.15 643.439 1459.28 c 128,-1,2
 612.312 1490.41 612.312 1490.41 567.126 1490.41 c 0,3,4
 521.285 1490.41 521.285 1490.41 490.485 1459.61 c 128,-1,5
 459.685 1428.81 459.685 1428.81 459.685 1383.62 c 0,6,7
 459.685 1337.78 459.685 1337.78 490.485 1306.98 c 128,-1,8
 521.285 1276.18 521.285 1276.18 567.126 1276.18 c 0,9,10
 612.314 1276.18 612.314 1276.18 643.439 1307.31 c 128,-1,11
 674.569 1338.44 674.569 1338.44 674.569 1383.62 c 0,0,1
750.396 1383.73 m 128,-1,13
 750.396 1306.88 750.396 1306.88 697.316 1253.46 c 128,-1,14
 644.259 1200.07 644.259 1200.07 567.436 1200.07 c 128,-1,15
 490.613 1200.07 490.613 1200.07 437.557 1253.46 c 128,-1,16
 384.476 1306.88 384.476 1306.88 384.476 1383.73 c 128,-1,17
 384.476 1460.56 384.476 1460.56 437.537 1513.63 c 128,-1,18
 490.596 1566.69 490.596 1566.69 567.436 1566.69 c 128,-1,19
 644.276 1566.69 644.276 1566.69 697.335 1513.63 c 128,-1,12
 750.396 1460.56 750.396 1460.56 750.396 1383.73 c 128,-1,13
EndSplineSet
EndChar

StartChar: uni0653
Encoding: 1619 1619 51
Width: 0
VWidth: 2186
GlyphClass: 4
Flags: W
AnchorPoint: "Anchor-10" 442.84 1264.52 mark 0
AnchorPoint: "Anchor-9" 442.84 1264.52 mark 0
AnchorPoint: "Anchor-1" 442.84 1600.5 basemark 0
AnchorPoint: "Anchor-1" 442.84 1264.52 mark 0
LayerCount: 2
Fore
SplineSet
199.483 1394 m 0,0,1
 252.229 1436.43 252.229 1436.43 336.912 1417.1 c 0,2,3
 433.642 1395.02 433.642 1395.02 528.483 1416 c 0,4,5
 598.038 1431.38 598.038 1431.38 620.704 1466.43 c 2,6,-1
 627.747 1477.32 l 1,7,-1
 633.219 1443.81 l 2,8,9
 638.573 1411.02 638.573 1411.02 614.483 1374 c 4,10,11
 597.163 1348.37 597.163 1348.37 562.483 1332 c 0,12,13
 500.242 1304.01 500.242 1304.01 297.66 1326.58 c 0,14,15
 245.85 1332.42 245.85 1332.42 186.455 1251.19 c 2,16,-1
 181.227 1244.04 l 1,17,-1
 175.195 1258.45 l 2,18,19
 138.865 1345.24 138.865 1345.24 199.483 1394 c 0,0,1
EndSplineSet
EndChar

StartChar: uni0657
Encoding: 1623 1623 54
Width: 0
VWidth: 2186
GlyphClass: 4
Flags: W
AnchorPoint: "Anchor-10" 547.84 1279.5 mark 0
AnchorPoint: "Anchor-9" 547.84 1279.5 mark 0
AnchorPoint: "Anchor-1" 547.84 1975 basemark 0
AnchorPoint: "Anchor-1" 547.84 1279.5 mark 0
LayerCount: 2
Fore
SplineSet
501.148 1675.55 m 2,0,1
 509.083 1673.79 509.083 1673.79 527.945 1663.86 c 0,2,3
 636.49 1607.58 636.49 1607.58 636.49 1513.83 c 0,4,5
 636.49 1427.22 636.49 1427.22 567.86 1375.5 c 0,6,7
 541.366 1355.63 541.366 1355.63 478.29 1355.63 c 0,8,9
 405.468 1355.63 405.468 1355.63 366.487 1393.64 c 0,10,11
 311.53 1447.59 311.53 1447.59 311.53 1526.67 c 0,12,13
 311.53 1558.94 311.53 1558.94 325.923 1605.2 c 2,14,-1
 330.858 1621.06 l 1,15,-1
 314.272 1622.04 l 2,16,17
 295.871 1623.12 295.871 1623.12 276.421 1623.66 c 0,18,19
 263.452 1624.02 263.452 1624.02 248.4 1624.15 c 1,20,-1
 248.4 1715.83 l 1,21,22
 278.631 1715.51 278.631 1715.51 306.226 1713.79 c 0,23,24
 338.082 1711.66 338.082 1711.66 367.766 1708.48 c 2,25,-1
 375.369 1707.67 l 1,26,-1
 379.775 1713.92 l 2,27,28
 424.231 1776.99 424.231 1776.99 495.801 1820.55 c 0,29,30
 697.387 1944.51 697.387 1944.51 847.28 1950 c 1,31,-1
 847.28 1858.35 l 1,32,33
 687.009 1853.71 687.009 1853.71 540.898 1739.14 c 0,34,35
 515.54 1719.29 515.54 1719.29 494.545 1697.2 c 2,36,-1
 478.72 1680.54 l 1,37,-1
 501.148 1675.55 l 2,0,1
424.935 1605.66 m 1,38,-1
 413.911 1579.94 l 2,39,40
 403.23 1555.02 403.23 1555.02 403.23 1526.67 c 0,41,42
 403.23 1484.16 403.23 1484.16 426.155 1465.28 c 0,43,44
 447.946 1447.33 447.946 1447.33 474.01 1447.33 c 0,45,46
 502.438 1447.33 502.438 1447.33 518.352 1459.67 c 0,47,48
 542.65 1477.96 542.65 1477.96 542.65 1513.83 c 0,49,50
 542.65 1562.22 542.65 1562.22 486.328 1584.75 c 0,51,52
 464.442 1593.51 464.442 1593.51 436.104 1602.22 c 2,53,-1
 424.935 1605.66 l 1,38,-1
EndSplineSet
EndChar

StartChar: uni065A
Encoding: 1626 1626 55
Width: 1095
VWidth: 2186
GlyphClass: 4
Flags: W
AnchorPoint: "Anchor-10" 547.84 1279.5 mark 0
AnchorPoint: "Anchor-9" 547.84 1279.5 mark 0
AnchorPoint: "Anchor-1" 545.7 1761 basemark 0
AnchorPoint: "Anchor-1" 547.84 1279.5 mark 0
LayerCount: 2
Fore
SplineSet
476.032 1358.84 m 1,0,-1
 282.934 1681.66 l 1,1,-1
 401.783 1681.66 l 1,2,-1
 547.84 1462.57 l 1,3,-1
 693.896 1681.66 l 1,4,-1
 812.746 1681.66 l 1,5,-1
 619.646 1358.84 l 1,6,-1
 476.032 1358.84 l 1,0,-1
EndSplineSet
EndChar

StartChar: afii57392
Encoding: 1632 1632 56
Width: 1211
VWidth: 2255
GlyphClass: 2
Flags: W
LayerCount: 2
Fore
SplineSet
491.487 583.793 m 128,-1,1
 491.487 539.594 491.487 539.594 523.161 507.919 c 128,-1,2
 554.836 476.245 554.836 476.245 599.035 476.245 c 128,-1,3
 643.233 476.245 643.233 476.245 674.907 507.919 c 128,-1,4
 706.583 539.595 706.583 539.595 706.583 583.793 c 128,-1,5
 706.583 627.989 706.583 627.989 674.907 659.665 c 128,-1,6
 643.233 691.341 643.233 691.341 599.035 691.341 c 128,-1,7
 554.838 691.341 554.838 691.341 523.161 659.665 c 128,-1,0
 491.487 627.99 491.487 627.99 491.487 583.793 c 128,-1,1
342.586 580.562 m 128,-1,9
 342.586 688.419 342.586 688.419 418.731 765.008 c 128,-1,10
 494.825 841.548 494.825 841.548 601.947 841.548 c 128,-1,11
 709.074 841.548 709.074 841.548 785.164 765.008 c 128,-1,12
 861.307 688.418 861.307 688.418 861.307 580.562 c 128,-1,13
 861.307 472.697 861.307 472.697 785.164 396.116 c 128,-1,14
 709.064 319.578 709.064 319.578 601.947 319.578 c 128,-1,15
 494.824 319.578 494.824 319.578 418.731 396.116 c 128,-1,8
 342.586 472.703 342.586 472.703 342.586 580.562 c 128,-1,9
EndSplineSet
EndChar

StartChar: afii57393
Encoding: 1633 1633 57
Width: 1215
VWidth: 2250
GlyphClass: 2
Flags: W
LayerCount: 2
Fore
SplineSet
640.396 -13.1504 m 2,0,-1
 620.396 -19.7803 l 1,1,2
 579.756 733.378 579.756 733.378 389.108 1260.38 c 1,3,-1
 516.396 1416.22 l 1,4,5
 723.945 991.52 723.945 991.52 722.396 212.22 c 0,6,7
 722.008 13.9033 722.008 13.9033 640.396 -13.1504 c 2,0,-1
EndSplineSet
EndChar

StartChar: afii57394
Encoding: 1634 1634 58
Width: 1211
VWidth: 2109
GlyphClass: 2
Flags: W
LayerCount: 2
Fore
SplineSet
270.059 1417.15 m 1,0,1
 314.295 1308.52 314.295 1308.52 348.372 1242.41 c 0,2,3
 428.697 1087.71 428.697 1087.71 577.887 1071.59 c 0,4,5
 824.352 1044.48 824.352 1044.48 884 1264 c 0,6,7
 902.793 1333.16 902.793 1333.16 917.922 1414.28 c 1,8,9
 1030.53 1378.23 l 1,10,11
 1030.09 1318.32 1030.09 1318.32 1000 1204.79 c 0,12,13
 918.452 897.098 918.452 897.098 629 884 c 0,14,15
 535.577 879.771 535.577 879.771 477.685 898.285 c 1,16,17
 560.565 653.399 560.565 653.399 559.685 266.654 c 0,18,19
 559.141 20.9629 559.141 20.9629 480.685 0.285156 c 2,20,-1
 446.536 -8.71484 l 1,21,22
 438.408 432.658 438.408 432.658 330.685 822.285 c 0,23,24
 294.802 951.355 294.802 951.355 134.839 1314.77 c 0,25,-1
 270.059 1417.15 l 1,0,1
EndSplineSet
EndChar

StartChar: afii57395
Encoding: 1635 1635 59
Width: 1211
VWidth: 2109
GlyphClass: 2
Flags: W
LayerCount: 2
Fore
SplineSet
426.698 900.514 m 1,0,1
 510.58 655.489 510.58 655.489 509.698 267.883 c 4,2,3
 509.151 20.4922 509.151 20.4922 428.685 -0.714844 c 6,4,-1
 394.536 -9.71484 l 5,5,6
 386.388 431.653 386.388 431.653 278.685 822.285 c 0,7,8
 242.803 951.355 242.803 951.355 82.8389 1314.77 c 0,9,-1
 218.059 1417.15 l 1,10,11
 250.664 1337.08 250.664 1337.08 296.372 1242.41 c 8,12,13
 368.845 1092.3 368.845 1092.3 475.176 1075.04 c 0,14,15
 556.787 1061.79 556.787 1061.79 605.198 1102.51 c 0,16,17
 665.511 1153.24 665.511 1153.24 665.511 1344.71 c 1,18,-1
 759.58 1368.79 l 1,19,20
 761.856 1191.72 761.856 1191.72 775.789 1155.86 c 0,21,22
 807.963 1072.3 807.963 1072.3 889.198 1071.51 c 24,23,24
 1000.82 1071.77 1000.82 1071.77 1027.49 1202.58 c 0,25,26
 1045.63 1290.8 1045.63 1290.8 1043.49 1424.86 c 1,27,-1
 1166.32 1400.16 l 1,28,29
 1169 1262.07 1169 1262.07 1141.49 1139.58 c 0,30,31
 1089.92 908.273 1089.92 908.273 922.487 896.575 c 0,32,33
 785.117 886.345 785.117 886.345 719.399 1014.75 c 1,34,35
 673.202 900.19 673.202 900.19 523.758 885.942 c 0,36,37
 490.256 882.748 490.256 882.748 426.698 900.514 c 1,0,1
EndSplineSet
EndChar

StartChar: afii57396
Encoding: 1636 1636 60
Width: 1212
VWidth: 2250
GlyphClass: 2
Flags: W
LayerCount: 2
Fore
SplineSet
768.079 1273.81 m 1,1,2
 628.079 1311.81 628.079 1311.81 530.079 1279.81 c 1,3,4
 396.85 1225.85 396.85 1225.85 406.744 1092.36 c 0,5,6
 415.135 978.154 415.135 978.154 565.178 921.346 c 0,7,8
 606.294 905.779 606.294 905.779 752.472 891.047 c 1,9,10
 787.219 833.76 787.219 833.76 785.22 747.76 c 5,11,12
 617.266 720.592 617.266 720.592 493.32 645.22 c 0,13,14
 342.646 555.129 342.646 555.129 332.079 403 c 0,15,16
 310.344 90.0508 310.344 90.0508 762.812 152.058 c 0,17,18
 850.354 164.115 850.354 164.115 981.58 226.599 c 1,19,-1
 981.58 151.807 l 2,20,21
 981.58 29.0039 981.58 29.0039 800.079 -1.87793 c 0,22,23
 741.604 -11.8271 741.604 -11.8271 677.277 -16.2764 c 0,24,25
 259.681 -43.4902 259.681 -43.4902 187.079 247 c 0,26,27
 129.311 479.996 129.311 479.996 277.281 657.082 c 0,28,29
 368.44 767.322 368.44 767.322 522.041 814.246 c 1,30,31
 275.111 866.153 275.111 866.153 250.079 1059.81 c 0,32,33
 218.032 1301.03 218.032 1301.03 422.079 1390 c 0,34,35
 487.555 1418.55 487.555 1418.55 561.22 1421.79 c 0,36,37
 662.854 1425.77 662.854 1425.77 747.219 1403.79 c 1,38,39
 762.219 1380 762.219 1380 768.079 1273.81 c 1,1,2
EndSplineSet
EndChar

StartChar: afii57397
Encoding: 1637 1637 61
Width: 1212
VWidth: 2251
GlyphClass: 2
Flags: W
LayerCount: 2
Fore
SplineSet
332.852 792.688 m 0,0,1
 249.491 649.326 249.491 649.326 242.467 498.04 c 0,2,3
 233.94 314.422 233.94 314.422 335.369 231.007 c 0,4,5
 429.37 153.684 429.37 153.684 614.41 152.84 c 0,6,7
 821.221 151.896 821.221 151.896 892.146 273.257 c 0,8,9
 951.939 377.262 951.939 377.262 939.388 531.375 c 0,10,11
 925.657 709.123 925.657 709.123 791.129 874.001 c 0,12,13
 684.509 1004.91 684.509 1004.91 564.729 1069.57 c 1,14,15
 424.809 954.034 424.809 954.034 332.852 792.688 c 0,0,1
472.509 1356.39 m 1,16,17
 595.698 1291.37 595.698 1291.37 749.169 1164.53 c 0,18,19
 919.72 1023.57 919.72 1023.57 1001.15 891.918 c 0,20,21
 1107.28 720.326 1107.28 720.326 1117 514.934 c 0,22,23
 1130.39 245.629 1130.39 245.629 1020.62 128.971 c 0,24,25
 883.02 -15.9531 883.02 -15.9531 594.688 -14.8506 c 1,26,27
 302.128 -14.8506 302.128 -14.8506 168.868 128.851 c 0,28,29
 31.332 278.158 31.332 278.158 60.6846 514.536 c 0,30,31
 84.4385 703.72 84.4385 703.72 179.496 865.5 c 0,32,33
 288.069 1051.02 288.069 1051.02 427.894 1165.04 c 1,34,-1
 387.989 1188.5 l 21,35,36
 472.509 1356.39 l 1,16,17
EndSplineSet
EndChar

StartChar: afii57398
Encoding: 1638 1638 62
Width: 1212
VWidth: 2250
GlyphClass: 2
Flags: W
LayerCount: 2
Fore
SplineSet
905.516 1352.26 m 5,0,1
 906.505 1093.55 906.505 1093.55 947.529 704.827 c 0,2,3
 979.602 398.484 979.602 398.484 1085.94 -17.0078 c 1,4,-1
 1050.22 -17.0078 l 2,5,6
 897.616 -17.0078 897.616 -17.0078 852.604 198.626 c 0,7,8
 799.711 452.011 799.711 452.011 775.676 708.598 c 0,9,10
 742.797 1058.37 742.797 1058.37 741.731 1134.81 c 6,11,-1
 741.382 1159.88 l 5,12,-1
 717.312 1152.86 l 6,13,14
 620.513 1124.63 620.513 1124.63 465.217 1124.63 c 4,15,16
 347.9 1124.63 347.9 1124.63 237.217 1140.63 c 4,17,18
 80.4941 1162.7 80.4941 1162.7 80.4941 1298.63 c 6,19,-1
 80.4941 1351.45 l 5,20,21
 274.589 1300.58 274.589 1300.58 452.713 1300.58 c 4,22,23
 680.399 1300.58 680.399 1300.58 905.516 1352.26 c 5,0,1
EndSplineSet
EndChar

StartChar: afii57399
Encoding: 1639 1639 63
Width: 1212
VWidth: 2250
GlyphClass: 2
Flags: W
LayerCount: 2
Fore
SplineSet
886.925 1343.4 m 1,0,1
 1003.92 1205.66 l 1,2,3
 841.595 840.701 841.595 840.701 787.614 624.968 c 0,4,5
 697.81 266.067 697.81 266.067 658.704 -19.1504 c 1,6,-1
 519.146 -19.1504 l 1,7,8
 529.923 70.7588 529.923 70.7588 389.21 625.602 c 4,9,10
 334.923 839.66 334.923 839.66 163.923 1205.66 c 5,11,12
 289.925 1343.4 l 5,13,14
 408.284 1113.18 408.284 1113.18 513.448 745.114 c 4,15,16
 567.635 555.462 567.635 555.462 588.505 440.649 c 1,17,18
 609.68 557.145 609.68 557.145 663.561 745.114 c 0,19,20
 721.686 949.02 721.686 949.02 886.925 1343.4 c 1,0,1
EndSplineSet
EndChar

StartChar: afii57400
Encoding: 1640 1640 64
Width: 1212
VWidth: 2250
GlyphClass: 2
Flags: W
LayerCount: 2
Fore
SplineSet
886.925 -19.1504 m 5,0,1
 721.686 375.229 721.686 375.229 663.561 579.136 c 4,2,3
 609.68 767.104 609.68 767.104 588.505 883.601 c 5,4,5
 567.635 768.788 567.635 768.788 513.448 579.136 c 4,6,7
 408.284 211.069 408.284 211.069 289.925 -19.1504 c 5,8,-1
 163.923 118.59 l 5,9,10
 322.923 446.66 322.923 446.66 389.21 698.648 c 4,11,12
 497.476 1110.22 497.476 1110.22 519.146 1343.4 c 5,13,-1
 658.704 1343.4 l 5,14,15
 697.81 1058.18 697.81 1058.18 787.614 699.282 c 4,16,17
 841.595 483.549 841.595 483.549 1003.92 118.59 c 5,18,-1
 886.925 -19.1504 l 5,0,1
EndSplineSet
EndChar

StartChar: afii57401
Encoding: 1641 1641 65
Width: 1212
VWidth: 2250
GlyphClass: 2
Flags: W
LayerCount: 2
Fore
SplineSet
564.745 679.534 m 0,0,1
 294.97 696.156 294.97 696.156 188.896 819.91 c 0,2,3
 103.025 921.26 103.025 921.26 103.025 1037.39 c 0,4,5
 103.025 1202.35 103.025 1202.35 202 1310.9 c 0,6,7
 315.57 1435.47 315.57 1435.47 500.196 1435.47 c 0,8,9
 678.456 1435.47 678.456 1435.47 762.62 1354.32 c 4,10,11
 888.525 1231.85 888.525 1231.85 903.237 1034.31 c 4,12,13
 914.602 880.857 914.602 880.857 935.081 710.188 c 4,14,15
 977.67 371.56 977.67 371.56 1073.46 -18.7715 c 5,16,-1
 1052.24 -18.7715 l 6,17,18
 907.373 -18.7715 907.373 -18.7715 853.243 237.403 c 0,19,20
 793.867 518.405 793.867 518.405 778.995 680.606 c 1,21,22
 675.077 672.68 675.077 672.68 564.745 679.534 c 0,0,1
761.243 849.404 m 1,23,-1
 754.242 952.318 l 2,24,25
 744.661 1093.15 744.661 1093.15 703.337 1155.62 c 1,26,27
 621.688 1270.29 621.688 1270.29 499.868 1270.29 c 0,28,29
 402.567 1270.29 402.567 1270.29 332.372 1202.57 c 0,30,31
 267.302 1139.83 267.302 1139.83 263.021 1047.06 c 0,32,33
 258.81 962.692 258.81 962.692 329.243 901.404 c 0,34,35
 367.743 867.904 367.743 867.904 458.745 853.375 c 0,36,37
 589.368 830.471 589.368 830.471 761.243 849.404 c 1,23,-1
EndSplineSet
EndChar

StartChar: afii57381
Encoding: 1642 1642 66
Width: 1177
VWidth: 2186
GlyphClass: 2
Flags: W
LayerCount: 2
Fore
SplineSet
459.39 1287.05 m 2,0,-1
 459.39 1158.05 l 2,1,2
 459.39 1121.05 459.39 1121.05 429.39 1121.04 c 2,3,-1
 302.391 1121.05 l 2,4,5
 268.39 1121.05 268.39 1121.05 268.39 1159.05 c 2,6,-1
 268.39 1287.05 l 2,7,8
 268.39 1319.05 268.39 1319.05 306.39 1319.05 c 2,9,-1
 421.39 1319.05 l 2,10,11
 459.39 1319.05 459.39 1319.05 459.39 1287.05 c 2,0,-1
911.192 233.849 m 2,12,-1
 911.192 104.849 l 2,13,14
 911.192 67.8477 911.192 67.8477 881.192 67.8477 c 2,15,-1
 754.192 67.8477 l 2,16,17
 720.192 67.8477 720.192 67.8477 720.192 105.848 c 2,18,-1
 720.192 233.849 l 2,19,20
 720.192 265.848 720.192 265.848 758.192 265.848 c 2,21,-1
 873.192 265.848 l 2,22,23
 911.192 265.848 911.192 265.848 911.192 233.849 c 2,12,-1
871.394 1373.5 m 1,24,-1
 983.001 1316 l 1,25,-1
 301 0 l 1,26,-1
 190 61 l 1,27,-1
 871.394 1373.5 l 1,24,-1
EndSplineSet
EndChar

StartChar: uni066B
Encoding: 1643 1643 67
Width: 711
VWidth: 2186
GlyphClass: 2
Flags: W
LayerCount: 2
Fore
SplineSet
443.218 502.139 m 1,0,-1
 568.799 501.203 l 1,1,2
 342.799 113.203 342.799 113.203 130 -230.265 c 1,3,-1
 1.59766 -228.502 l 1,4,5
 94.7988 -78.7969 94.7988 -78.7969 443.218 502.139 c 1,0,-1
EndSplineSet
EndChar

StartChar: uni066C
Encoding: 1644 1644 68
Width: 696
VWidth: 2186
GlyphClass: 2
Flags: W
LayerCount: 2
Fore
SplineSet
291.2 1580.01 m 1,0,-1
 490.97 1580.01 l 1,1,-1
 490.97 1433.52 l 1,2,-1
 320.557 1102.04 l 1,3,-1
 207.225 1102.04 l 1,4,-1
 291.2 1428.73 l 1,5,-1
 291.2 1580.01 l 1,0,-1
EndSplineSet
EndChar

StartChar: afii63167
Encoding: 1645 1645 69
Width: 1194
VWidth: 2186
GlyphClass: 2
Flags: W
LayerCount: 2
Fore
SplineSet
132.901 794.63 m 1,0,-1
 486.633 794.63 l 1,1,-1
 597.061 1130.84 l 1,2,-1
 707.487 794.63 l 1,3,-1
 1061.22 794.63 l 1,4,-1
 775.453 585.725 l 1,5,-1
 884.797 249.809 l 1,6,-1
 597.061 457.729 l 1,7,-1
 309.323 249.809 l 1,8,-1
 418.667 585.725 l 1,9,-1
 132.901 794.63 l 1,0,-1
EndSplineSet
EndChar

StartChar: uni066E
Encoding: 1646 1646 70
Width: 1626
VWidth: 2270
GlyphClass: 2
Flags: W
AnchorPoint: "Anchor-10" 687.278 1072.71 basechar 0
AnchorPoint: "Anchor-7" 443.479 -263.424 basechar 0
LayerCount: 2
Fore
SplineSet
1317.55 622.649 m 1,0,1
 1461.07 752.867 l 1,2,3
 1523.55 564.966 1523.55 564.966 1534.16 395.44 c 0,4,5
 1548.35 168.696 1548.35 168.696 1430.92 99.2393 c 0,6,7
 1307.98 26.1621 1307.98 26.1621 1087.41 -3.27637 c 0,8,9
 984.517 -17.0088 984.517 -17.0088 929.564 -18.6484 c 16,10,11
 462.221 -37.6152 462.221 -37.6152 275.763 59.6758 c 0,12,13
 84.918 159.401 84.918 159.401 91.3027 456.599 c 0,14,15
 94 583.155 94 583.155 145.753 684.154 c 1,16,-1
 201.393 655.604 l 5,17,18
 191.393 619.562 191.393 619.562 184.763 555 c 0,19,20
 180.534 496.902 180.534 496.902 181.479 453.573 c 0,21,22
 190.194 208.435 190.194 208.435 549.649 173.732 c 0,23,24
 691.893 160 691.893 160 966.893 162.562 c 1,25,26
 1111.45 167.799 1111.45 167.799 1192 183.775 c 0,27,28
 1321.01 209.364 1321.01 209.364 1400.33 252.597 c 0,29,30
 1458.71 285.079 1458.71 285.079 1425 373 c 1,31,-1
 1317.55 622.649 l 1,0,1
EndSplineSet
Substitution2: "'init' Initial Forms in Arabic lookup 13 subtable" uni066E.init
Substitution2: "'medi' Medial Forms in Arabic lookup 11 subtable" uni066E.medi
Substitution2: "'fina' Terminal Forms in Arabic lookup 9 subtable" uni066E.fina
EndChar

StartChar: uni066F
Encoding: 1647 1647 71
Width: 1391
VWidth: 2287
GlyphClass: 2
Flags: W
AnchorPoint: "Anchor-10" 328.703 1075.86 basechar 0
AnchorPoint: "Anchor-7" 460.144 -671.547 basechar 0
LayerCount: 2
Fore
SplineSet
1020.66 504 m 0,0,1
 913.843 501.82 913.843 501.82 889.661 365 c 0,2,3
 873.392 269.891 873.392 269.891 947.411 245.218 c 0,4,5
 1052.41 210.218 1052.41 210.218 1189.66 255.998 c 1,6,7
 1191.21 334.627 1191.21 334.627 1162.66 397.396 c 0,8,9
 1114.5 504.943 1114.5 504.943 1020.66 504 c 0,0,1
1282.21 -28.8682 m 24,10,11
 1179.85 -441.19 1179.85 -441.19 651.355 -451.928 c 0,12,13
 311.702 -458.507 311.702 -458.507 173.396 -265.848 c 0,14,15
 59.5732 -108.369 59.5732 -108.369 123.886 158.116 c 0,16,17
 146.428 251.521 146.428 251.521 170.631 324.071 c 0,18,19
 191 384.129 191 384.129 216.483 449.129 c 1,20,-1
 294.829 405 l 1,21,22
 173.995 103.095 173.995 103.095 246.876 -78.583 c 0,23,24
 324.844 -275.626 324.844 -275.626 635.55 -282.083 c 0,25,26
 1141.77 -292.603 1141.77 -292.603 1180.83 82.6201 c 1,27,28
 1104.16 62.3955 1104.16 62.3955 1004.66 71.8955 c 0,29,30
 887.56 83.0762 887.56 83.0762 831.448 170.542 c 0,31,32
 782.452 247.032 782.452 247.032 794.448 359.943 c 0,33,34
 813.591 540.121 813.591 540.121 908.661 632 c 0,35,36
 961.882 683.436 961.882 683.436 1056.66 675.396 c 0,37,38
 1125.17 669.238 1125.17 669.238 1192.66 593.396 c 0,39,40
 1274.12 503.338 1274.12 503.338 1294.34 337.383 c 0,41,42
 1320.28 124.493 1320.28 124.493 1282.21 -28.8682 c 24,10,11
EndSplineSet
Substitution2: "'init' Initial Forms in Arabic lookup 13 subtable" uni066F.init
Substitution2: "'medi' Medial Forms in Arabic lookup 11 subtable" uni066F.medi
Substitution2: "'fina' Terminal Forms in Arabic lookup 9 subtable" uni066F.fina
EndChar

StartChar: uni0670
Encoding: 1648 1648 72
Width: 0
VWidth: 2186
GlyphClass: 4
Flags: W
AnchorPoint: "Anchor-10" 547.84 1279.5 mark 0
AnchorPoint: "Anchor-9" 547.84 1279.5 mark 0
AnchorPoint: "Anchor-1" 547.84 1884 basemark 0
AnchorPoint: "Anchor-1" 547.84 1279.5 mark 0
LayerCount: 2
Fore
SplineSet
525.99 1327.81 m 5,0,-1
 501.99 1781.69 l 5,1,-1
 593.69 1835.69 l 5,2,-1
 593.69 1327.81 l 5,3,-1
 525.99 1327.81 l 5,0,-1
EndSplineSet
EndChar

StartChar: uni0674
Encoding: 1652 1652 73
Width: 639
VWidth: 2186
GlyphClass: 2
Flags: W
LayerCount: 2
Fore
SplineSet
143.54 1515.26 m 1,0,-1
 254.306 1540.82 l 1,1,2
 145.68 1590.21 145.68 1590.21 145.68 1692.52 c 0,3,4
 145.68 1778.8 145.68 1778.8 206 1832 c 0,5,6
 256.995 1876.48 256.995 1876.48 343 1877 c 0,7,8
 410.823 1877 410.823 1877 462.08 1846.81 c 1,9,-1
 462.08 1769.8 l 1,10,11
 397.433 1802.12 397.433 1802.12 332 1795 c 0,12,13
 227.549 1783.73 227.549 1783.73 220.26 1701.08 c 0,14,15
 212.646 1612.93 212.646 1612.93 330.161 1577.33 c 0,16,17
 366.368 1566.36 366.368 1566.36 484.55 1593.69 c 1,18,-1
 484.55 1511.4 l 1,19,-1
 143.54 1434.84 l 1,20,-1
 143.54 1515.26 l 1,0,-1
EndSplineSet
EndChar

StartChar: uni06A1
Encoding: 1697 1697 77
Width: 1657
VWidth: 2287
GlyphClass: 2
Flags: W
AnchorPoint: "Anchor-10" 486.273 1250.83 basechar 0
AnchorPoint: "Anchor-7" 599.693 -210.024 basechar 0
LayerCount: 2
Fore
SplineSet
1289.98 773.576 m 0,0,1
 1183.17 771.396 1183.17 771.396 1158.98 634.577 c 0,2,3
 1144.25 548.472 1144.25 548.472 1216.73 514.795 c 0,4,5
 1316.73 469.795 1316.73 469.795 1458.98 525.575 c 1,6,7
 1460.53 604.205 1460.53 604.205 1431.98 666.973 c 0,8,9
 1383.82 774.52 1383.82 774.52 1289.98 773.576 c 0,0,1
1459.15 352.197 m 1,10,11
 1374.78 330.614 1374.78 330.614 1273.98 341.473 c 0,12,13
 1155.89 354.194 1155.89 354.194 1100.77 440.119 c 0,14,15
 1051.77 516.609 1051.77 516.609 1063.77 629.521 c 0,16,17
 1081.63 808.457 1081.63 808.457 1177.98 901.576 c 0,18,19
 1231.21 953.012 1231.21 953.012 1325.98 944.973 c 0,20,21
 1394.49 938.815 1394.49 938.815 1461.98 862.973 c 0,22,23
 1543.44 772.915 1543.44 772.915 1563.67 606.96 c 0,24,25
 1582.14 447.46 1582.14 447.46 1565.15 340.197 c 24,26,27
 1533.14 138.057 1533.14 138.057 1376.36 49.7979 c 0,28,29
 1267.12 -11.6748 1267.12 -11.6748 929.564 -20.6484 c 24,30,31
 433.64 -33.791 433.64 -33.791 276.668 49.2324 c 0,32,33
 84.709 150.35 84.709 150.35 91.3027 456.599 c 0,34,35
 94 583.155 94 583.155 145.753 684.154 c 1,36,-1
 201 655.604 l 1,37,38
 192 623.37 192 623.37 184.763 555 c 0,39,40
 179.543 508.021 179.543 508.021 181.479 453.573 c 0,41,42
 190.022 219.81 190.022 219.81 528.668 170.232 c 0,43,44
 611.714 158.075 611.714 158.075 963.263 158.172 c 1,45,46
 1224.27 164.038 1224.27 164.038 1310.36 193.798 c 0,47,48
 1455.31 243.508 1455.31 243.508 1459.15 352.197 c 1,10,11
EndSplineSet
Substitution2: "'init' Initial Forms in Arabic lookup 13 subtable" uni06A1.init
Substitution2: "'medi' Medial Forms in Arabic lookup 11 subtable" uni06A1.medi
Substitution2: "'fina' Terminal Forms in Arabic lookup 9 subtable" uni06A1.fina
EndChar

StartChar: uni06A9
Encoding: 1705 1705 78
Width: 1777
VWidth: 2271
GlyphClass: 2
Flags: W
AnchorPoint: "Anchor-10" 268.771 1210.92 basechar 0
AnchorPoint: "Anchor-7" 391.73 -313.384 basechar 0
LayerCount: 2
Fore
SplineSet
929.564 -20.6484 m 24,0,1
 444.867 -39.7295 444.867 -39.7295 276.668 49.2324 c 0,2,3
 84.709 150.35 84.709 150.35 91.3027 456.599 c 0,4,5
 94 583.155 94 583.155 145.753 684.154 c 1,6,-1
 200.292 655.604 l 5,7,8
 192.542 625.011 192.542 625.011 184.763 555 c 0,9,10
 179.543 508.021 179.543 508.021 181.479 453.573 c 0,11,12
 190.022 219.81 190.022 219.81 528.668 170.232 c 0,13,14
 699.582 145.212 699.582 145.212 962.763 158.172 c 0,15,16
 1301.85 174.869 1301.85 174.869 1376.89 300.017 c 0,17,18
 1444.24 412.339 1444.24 412.339 1317.29 511.797 c 2,19,-1
 1041.09 728.183 l 2,20,21
 943.524 804.62 943.524 804.62 937.829 870.87 c 0,22,23
 928.237 982.77 928.237 982.77 1051.42 1047.31 c 2,24,-1
 1731.5 1403.65 l 1,25,26
 1708 1284.82 1708 1284.82 1669.58 1202.92 c 1,27,-1
 1066.33 899.96 l 1,28,29
 1408.74 614.843 l 1,30,31
 1523.48 506.804 1523.48 506.804 1508.33 339.017 c 0,32,33
 1493.25 171.625 1493.25 171.625 1340.89 87.0166 c 0,34,35
 1162.26 -11.4883 1162.26 -11.4883 929.564 -20.6484 c 24,0,1
EndSplineSet
Substitution2: "'init' Initial Forms in Arabic lookup 13 subtable" uniFB90
Substitution2: "'medi' Medial Forms in Arabic lookup 11 subtable" uniFB91
Substitution2: "'fina' Terminal Forms in Arabic lookup 9 subtable" uniFB8F
EndChar

StartChar: afii57514
Encoding: 1722 1722 80
Width: 1359
VWidth: 2271
GlyphClass: 2
Flags: W
AnchorPoint: "Anchor-10" 587.961 976.99 basechar 0
AnchorPoint: "Anchor-7" 305.838 -777.488 basechar 0
LayerCount: 2
Fore
SplineSet
207 359.108 m 5,0,1
 275.464 314.108 l 5,2,3
 172.639 21.1104 172.639 21.1104 239.178 -120.305 c 4,4,5
 341.242 -337.212 341.242 -337.212 664.852 -331.804 c 4,6,7
 1133.32 -323.834 1133.32 -323.834 1157.58 -20 c 5,8,-1
 1025.58 388.108 l 1,9,-1
 1157.43 521.108 l 1,10,11
 1271.43 194.109 1271.43 194.109 1268.58 -20 c 5,12,13
 1188.55 -491.442 1188.55 -491.442 669.084 -501.362 c 4,14,15
 305.238 -508.027 305.238 -508.027 165.697 -307.568 c 4,16,17
 56.8994 -150.017 56.8994 -150.017 116.188 87.3965 c 4,18,19
 131.817 149.977 131.817 149.977 166.933 253.351 c 4,20,21
 188.841 317.842 188.841 317.842 207 359.108 c 5,0,1
EndSplineSet
Substitution2: "'init' Initial Forms in Arabic lookup 13 subtable" uni06BA.init
Substitution2: "'medi' Medial Forms in Arabic lookup 11 subtable" uni06BA.medi
Substitution2: "'fina' Terminal Forms in Arabic lookup 9 subtable" uniFB9F
EndChar

StartChar: uni06F4
Encoding: 1780 1780 87
Width: 1211
VWidth: 2109
GlyphClass: 2
Flags: W
LayerCount: 2
Fore
SplineSet
361.42 1099.66 m 1,0,1
 386.579 1328.91 386.579 1328.91 590.526 1433.13 c 0,2,3
 746.995 1513.09 746.995 1513.09 939.096 1434.28 c 1,4,5
 961.027 1405.66 961.027 1405.66 980.399 1275.91 c 1,6,7
 884.466 1342.13 884.466 1342.13 767.526 1336.13 c 0,8,9
 662.651 1330.75 662.651 1330.75 597.526 1268.13 c 0,10,11
 479.091 1154.26 479.091 1154.26 516 983.29 c 1,12,13
 757.789 891.283 757.789 891.283 1005 998.29 c 1,14,15
 1031.03 952.66 1031.03 952.66 1041 851.285 c 1,16,17
 725.756 722.285 725.756 722.285 438 836.285 c 1,18,19
 497.619 591.399 497.619 591.399 496.685 264.654 c 0,20,21
 496.141 18.9629 496.141 18.9629 417.685 -1.71484 c 2,22,-1
 383.536 -10.7148 l 1,23,24
 375.284 435.24 375.284 435.24 267.685 822.285 c 0,25,26
 231.803 951.355 231.803 951.355 71.8389 1314.77 c 0,27,-1
 207.059 1417.15 l 1,28,29
 284.239 1258.41 284.239 1258.41 361.42 1099.66 c 1,0,1
EndSplineSet
EndChar

StartChar: uni06F5
Encoding: 1781 1781 88
Width: 1212
VWidth: 2110
GlyphClass: 2
Flags: W
LayerCount: 2
Fore
SplineSet
610.506 322.017 m 0,0,1
 684.678 165.983 684.678 165.983 813.346 160.581 c 0,2,3
 997.79 152.892 997.79 152.892 945.858 450.69 c 1,4,5
 869.312 775.181 869.312 775.181 569.93 1035.84 c 1,6,7
 340.18 766.555 340.18 766.555 261.22 501.332 c 0,8,9
 160.551 171.234 160.551 171.234 383.305 161.199 c 0,10,11
 503.206 155.797 503.206 155.797 583.174 321.875 c 0,12,13
 596.962 350.51 596.962 350.51 610.506 322.017 c 0,0,1
368.768 -17.6104 m 0,14,15
 90.1504 -17.6074 90.1504 -17.6074 68.1416 256.354 c 0,16,17
 38.6162 629.895 38.6162 629.895 455.117 1135.03 c 1,18,19
 424.282 1161.8 424.282 1161.8 424.158 1162.49 c 0,20,21
 482.636 1329.99 l 5,22,23
 532.295 1294.18 532.295 1294.18 587.573 1247.36 c 0,24,25
 1157.96 726.942 1157.96 726.942 1105.75 260.404 c 0,26,27
 1073.73 -26.0762 1073.73 -26.0762 827.062 -17.1035 c 1,28,29
 652.23 -12.5576 652.23 -12.5576 600.769 130.322 c 2,30,-1
 596.011 143.532 l 1,31,-1
 591.246 130.325 l 2,32,33
 537.877 -17.6074 537.877 -17.6074 368.768 -17.6104 c 0,14,15
EndSplineSet
EndChar

StartChar: uni06F6
Encoding: 1782 1782 89
Width: 1210
VWidth: 2250
GlyphClass: 2
Flags: W
LayerCount: 2
Fore
SplineSet
165.106 -20 m 1,0,1
 192.149 110.528 192.149 110.528 335.511 355.921 c 0,2,3
 416.79 495.077 416.79 495.077 537.344 615.1 c 1,4,5
 263.146 687.685 263.146 687.685 265.344 960 c 0,6,7
 266.796 1119.93 266.796 1119.93 345.344 1213 c 0,8,9
 482.318 1375.9 482.318 1375.9 741 1346.21 c 0,10,11
 833.688 1335.57 833.688 1335.57 887.633 1285.21 c 1,12,13
 908.222 1141.2 l 1,14,15
 701.455 1228.05 701.455 1228.05 579.399 1176.02 c 0,16,17
 455.769 1123.33 455.769 1123.33 431.344 1007 c 0,18,19
 379.092 758.143 379.092 758.143 702.344 723.1 c 1,20,21
 789.234 733.294 789.234 733.294 989.667 811.921 c 1,22,23
 996.107 748.921 996.107 748.921 984.106 622.921 c 1,24,25
 727.396 568.042 727.396 568.042 459.106 250.921 c 0,26,27
 229.903 -20 229.903 -20 188.511 -20 c 2,28,-1
 165.106 -20 l 1,0,1
EndSplineSet
EndChar

StartChar: uniFB8F
Encoding: 64399 64399 104
Width: 1953
VWidth: 2271
GlyphClass: 2
Flags: W
AnchorPoint: "Anchor-10" 338.756 1180.86 basechar 0
AnchorPoint: "Anchor-7" 422.496 -288.828 basechar 0
LayerCount: 2
Fore
SplineSet
964.263 158.172 m 0,0,1
 1354.82 158.098 1354.82 158.098 1369.24 304.284 c 0,2,3
 1374.93 361.949 1374.93 361.949 1258.14 468.131 c 2,4,-1
 1027.97 677.394 l 2,5,6
 933.642 763.154 933.642 763.154 929.87 855.632 c 0,7,8
 924.229 976.842 924.229 976.842 1054.73 1045.22 c 2,9,-1
 1734.81 1401.56 l 1,10,11
 1717.14 1291.13 1717.14 1291.13 1672.89 1200.82 c 1,12,-1
 1048.64 882.865 l 1,13,-1
 1704.91 254.111 l 2,14,15
 1805.21 158.013 1805.21 158.013 1928.76 158.341 c 2,16,-1
 1964.19 158.435 l 1,17,-1
 1964.19 -20.5781 l 1,18,-1
 1896.63 -20.5781 l 2,19,20
 1714.93 -20.5781 1714.93 -20.5781 1505.98 256.585 c 1,21,22
 1431.3 -17.0674 1431.3 -17.0674 930.564 -24.6484 c 16,23,24
 431.427 -32.2334 431.427 -32.2334 277.668 49.2324 c 0,25,26
 85.709 150.35 85.709 150.35 92.3027 456.599 c 0,27,28
 95 583.155 95 583.155 146.753 684.154 c 1,29,-1
 202 655.604 l 5,30,31
 192.409 618.768 192.409 618.768 185.763 555 c 0,32,33
 180.543 508.021 180.543 508.021 182.479 453.573 c 0,34,35
 191.022 219.81 191.022 219.81 529.668 170.232 c 0,36,37
 612.714 158.075 612.714 158.075 964.263 158.172 c 0,0,1
EndSplineSet
EndChar

StartChar: uniFB9F
Encoding: 64415 64415 112
Width: 1418
VWidth: 2271
GlyphClass: 2
Flags: W
AnchorPoint: "Anchor-10" 337.69 733.27 basechar 0
AnchorPoint: "Anchor-7" 237.648 -764.038 basechar 0
LayerCount: 2
Fore
SplineSet
207 359.108 m 5,0,1
 268.583 311.108 l 1,2,3
 171.251 24.0537 171.251 24.0537 239.178 -120.305 c 0,4,5
 341.242 -337.212 341.242 -337.212 664.852 -331.804 c 0,6,7
 1133.32 -323.834 1133.32 -323.834 1157.58 -20 c 1,8,-1
 1025.58 388.108 l 1,9,-1
 1175.33 529.794 l 1,10,11
 1219.6 296.991 1219.6 296.991 1244.93 243.396 c 0,12,13
 1285.97 158.675 1285.97 158.675 1384.11 158.675 c 2,14,-1
 1428.89 158.675 l 1,15,-1
 1428.89 -20.3379 l 1,16,-1
 1386.39 -20.3379 l 2,17,18
 1311.61 -20.3379 1311.61 -20.3379 1260.58 63.1084 c 1,19,20
 1270.58 17.1084 1270.58 17.1084 1268.58 -20 c 1,21,22
 1188.55 -491.442 1188.55 -491.442 669.084 -501.362 c 0,23,24
 305.238 -508.027 305.238 -508.027 165.697 -307.568 c 0,25,26
 56.8994 -150.017 56.8994 -150.017 116.188 87.3965 c 0,27,28
 131.817 149.977 131.817 149.977 166.933 253.351 c 0,29,30
 188.841 317.842 188.841 317.842 207 359.108 c 5,0,1
EndSplineSet
EndChar

StartChar: uniFBE8
Encoding: 64488 64488 115
Width: 521
VWidth: 2270
GlyphClass: 2
Flags: W
AnchorPoint: "Anchor-10" 204.879 1036.31 basechar 0
AnchorPoint: "Anchor-7" 230.02 -236.43 basechar 0
LayerCount: 2
Fore
SplineSet
37.8213 -20.1797 m 4,0,1
 -30.1113 -20.1797 l 1,2,-1
 -30.1113 158.938 l 1,3,-1
 44.0264 158.938 l 6,4,5
 319.074 158.94 319.074 158.94 313.11 322.796 c 0,6,7
 311.688 367.324 311.688 367.324 190.61 586.916 c 1,8,9
 334.127 717.134 l 1,10,11
 419.632 537.729 419.632 537.729 429.219 370.911 c 0,12,13
 439.614 190.029 439.614 190.029 352.898 88.9512 c 0,14,15
 256.24 -24.4756 256.24 -24.4756 37.8213 -20.1797 c 4,0,1
EndSplineSet
EndChar

StartChar: uniFBE9
Encoding: 64489 64489 116
Width: 664
VWidth: 2270
GlyphClass: 2
Flags: W
AnchorPoint: "Anchor-10" 315.928 985.08 basechar 0
AnchorPoint: "Anchor-7" 296.848 -165.025 basechar 0
LayerCount: 2
Fore
SplineSet
316.13 463.25 m 21,0,1
 321.124 518.856 321.124 518.856 354.63 519.136 c 4,2,3
 396.099 519.503 396.099 519.503 400.13 468.75 c 5,4,-1
 404.723 401.055 l 6,5,6
 413.412 272.984 413.412 272.984 460.438 220 c 0,7,8
 512.875 158.824 512.875 158.824 662.562 158.824 c 2,9,-1
 674.702 158.824 l 1,10,-1
 674.702 -20.2949 l 1,11,-1
 658.42 -19.2949 l 2,12,13
 435.459 -5.60156 435.459 -5.60156 366.63 132.596 c 1,14,15
 263.183 -16.3242 263.183 -16.3242 58.4766 -19.2949 c 2,16,-1
 -10.4424 -20.2949 l 1,17,-1
 -10.4424 158.824 l 1,18,-1
 46.8154 158.824 l 2,19,20
 134.367 158.824 134.367 158.824 191.13 183.25 c 0,21,22
 308.099 233.636 308.099 233.636 311.63 334.596 c 6,23,-1
 316.13 463.25 l 21,0,1
EndSplineSet
EndChar

StartChar: uniFE73
Encoding: 65139 65139 124
Width: 573
VWidth: 2186
GlyphClass: 2
Flags: W
AnchorPoint: "Anchor-10" 210.79 1279.5 basechar 0
AnchorPoint: "Anchor-7" 210.79 -111.5 basechar 0
LayerCount: 2
Fore
SplineSet
296.23 350.74 m 2,0,1
 296.23 286.506 296.23 286.506 352.468 230.268 c 0,2,3
 403.354 179.38 403.354 179.38 514.67 179.38 c 2,4,-1
 581.92 179.38 l 1,5,-1
 581.92 8.5 l 1,6,-1
 455.82 8.5 l 2,7,8
 309.266 8.5 309.266 8.5 214.633 103.133 c 0,9,10
 125.35 192.415 125.35 192.415 125.35 337.9 c 2,11,-1
 125.35 370.91 l 1,12,-1
 296.23 370.91 l 1,13,-1
 296.23 350.74 l 2,0,1
EndSplineSet
EndChar

StartChar: uniFE8E
Encoding: 65166 65166 150
Width: 545
VWidth: 2247
GlyphClass: 2
Flags: W
AnchorPoint: "Anchor-10" 148.257 1503.7 basechar 0
AnchorPoint: "Anchor-7" 241.297 -282.991 basechar 0
LayerCount: 2
Fore
SplineSet
283.18 1407.04 m 1,0,-1
 283.738 421.686 l 2,1,2
 283.817 281.522 283.817 281.522 339.696 222.636 c 0,3,4
 399.906 159.018 399.906 159.018 521.01 159.018 c 2,5,-1
 555.195 159.018 l 1,6,-1
 555.195 -20.1006 l 1,7,-1
 499.969 -20.1006 l 2,8,9
 350.009 -20.1006 350.009 -20.1006 259.48 79 c 0,10,11
 170.966 175.896 170.966 175.896 166.48 364 c 0,12,13
 156.548 867.964 156.548 867.964 153.48 948 c 0,14,15
 138.854 1199.82 138.854 1199.82 123.766 1304.65 c 5,16,-1
 283.18 1407.04 l 1,0,-1
EndSplineSet
EndChar

StartChar: uniFEA2
Encoding: 65186 65186 170
Width: 1431
VWidth: 2267
GlyphClass: 2
Flags: W
AnchorPoint: "Anchor-10" 578.238 1176.58 basechar 0
AnchorPoint: "Anchor-7" 322.979 -904.646 basechar 0
LayerCount: 2
Fore
SplineSet
1065.4 450.472 m 1,0,1
 1111.89 159.374 1111.89 159.374 1376.29 159.374 c 2,2,-1
 1441.12 159.374 l 1,3,-1
 1441.12 -20.6387 l 1,4,-1
 1383.05 -20.6387 l 2,5,6
 1060.04 -20.6387 1060.04 -20.6387 983.736 432.445 c 1,7,8
 622.091 347.03 622.091 347.03 427.64 196.984 c 0,9,10
 231.737 45.0576 231.737 45.0576 235.731 -198.538 c 0,11,12
 238.852 -389.521 238.852 -389.521 401.202 -500.945 c 0,13,14
 546.986 -601 546.986 -601 893.624 -573.727 c 0,15,16
 1121.43 -555.325 1121.43 -555.325 1273.36 -445.811 c 1,17,-1
 1270.62 -473.727 l 2,18,19
 1250.22 -681.597 1250.22 -681.597 971.624 -742.727 c 0,20,21
 890.726 -760.479 890.726 -760.479 803.624 -763.727 c 0,22,23
 659.942 -769.251 659.942 -769.251 549 -748 c 0,24,25
 141.169 -667.221 141.169 -667.221 94.5244 -288.803 c 0,26,27
 50.0098 72.5303 50.0098 72.5303 395.64 318 c 0,28,29
 592.986 459.87 592.986 459.87 1002 550.537 c 1,30,31
 943.229 556.741 943.229 556.741 820.339 620.491 c 0,32,33
 665.485 701.377 665.485 701.377 558.093 692.329 c 0,34,35
 433.743 681.85 433.743 681.85 328.499 473.652 c 1,36,-1
 314.72 474.434 l 2,37,38
 285.623 476.085 285.623 476.085 314.765 608.266 c 0,39,40
 323.632 648.484 323.632 648.484 354.686 712.492 c 0,41,42
 416.805 840.865 416.805 840.865 556.686 844.492 c 0,43,44
 684.413 848.49 684.413 848.49 919.979 713.771 c 0,45,46
 1033.93 648.606 1033.93 648.606 1255.66 624.238 c 1,47,-1
 1232.34 480.498 l 1,48,49
 1145.19 466.909 1145.19 466.909 1065.4 450.472 c 1,0,1
EndSplineSet
EndChar

StartChar: uniFEA3
Encoding: 65187 65187 171
Width: 1191
VWidth: 2271
GlyphClass: 2
Flags: W
AnchorPoint: "Anchor-10" 287.645 1075.46 basechar 0
AnchorPoint: "Anchor-7" 494.345 -261.447 basechar 0
LayerCount: 2
Fore
SplineSet
643.196 123.902 m 0,0,1
 406.398 -20.4365 406.398 -20.4365 15.4951 -20.4365 c 2,2,-1
 -19.9795 -20.4365 l 1,3,-1
 -19.9795 159.682 l 1,4,-1
 6.12012 159.682 l 2,5,6
 341.484 159.682 341.484 159.682 612.274 261.986 c 0,7,8
 873.829 359.977 873.829 359.977 875.154 378.086 c 1,9,10
 778.118 392.258 778.118 392.258 595.314 477.726 c 0,11,12
 414.653 562.192 414.653 562.192 333.069 549.562 c 0,13,14
 203.908 529.567 203.908 529.567 103.475 330.887 c 1,15,16
 89.6953 331.668 l 2,17,18
 58.7852 333.42 58.7852 333.42 89.7412 465.5 c 0,19,20
 106.052 535.094 106.052 535.094 119.425 562.5 c 0,21,22
 187.476 700.038 187.476 700.038 334 715 c 0,23,24
 448.749 726.053 448.749 726.053 709.955 584.006 c 0,25,26
 849.782 507.133 849.782 507.133 1100.83 461.405 c 5,27,-1
 1077.51 320.846 l 5,28,29
 989.281 334.604 989.281 334.604 643.196 123.902 c 0,0,1
EndSplineSet
EndChar

StartChar: uniFEA4
Encoding: 65188 65188 172
Width: 1215
VWidth: 2271
GlyphClass: 2
Flags: W
AnchorPoint: "Anchor-10" 364.224 1097.15 basechar 0
AnchorPoint: "Anchor-7" 542.304 -269.39 basechar 0
LayerCount: 2
Fore
SplineSet
846.27 242.397 m 1,0,1
 857.043 159.173 857.043 159.173 1018.58 159.173 c 2,2,-1
 1225.5 159.173 l 1,3,-1
 1225.5 -20.9004 l 1,4,-1
 995.898 -20.9004 l 2,5,6
 822.766 -20.9004 822.766 -20.9004 755.76 193.056 c 5,7,8
 699.479 158.479 699.479 158.479 643.196 123.902 c 0,9,10
 406.398 -20.4365 406.398 -20.4365 15.4951 -20.4365 c 2,11,-1
 -19.9795 -20.4365 l 1,12,-1
 -19.9795 159.682 l 1,13,-1
 17.1201 159.682 l 2,14,15
 341.484 159.682 341.484 159.682 612.274 261.986 c 0,16,17
 873.829 359.977 873.829 359.977 875.154 378.086 c 1,18,19
 751.497 396.146 751.497 396.146 595.314 477.726 c 0,20,21
 440.461 558.611 440.461 558.611 333.069 549.562 c 0,22,23
 208.719 539.084 208.719 539.084 103.475 330.887 c 1,24,-1
 89.6953 331.668 l 2,25,26
 60.502 333.323 60.502 333.323 89.7412 465.5 c 0,27,28
 104.728 533.25 104.728 533.25 130.761 573.916 c 0,29,30
 212.573 701.716 212.573 701.716 347.761 706.916 c 0,31,32
 450.494 710.358 450.494 710.358 694.955 581.006 c 0,33,34
 844.872 501.68 844.872 501.68 1113.83 461.405 c 1,35,-1
 1090.51 320.846 l 1,36,37
 1016.3 328.932 1016.3 328.932 846.27 242.397 c 1,0,1
EndSplineSet
EndChar

StartChar: uniFEAA
Encoding: 65194 65194 178
Width: 1015
VWidth: 2265
GlyphClass: 2
Flags: W
AnchorPoint: "Anchor-10" 425.035 1151.14 basechar 0
AnchorPoint: "Anchor-7" 330.176 -296.449 basechar 0
LayerCount: 2
Fore
SplineSet
119.454 307.3 m 1,0,1
 135.5 169.071 135.5 169.071 330.35 165.866 c 0,2,3
 594.908 161.153 594.908 161.153 635.122 216.3 c 0,4,5
 664.157 255.954 664.157 255.954 652.271 316.475 c 0,6,7
 648.119 338.356 648.119 338.356 643.834 341.957 c 0,8,-1
 441 702.395 l 17,9,-1
 527.077 871.238 l 1,10,-1
 763.983 408.345 l 1,11,12
 905.588 162.563 905.588 162.563 995.75 158.703 c 2,13,-1
 1006.26 158.253 l 1,14,-1
 1025.29 158.253 l 1,15,-1
 1025.29 -20.7598 l 1,16,-1
 1011.69 -20.7598 l 2,17,18
 877.556 -20.7598 877.556 -20.7598 749.312 151.115 c 1,19,20
 669.934 -45.7764 669.934 -45.7764 310.453 -17 c 4,21,-1
 282.119 -13.8184 l 4,22,23
 91.1836 9.49902 91.1836 9.49902 91.6172 177.13 c 2,24,-1
 91.9541 307.3 l 1,25,26
 106 313.216 106 313.216 119.454 307.3 c 1,0,1
EndSplineSet
EndChar

StartChar: uniFEAE
Encoding: 65198 65198 182
Width: 879
VWidth: 2270
GlyphClass: 2
Flags: W
AnchorPoint: "Anchor-10" 423.796 844.783 basechar 0
AnchorPoint: "Anchor-7" 395.097 -681.14 basechar 0
LayerCount: 2
Fore
SplineSet
716.071 14.3447 m 1,0,1
 653.879 -436.456 653.879 -436.456 317.071 -468.969 c 0,2,3
 150.191 -485.078 150.191 -485.078 11.6104 -356.909 c 1,4,5
 609.071 -294.968 609.071 -294.968 623.953 109.317 c 1,6,7
 623.953 173.285 623.953 173.285 511.071 334.371 c 1,8,9
 563.071 422.371 563.071 422.371 628.256 477.844 c 1,10,11
 678.071 345.936 678.071 345.936 722.071 207.937 c 1,12,13
 768.52 158.822 768.52 158.822 856.727 158.822 c 2,14,-1
 896.532 158.822 l 1,15,-1
 896.532 -20.2949 l 1,16,17
 837.984 -20.2969 837.984 -20.2969 837.95 -20.2871 c 2,18,19
 743.986 -20.2746 743.986 -20.2746 716.071 14.3447 c 1,0,1
EndSplineSet
PairPos2: "'kern' Horizontal Kerning lookup 15-1" uni06CC dx=-141 dy=0 dh=-141 dv=0 dx=0 dy=0 dh=0 dv=0
PairPos2: "'kern' Horizontal Kerning lookup 15-1" uniFEEB dx=-213 dy=0 dh=-213 dv=0 dx=0 dy=0 dh=0 dv=0
PairPos2: "'kern' Horizontal Kerning lookup 15-1" uniFB58 dx=99 dy=0 dh=99 dv=0 dx=0 dy=0 dh=0 dv=0
PairPos2: "'kern' Horizontal Kerning lookup 15-1" uniFEF3 dx=99 dy=0 dh=99 dv=0 dx=0 dy=0 dh=0 dv=0
PairPos2: "'kern' Horizontal Kerning lookup 15-1" uniFBFE dx=99 dy=0 dh=99 dv=0 dx=0 dy=0 dh=0 dv=0
PairPos2: "'kern' Horizontal Kerning lookup 15-1" uniFEDF dx=-213 dy=0 dh=-213 dv=0 dx=0 dy=0 dh=0 dv=0
PairPos2: "'kern' Horizontal Kerning lookup 15-1" uniFB90 dx=-213 dy=0 dh=-213 dv=0 dx=0 dy=0 dh=0 dv=0
PairPos2: "'kern' Horizontal Kerning lookup 15-1" uni06A9 dx=-213 dy=0 dh=-213 dv=0 dx=0 dy=0 dh=0 dv=0
PairPos2: "'kern' Horizontal Kerning lookup 15-1" uni0649 dx=-141 dy=0 dh=-141 dv=0 dx=0 dy=0 dh=0 dv=0
PairPos2: "'kern' Horizontal Kerning lookup 15-1" uni0647 dx=-213 dy=0 dh=-213 dv=0 dx=0 dy=0 dh=0 dv=0
PairPos2: "'kern' Horizontal Kerning lookup 15-1" uniFEE7 dx=-213 dy=0 dh=-213 dv=0 dx=0 dy=0 dh=0 dv=0
PairPos2: "'kern' Horizontal Kerning lookup 15-1" uniFEE3 dx=-213 dy=0 dh=-213 dv=0 dx=0 dy=0 dh=0 dv=0
PairPos2: "'kern' Horizontal Kerning lookup 15-1" uni0645 dx=-213 dy=0 dh=-213 dv=0 dx=0 dy=0 dh=0 dv=0
PairPos2: "'kern' Horizontal Kerning lookup 15-1" uniFEDB dx=-213 dy=0 dh=-213 dv=0 dx=0 dy=0 dh=0 dv=0
PairPos2: "'kern' Horizontal Kerning lookup 15-1" uniFED7 dx=-213 dy=0 dh=-213 dv=0 dx=0 dy=0 dh=0 dv=0
PairPos2: "'kern' Horizontal Kerning lookup 15-1" uniFED3 dx=-213 dy=0 dh=-213 dv=0 dx=0 dy=0 dh=0 dv=0
PairPos2: "'kern' Horizontal Kerning lookup 15-1" uni0641 dx=-213 dy=0 dh=-213 dv=0 dx=0 dy=0 dh=0 dv=0
PairPos2: "'kern' Horizontal Kerning lookup 15-1" uniFECF dx=-213 dy=0 dh=-213 dv=0 dx=0 dy=0 dh=0 dv=0
PairPos2: "'kern' Horizontal Kerning lookup 15-1" uniFECB dx=-213 dy=0 dh=-213 dv=0 dx=0 dy=0 dh=0 dv=0
PairPos2: "'kern' Horizontal Kerning lookup 15-1" uniFEC7 dx=-213 dy=0 dh=-213 dv=0 dx=0 dy=0 dh=0 dv=0
PairPos2: "'kern' Horizontal Kerning lookup 15-1" uni0638 dx=-213 dy=0 dh=-213 dv=0 dx=0 dy=0 dh=0 dv=0
PairPos2: "'kern' Horizontal Kerning lookup 15-1" uniFEC3 dx=-213 dy=0 dh=-213 dv=0 dx=0 dy=0 dh=0 dv=0
PairPos2: "'kern' Horizontal Kerning lookup 15-1" uni0637 dx=-213 dy=0 dh=-213 dv=0 dx=0 dy=0 dh=0 dv=0
PairPos2: "'kern' Horizontal Kerning lookup 15-1" uniFEBF dx=-213 dy=0 dh=-213 dv=0 dx=0 dy=0 dh=0 dv=0
PairPos2: "'kern' Horizontal Kerning lookup 15-1" uni0636 dx=-213 dy=0 dh=-213 dv=0 dx=0 dy=0 dh=0 dv=0
PairPos2: "'kern' Horizontal Kerning lookup 15-1" uniFEBB dx=-213 dy=0 dh=-213 dv=0 dx=0 dy=0 dh=0 dv=0
PairPos2: "'kern' Horizontal Kerning lookup 15-1" uni0635 dx=-213 dy=0 dh=-213 dv=0 dx=0 dy=0 dh=0 dv=0
PairPos2: "'kern' Horizontal Kerning lookup 15-1" uniFEB7 dx=-213 dy=0 dh=-213 dv=0 dx=0 dy=0 dh=0 dv=0
PairPos2: "'kern' Horizontal Kerning lookup 15-1" uni0634 dx=-213 dy=0 dh=-213 dv=0 dx=0 dy=0 dh=0 dv=0
PairPos2: "'kern' Horizontal Kerning lookup 15-1" uniFEB3 dx=-213 dy=0 dh=-213 dv=0 dx=0 dy=0 dh=0 dv=0
PairPos2: "'kern' Horizontal Kerning lookup 15-1" uni0633 dx=-213 dy=0 dh=-213 dv=0 dx=0 dy=0 dh=0 dv=0
PairPos2: "'kern' Horizontal Kerning lookup 15-1" uni0630 dx=-213 dy=0 dh=-213 dv=0 dx=0 dy=0 dh=0 dv=0
PairPos2: "'kern' Horizontal Kerning lookup 15-1" uni062F dx=-213 dy=0 dh=-213 dv=0 dx=0 dy=0 dh=0 dv=0
PairPos2: "'kern' Horizontal Kerning lookup 15-1" uniFEA7 dx=-213 dy=0 dh=-213 dv=0 dx=0 dy=0 dh=0 dv=0
PairPos2: "'kern' Horizontal Kerning lookup 15-1" uniFEA3 dx=-213 dy=0 dh=-213 dv=0 dx=0 dy=0 dh=0 dv=0
PairPos2: "'kern' Horizontal Kerning lookup 15-1" uniFE9F dx=-213 dy=0 dh=-213 dv=0 dx=0 dy=0 dh=0 dv=0
PairPos2: "'kern' Horizontal Kerning lookup 15-1" uniFE9B dx=-213 dy=0 dh=-213 dv=0 dx=0 dy=0 dh=0 dv=0
PairPos2: "'kern' Horizontal Kerning lookup 15-1" uni062B dx=-213 dy=0 dh=-213 dv=0 dx=0 dy=0 dh=0 dv=0
PairPos2: "'kern' Horizontal Kerning lookup 15-1" uniFE97 dx=-213 dy=0 dh=-213 dv=0 dx=0 dy=0 dh=0 dv=0
PairPos2: "'kern' Horizontal Kerning lookup 15-1" uni062A dx=-213 dy=0 dh=-213 dv=0 dx=0 dy=0 dh=0 dv=0
PairPos2: "'kern' Horizontal Kerning lookup 15-1" uni0629 dx=-213 dy=0 dh=-213 dv=0 dx=0 dy=0 dh=0 dv=0
PairPos2: "'kern' Horizontal Kerning lookup 15-1" uni0628 dx=-213 dy=0 dh=-213 dv=0 dx=0 dy=0 dh=0 dv=0
PairPos2: "'kern' Horizontal Kerning lookup 15-1" uni0627 dx=-241 dy=0 dh=-241 dv=0 dx=0 dy=0 dh=0 dv=0
PairPos2: "'kern' Horizontal Kerning lookup 15-1" uni0622 dx=-241 dy=0 dh=-241 dv=0 dx=0 dy=0 dh=0 dv=0
PairPos2: "'kern' Horizontal Kerning lookup 15-1" uniFB94 dx=-213 dy=0 dh=-213 dv=0 dx=0 dy=0 dh=0 dv=0
PairPos2: "'kern' Horizontal Kerning lookup 15-1" afii57509 dx=-213 dy=0 dh=-213 dv=0 dx=0 dy=0 dh=0 dv=0
PairPos2: "'kern' Horizontal Kerning lookup 15-1" uniFB56 dx=-213 dy=0 dh=-213 dv=0 dx=0 dy=0 dh=0 dv=0
PairPos2: "'kern' Horizontal Kerning lookup 15-1" afii57506 dx=-213 dy=0 dh=-213 dv=0 dx=0 dy=0 dh=0 dv=0
EndChar

StartChar: uniFEB2
Encoding: 65202 65202 186
Width: 2324
VWidth: 2270
GlyphClass: 2
Flags: W
AnchorPoint: "Anchor-10" 553.867 911.321 basechar 0
AnchorPoint: "Anchor-7" 378.967 -766.659 basechar 0
LayerCount: 2
Fore
SplineSet
1420.2 150.992 m 0,0,1
 1528.04 149.466 1528.04 149.466 1569.6 280.535 c 0,2,3
 1586.28 332.914 1586.28 332.914 1587.96 411.416 c 1,4,5
 1592.96 467.022 1592.96 467.022 1626.46 467.302 c 0,6,7
 1667.93 467.669 1667.93 467.669 1671.96 416.916 c 1,8,-1
 1673.08 394.141 l 2,9,10
 1684.52 161.475 1684.52 161.475 1829.34 159.642 c 8,11,12
 1950.4 158.109 1950.4 158.109 1977.09 346.206 c 0,13,14
 1987.68 418.037 1987.68 418.037 1987.16 463.477 c 5,15,16
 1992.15 519.083 1992.15 519.083 2025.66 519.362 c 0,17,18
 2067.12 519.729 2067.12 519.729 2071.16 468.977 c 1,19,-1
 2075.09 397.436 l 2,20,21
 2082.07 270.27 2082.07 270.27 2108.09 227.936 c 0,22,23
 2149.27 159.736 2149.27 159.736 2296.58 159.736 c 6,24,-1
 2333.88 159.736 l 5,25,-1
 2333.88 -20.3359 l 5,26,-1
 2303.1 -20.3359 l 6,27,28
 2061.43 -20.3359 2061.43 -20.3359 2010.27 145.688 c 1,29,30
 1960 -12 1960 -12 1837.14 -19.4756 c 0,31,32
 1670.19 -29.6139 1670.19 -29.6139 1607.8 150.513 c 1,33,34
 1550.94 -14.3339 1550.94 -14.3339 1421.81 -20 c 0,35,36
 1310.18 -24.8982 1310.18 -24.8982 1258.58 63.1084 c 1,37,38
 1268.58 17.1084 1268.58 17.1084 1266.58 -20 c 1,39,40
 1186.55 -491.442 1186.55 -491.442 667.084 -501.362 c 0,41,42
 303.238 -508.027 303.238 -508.027 163.697 -307.568 c 0,43,44
 51.9453 -145.739 51.9453 -145.739 114.188 87.3965 c 0,45,46
 133.914 161.282 133.914 161.282 163 248.814 c 0,47,48
 190.578 333.815 190.578 333.815 200 359.108 c 0,49,-1
 267.076 314.108 l 1,50,51
 170.164 24.6045 170.164 24.6045 237.178 -120.305 c 0,52,53
 339.242 -337.212 339.242 -337.212 662.852 -331.804 c 0,54,55
 1131.32 -323.834 1131.32 -323.834 1155.58 -20 c 1,56,-1
 1023.58 388.108 l 1,57,-1
 1173.33 529.794 l 1,58,59
 1215.92 302.382 1215.92 302.382 1243.93 243.396 c 0,60,61
 1287.07 152.627 1287.07 152.627 1420.2 150.992 c 0,0,1
EndSplineSet
EndChar

StartChar: uniFEB3
Encoding: 65203 65203 187
Width: 1240
VWidth: 2270
GlyphClass: 2
Flags: W
AnchorPoint: "Anchor-10" 640.331 969.511 basechar 0
AnchorPoint: "Anchor-7" 576.53 -242.6 basechar 0
LayerCount: 2
Fore
SplineSet
216.318 356.723 m 1,0,1
 221.312 412.329 221.312 412.329 254.818 412.608 c 0,2,3
 296.286 412.976 296.286 412.976 300.318 362.223 c 1,4,-1
 304.394 332.742 l 2,5,6
 329.33 152.348 329.33 152.348 476.555 150.799 c 0,7,8
 577.41 149.272 577.41 149.272 618.957 280.342 c 0,9,10
 635.638 332.721 635.638 332.721 637.318 411.223 c 1,11,12
 642.312 466.829 642.312 466.829 675.818 467.108 c 0,13,14
 717.286 467.476 717.286 467.476 721.318 416.723 c 1,15,-1
 722.432 393.947 l 2,16,17
 733.698 163.463 733.698 163.463 869.695 159.448 c 1,18,19
 1038.74 159.448 1038.74 159.448 1032.78 323.307 c 0,20,21
 1031.36 367.835 1031.36 367.835 910.28 587.427 c 1,22,-1
 1053.8 717.645 l 1,23,24
 1139.3 538.238 1139.3 538.238 1148.89 371.422 c 0,25,26
 1160.69 180.442 1160.69 180.442 1077.32 80.7227 c 0,27,28
 992.626 -20.5654 992.626 -20.5654 889.318 -19.2773 c 0,29,30
 821.194 -18.4277 821.194 -18.4277 790.502 -3.73926 c 0,31,32
 694.573 42.2861 694.573 42.2861 657.155 150.319 c 1,33,34
 597.643 -20.4072 597.643 -20.4072 455.165 -20.1934 c 0,35,36
 304.174 -20 304.174 -20 241.155 144.319 c 1,37,38
 206.734 64.0039 206.734 64.0039 146.653 23.3076 c 0,39,40
 82.4229 -20.1992 82.4229 -20.1992 27.8633 -20.1992 c 2,41,-1
 -10.3438 -20.1992 l 1,42,-1
 -10.3438 158.92 l 1,43,-1
 17.4814 158.92 l 2,44,45
 208.059 158.92 208.059 158.92 213.471 288.521 c 2,46,-1
 216.318 356.723 l 1,0,1
EndSplineSet
EndChar

StartChar: uniFEB4
Encoding: 65204 65204 188
Width: 1343
VWidth: 2270
GlyphClass: 2
Flags: W
AnchorPoint: "Anchor-10" 606.883 968.88 basechar 0
LayerCount: 2
Fore
SplineSet
1096.51 466.783 m 5,0,1
 1099.44 411.242 l 6,2,3
 1106.74 272.829 1106.74 272.829 1134.44 227.742 c 4,4,5
 1175.62 159.543 1175.62 159.543 1305.93 159.543 c 6,6,-1
 1343.23 159.543 l 5,7,-1
 1343.23 -20.5293 l 5,8,-1
 1312.45 -20.5293 l 6,9,10
 1087.78 -20.5293 1087.78 -20.5293 1036.62 145.495 c 5,11,12
 986.96 -19.3994 986.96 -19.3994 853.443 -21.6787 c 4,13,14
 710.668 -24.8516 710.668 -24.8516 650.155 150.319 c 5,15,16
 602.922 -18.2656 602.922 -18.2656 449.165 -20.1934 c 4,17,18
 303.053 -22.6533 303.053 -22.6533 239.155 144.319 c 5,19,20
 204.734 64.0039 204.734 64.0039 144.653 23.3076 c 4,21,22
 80.4229 -20.1992 80.4229 -20.1992 27.8633 -20.1992 c 6,23,-1
 -10.3438 -20.1992 l 5,24,-1
 -10.3438 158.92 l 5,25,-1
 17.4814 158.92 l 6,26,27
 206.059 158.92 206.059 158.92 211.471 288.521 c 6,28,-1
 214.318 356.723 l 5,29,30
 219.312 412.329 219.312 412.329 252.818 412.608 c 4,31,32
 294.286 412.976 294.286 412.976 298.318 362.223 c 5,33,-1
 302.394 332.742 l 6,34,35
 327.358 152.144 327.358 152.144 455.555 150.799 c 4,36,37
 570.347 149.272 570.347 149.272 611.957 280.342 c 4,38,39
 628.638 332.721 628.638 332.721 630.318 411.223 c 5,40,41
 635.312 466.829 635.312 466.829 668.818 467.108 c 4,42,43
 710.286 467.476 710.286 467.476 714.318 416.723 c 5,44,-1
 716.432 367.947 l 6,45,46
 725.758 152.68 725.758 152.68 865.695 159.448 c 12,47,48
 971.63 164.583 971.63 164.583 1002.44 323.719 c 4,49,50
 1013.24 378.556 1013.24 378.556 1012.51 461.283 c 5,51,52
 1017.5 516.89 1017.5 516.89 1051.01 517.169 c 4,53,54
 1092.48 517.536 1092.48 517.536 1096.51 466.783 c 5,0,1
EndSplineSet
EndChar

StartChar: uniFEBA
Encoding: 65210 65210 194
Width: 2502
VWidth: 2271
GlyphClass: 2
Flags: W
AnchorPoint: "Anchor-10" 593.066 875.21 basechar 0
AnchorPoint: "Anchor-7" 362.286 -739.091 basechar 0
LayerCount: 2
Fore
SplineSet
1493.06 159.099 m 1,0,-1
 1682.56 159.099 l 2,1,2
 1872.45 159.099 1872.45 159.099 2019.98 208.126 c 0,3,4
 2142.11 247.346 2142.11 247.346 2136.13 392.529 c 0,5,6
 2129.08 585.043 2129.08 585.043 1948.87 544.348 c 0,7,8
 1863.34 525.033 1863.34 525.033 1731.05 404.088 c 0,9,10
 1591.07 276.104 1591.07 276.104 1493.06 159.099 c 1,0,-1
1385.34 180.704 m 1,11,12
 1577.17 452.246 1577.17 452.246 1667.34 540.704 c 0,13,14
 1847.02 713.757 1847.02 713.757 2008.13 702.529 c 0,15,16
 2241.55 686.815 2241.55 686.815 2256.07 419.104 c 4,17,18
 2261.15 330.336 2261.15 330.336 2243.16 260.396 c 5,19,20
 2324.6 158.08 2324.6 158.08 2467.52 158.08 c 2,21,-1
 2513.41 158.08 l 1,22,-1
 2513.41 -20.9326 l 1,23,-1
 2442.16 -17.8848 l 2,24,25
 2230.58 -8.83398 2230.58 -8.83398 2165.71 129.403 c 1,26,27
 2126.72 85.1387 2126.72 85.1387 2069.07 56.1035 c 0,28,29
 1915.67 -21.1562 1915.67 -21.1562 1743.81 -20.7109 c 2,30,-1
 1469.28 -20 l 2,31,32
 1322.53 -19.6201 1322.53 -19.6201 1261.58 63.1084 c 1,33,34
 1271.58 17.1084 1271.58 17.1084 1269.58 -20 c 1,35,36
 1189.55 -491.442 1189.55 -491.442 670.084 -501.362 c 0,37,38
 306.238 -508.027 306.238 -508.027 166.697 -307.568 c 0,39,40
 57.8994 -150.017 57.8994 -150.017 117.188 87.3965 c 0,41,42
 132.817 149.977 132.817 149.977 167.933 253.351 c 0,43,44
 189.841 317.842 189.841 317.842 208 359.108 c 1,45,-1
 278 314.108 l 1,46,47
 174.13 20.0869 174.13 20.0869 240.178 -120.305 c 0,48,49
 342.242 -337.212 342.242 -337.212 665.852 -331.804 c 0,50,51
 1134.32 -323.834 1134.32 -323.834 1158.58 -20 c 1,52,-1
 1026.58 388.108 l 1,53,-1
 1176.33 529.794 l 1,54,55
 1222.32 284.189 1222.32 284.189 1246.93 243.396 c 8,56,57
 1293.45 166.273 1293.45 166.273 1385.34 180.704 c 1,11,12
EndSplineSet
EndChar

StartChar: uniFEBB
Encoding: 65211 65211 195
Width: 1535
VWidth: 2271
GlyphClass: 2
Flags: W
AnchorPoint: "Anchor-10" 535.518 1093.87 basechar 0
AnchorPoint: "Anchor-7" 661.658 -308.295 basechar 0
LayerCount: 2
Fore
SplineSet
573.111 181.301 m 1,0,1
 764.943 452.843 764.943 452.843 855.111 541.301 c 0,2,3
 1034.79 714.354 1034.79 714.354 1195.9 703.126 c 0,4,5
 1429.32 687.412 1429.32 687.412 1443.84 419.7 c 4,6,7
 1458.56 157.808 1458.56 157.808 1256.84 56.7002 c 0,8,9
 1103.45 -20.5596 1103.45 -20.5596 931.583 -20.1143 c 2,10,-1
 657.053 -19.4033 l 2,11,12
 422.098 -18.7949 422.098 -18.7949 321.08 145.445 c 1,13,14
 198.718 -20.1143 198.718 -20.1143 18.9697 -20.1143 c 2,15,-1
 -10.3047 -20.1143 l 1,16,-1
 -10.3047 159.004 l 1,17,-1
 7.58789 159.004 l 2,18,19
 126.583 159.004 126.583 159.004 184.838 195.244 c 0,20,21
 239.455 229.771 239.455 229.771 248.345 299.073 c 0,22,-1
 260.33 413.732 l 1,23,24
 267.925 481.781 267.925 481.781 306.83 483.118 c 0,25,26
 348.297 483.485 348.297 483.485 352.33 432.732 c 1,27,-1
 360.178 365.926 l 2,28,29
 377.766 216.206 377.766 216.206 573.111 181.301 c 1,0,1
680.833 159.695 m 1,30,-1
 870.333 159.695 l 2,31,32
 1060.22 159.695 1060.22 159.695 1207.75 208.723 c 0,33,34
 1329.88 247.942 1329.88 247.942 1323.9 393.126 c 0,35,36
 1316.86 585.64 1316.86 585.64 1136.64 544.944 c 0,37,38
 1051.11 525.63 1051.11 525.63 918.827 404.685 c 0,39,40
 778.843 276.7 778.843 276.7 680.833 159.695 c 1,30,-1
EndSplineSet
EndChar

StartChar: uniFEBC
Encoding: 65212 65212 196
Width: 1691
VWidth: 2271
GlyphClass: 2
Flags: W
AnchorPoint: "Anchor-10" 563.178 1162.7 basechar 0
AnchorPoint: "Anchor-7" 654.338 -315.466 basechar 0
LayerCount: 2
Fore
SplineSet
680.833 159.695 m 1,0,-1
 870.333 159.695 l 2,1,2
 1060.22 159.695 1060.22 159.695 1207.75 208.723 c 0,3,4
 1329.88 247.942 1329.88 247.942 1323.9 393.126 c 0,5,6
 1316.86 585.64 1316.86 585.64 1136.64 544.944 c 0,7,8
 1051.11 525.63 1051.11 525.63 918.827 404.685 c 0,9,10
 778.843 276.7 778.843 276.7 680.833 159.695 c 1,0,-1
1430.94 260.993 m 5,11,12
 1512.37 158.677 1512.37 158.677 1655.29 158.677 c 2,13,-1
 1701.18 158.677 l 1,14,-1
 1701.18 -20.3359 l 1,15,-1
 1629.93 -17.2881 l 2,16,17
 1418.35 -8.2373 1418.35 -8.2373 1353.48 130 c 1,18,19
 1314.49 85.7354 1314.49 85.7354 1256.84 56.7002 c 0,20,21
 1103.45 -20.5596 1103.45 -20.5596 931.583 -20.1143 c 2,22,-1
 657.053 -19.4033 l 2,23,24
 422.098 -18.7949 422.098 -18.7949 321.08 145.445 c 1,25,26
 198.718 -20.1143 198.718 -20.1143 18.9697 -20.1143 c 2,27,-1
 -10.3047 -20.1143 l 1,28,-1
 -10.3047 159.004 l 1,29,-1
 7.58789 159.004 l 2,30,31
 126.583 159.004 126.583 159.004 184.838 195.244 c 0,32,33
 239.455 229.771 239.455 229.771 248.345 299.073 c 0,34,-1
 260.33 413.732 l 1,35,36
 267.925 481.781 267.925 481.781 306.83 483.118 c 0,37,38
 348.297 483.485 348.297 483.485 352.33 432.732 c 1,39,-1
 360.178 365.926 l 2,40,41
 377.766 216.206 377.766 216.206 573.111 181.301 c 1,42,43
 764.943 452.843 764.943 452.843 855.111 541.301 c 0,44,45
 1034.79 714.354 1034.79 714.354 1195.9 703.126 c 0,46,47
 1429.32 687.412 1429.32 687.412 1443.84 419.7 c 4,48,49
 1448.92 330.933 1448.92 330.933 1430.94 260.993 c 5,11,12
EndSplineSet
EndChar

StartChar: uniFEC2
Encoding: 65218 65218 202
Width: 1467
VWidth: 2271
GlyphClass: 2
Flags: W
AnchorPoint: "Anchor-7" 649.472 -302.627 basechar 0
AnchorPoint: "Anchor-10" 239.684 1504.11 basechar 0
LayerCount: 2
Fore
SplineSet
236.558 158.861 m 1,0,1
 237.148 159.604 237.148 159.604 229.739 454.24 c 2,2,3
 219.321 905.517 219.321 905.517 216.521 979.869 c 0,4,5
 204.791 1224.83 204.791 1224.83 192.299 1304.64 c 5,6,-1
 349.891 1406.89 l 1,7,-1
 349.248 183.17 l 1,8,9
 532.25 453 532.25 453 631.111 541.301 c 0,10,11
 820.732 713.66 820.732 713.66 971.901 703.126 c 0,12,13
 1205.32 687.412 1205.32 687.412 1219.84 419.7 c 0,14,15
 1224.92 330.933 1224.92 330.933 1206.94 260.993 c 1,16,17
 1288.37 158.677 1288.37 158.677 1431.29 158.677 c 2,18,-1
 1477.18 158.677 l 1,19,-1
 1477.18 -20.3359 l 1,20,-1
 1405.93 -17.2881 l 2,21,22
 1194.35 -8.23752 1194.35 -8.23752 1129.48 130 c 1,23,24
 1090.49 85.7354 1090.49 85.7354 1032.84 56.7002 c 0,25,26
 879.449 -20.5594 879.449 -20.5594 707.583 -20.1143 c 2,27,-1
 433.053 -19.4033 l 2,28,-1
 232.891 -19.8105 l 2,29,30
 59.3203 -20.1636 59.3203 -20.1636 59.3203 125.958 c 2,31,-1
 59.3203 158.991 l 1,32,-1
 236.558 158.861 l 1,0,1
456.833 159.695 m 1,33,-1
 646.333 159.695 l 2,34,35
 836.221 159.695 836.221 159.695 983.753 208.723 c 0,36,37
 1105.88 247.941 1105.88 247.941 1099.9 393.126 c 0,38,39
 1092.86 585.64 1092.86 585.64 912.643 544.944 c 0,40,41
 827.11 525.63 827.11 525.63 694.827 404.685 c 0,42,43
 554.843 276.7 554.843 276.7 456.833 159.695 c 1,33,-1
EndSplineSet
EndChar

StartChar: uniFEC3
Encoding: 65219 65219 203
Width: 1236
VWidth: 2271
GlyphClass: 2
Flags: W
AnchorPoint: "Anchor-10" 202.85 1508.07 basechar 0
AnchorPoint: "Anchor-7" 482.85 -316.406 basechar 0
LayerCount: 2
Fore
SplineSet
161.422 158.992 m 1,0,1
 162.061 159.798 162.061 159.798 154.602 456.371 c 2,2,3
 144.364 902.792 144.364 902.792 141.383 982 c 0,4,5
 129.655 1226.96 129.655 1226.96 117.162 1306.77 c 5,6,-1
 274.754 1409.02 l 1,7,-1
 274.111 182.301 l 1,8,9
 441.519 428.939 441.519 428.939 556.112 541.301 c 0,10,11
 732.812 714.56 732.812 714.56 896.901 703.126 c 0,12,13
 1130.32 687.412 1130.32 687.412 1144.84 419.7 c 0,14,15
 1159.56 157.81 1159.56 157.81 957.843 56.7002 c 0,16,17
 804.449 -20.5594 804.449 -20.5594 632.584 -20.1143 c 2,18,-1
 358.054 -19.4033 l 2,19,-1
 -20.6797 -20.127 l 1,20,-1
 -20.6797 158.991 l 1,21,-1
 161.422 158.992 l 1,0,1
381.834 159.695 m 1,22,-1
 571.334 159.695 l 2,23,24
 756.085 159.695 756.085 159.695 908.753 208.723 c 0,25,26
 1030.88 247.942 1030.88 247.942 1024.9 393.126 c 0,27,28
 1017.86 585.64 1017.86 585.64 837.644 544.944 c 0,29,30
 752.11 525.63 752.11 525.63 619.828 404.685 c 0,31,32
 479.844 276.7 479.844 276.7 381.834 159.695 c 1,22,-1
EndSplineSet
EndChar

StartChar: uniFEC4
Encoding: 65220 65220 204
Width: 1397
VWidth: 2271
GlyphClass: 2
Flags: W
AnchorPoint: "Anchor-10" 199.939 1511.75 basechar 0
AnchorPoint: "Anchor-7" 537.047 -286.727 basechar 0
LayerCount: 2
Fore
SplineSet
166.422 158.992 m 1,0,1
 167.057 159.838 167.057 159.838 159.682 453.107 c 2,2,3
 149.459 899.226 149.459 899.226 146.463 978.736 c 0,4,5
 134.734 1223.69 134.734 1223.69 122.241 1303.51 c 5,6,-1
 279.833 1405.76 l 1,7,-1
 279.19 179.037 l 1,8,9
 439.785 420.65 439.785 420.65 561.111 541.301 c 0,10,11
 735.503 714.721 735.503 714.721 901.901 703.126 c 0,12,13
 1135.32 687.412 1135.32 687.412 1149.84 419.7 c 0,14,15
 1154.92 330.933 1154.92 330.933 1136.94 260.993 c 1,16,17
 1218.37 158.677 1218.37 158.677 1361.29 158.677 c 2,18,-1
 1407.18 158.677 l 1,19,-1
 1407.18 -20.3359 l 1,20,-1
 1335.93 -17.2881 l 2,21,22
 1124.35 -8.23752 1124.35 -8.23752 1059.48 130 c 1,23,24
 1020.49 85.7354 1020.49 85.7354 962.843 56.7002 c 0,25,26
 809.449 -20.5594 809.449 -20.5594 637.583 -20.1143 c 2,27,-1
 363.053 -19.4033 l 2,28,-1
 -10.6797 -20.127 l 1,29,-1
 -10.6797 158.991 l 1,30,-1
 166.422 158.992 l 1,0,1
386.833 159.695 m 1,32,-1
 576.333 159.695 l 2,33,34
 766.221 159.695 766.221 159.695 913.753 208.723 c 0,35,36
 1035.88 247.941 1035.88 247.941 1029.9 393.126 c 0,37,38
 1022.86 585.64 1022.86 585.64 842.643 544.944 c 0,39,40
 757.11 525.63 757.11 525.63 624.827 404.685 c 0,41,42
 484.843 276.7 484.843 276.7 386.833 159.695 c 1,32,-1
EndSplineSet
EndChar

StartChar: uniFECA
Encoding: 65226 65226 210
Width: 1222
VWidth: 2269
GlyphClass: 2
Flags: W
AnchorPoint: "Anchor-10" 429.886 1095.6 basechar 0
AnchorPoint: "Anchor-7" 373.457 -833.007 basechar 0
LayerCount: 2
Fore
SplineSet
555.243 520.322 m 0,0,1
 537.944 520.322 537.944 520.322 524.036 517.978 c 0,2,3
 481.788 510.948 481.788 510.948 487.29 497.64 c 0,4,5
 490.878 489.296 490.878 489.296 509.179 477.577 c 0,6,7
 532.214 462.825 532.214 462.825 555.243 452.133 c 1,8,9
 574.938 460.568 574.938 460.568 599.95 478.144 c 0,10,11
 616.417 489.883 616.417 489.883 616.417 497.801 c 0,12,13
 616.417 513.78 616.417 513.78 586.36 517.992 c 0,14,15
 569.728 520.322 569.728 520.322 555.243 520.322 c 0,0,1
630.267 322.441 m 1,16,17
 814.58 159.114 814.58 159.114 1188.68 159.114 c 2,18,-1
 1232.69 159.114 l 1,19,-1
 1232.69 -20.8984 l 1,20,-1
 1197.62 -20.8984 l 2,21,22
 826.51 -20.8984 826.51 -20.8984 559.439 251 c 5,23,24
 532.304 232.081 532.304 232.081 455.439 165 c 4,25,26
 235.607 -26.8516 235.607 -26.8516 225.938 -199.343 c 0,27,28
 215.886 -397.831 215.886 -397.831 366.772 -505.332 c 0,29,30
 519.078 -612.865 519.078 -612.865 785.938 -580.343 c 0,31,32
 930.013 -562.785 930.013 -562.785 1103.24 -484.853 c 1,33,-1
 1096.29 -511.255 l 2,34,35
 1027.47 -772.694 1027.47 -772.694 628 -757.23 c 0,36,37
 355.279 -746.919 355.279 -746.919 207.764 -595.23 c 0,38,39
 57.1758 -441.794 57.1758 -441.794 91.5898 -175.538 c 0,40,41
 128.854 114.804 128.854 114.804 476.077 324.107 c 1,42,43
 385.063 365.591 385.063 365.591 317.589 423.264 c 0,44,45
 258.497 473.768 258.497 473.768 262.942 534.862 c 0,46,47
 267.321 597.033 267.321 597.033 355.892 639.912 c 0,48,49
 427.442 674.828 427.442 674.828 545.134 677.279 c 0,50,51
 603.513 678.466 603.513 678.466 655.958 672.887 c 0,52,53
 775.497 659.84 775.497 659.84 810.144 589.65 c 0,54,55
 828.999 551.134 828.999 551.134 818.837 507.866 c 0,56,57
 797.909 419.238 797.909 419.238 630.267 322.441 c 1,16,17
EndSplineSet
EndChar

StartChar: uniFECB
Encoding: 65227 65227 211
Width: 927
VWidth: 2267
GlyphClass: 2
Flags: W
AnchorPoint: "Anchor-10" 327.569 1245.15 basechar 0
AnchorPoint: "Anchor-7" 460.424 -304.284 basechar 0
LayerCount: 2
Fore
SplineSet
14.9375 159.064 m 2,0,1
 150.297 159.064 150.297 159.064 151.237 159.053 c 2,2,-1
 248.916 160.149 l 1,3,4
 60.5762 301.36 60.5762 301.36 93.2393 511.246 c 0,5,6
 128.769 738.817 128.769 738.817 367.438 773.215 c 0,7,8
 553.438 800.021 553.438 800.021 703.438 666.021 c 1,9,10
 705.438 624.021 705.438 624.021 699.438 533.215 c 1,11,12
 531.854 622.5 531.854 622.5 401.438 600.021 c 4,13,14
 243.137 573.05 243.137 573.05 229.034 444.247 c 128,-1,15
 214.931 315.445 214.931 315.445 374.246 204.466 c 0,16,17
 415.06 175.8 415.06 175.8 602.591 211.376 c 2,18,-1
 835.191 255.502 l 17,19,-1
 807.191 97.502 l 1,20,21
 475.318 -19.0986 475.318 -19.0986 85.9863 -20.0703 c 1,22,-1
 -20.3164 -20.0537 l 1,23,-1
 -20.3164 159.064 l 1,24,-1
 14.9375 159.064 l 2,0,1
EndSplineSet
EndChar

StartChar: uniFECC
Encoding: 65228 65228 212
Width: 1002
VWidth: 2269
GlyphClass: 2
Flags: W
AnchorPoint: "Anchor-10" 454.73 1090.16 basechar 0
AnchorPoint: "Anchor-7" 492.89 -254.98 basechar 0
LayerCount: 2
Fore
SplineSet
503.313 438.021 m 4,0,1
 486.014 438.021 486.014 438.021 472.106 435.677 c 4,2,3
 429.858 428.647 429.858 428.647 435.36 415.339 c 4,4,5
 438.947 406.995 438.947 406.995 457.248 395.276 c 4,6,7
 480.283 380.524 480.283 380.524 503.313 369.832 c 5,8,9
 523.008 378.268 523.008 378.268 548.02 395.843 c 4,10,11
 564.486 407.582 564.486 407.582 564.486 415.5 c 4,12,13
 564.486 431.479 564.486 431.479 534.431 435.691 c 4,14,15
 517.798 438.021 517.798 438.021 503.313 438.021 c 4,0,1
578.336 240.141 m 5,16,17
 705.414 156.15 705.414 156.15 948.209 157.668 c 2,18,-1
 1012.09 158.067 l 1,19,-1
 1012.09 -20.9209 l 1,20,-1
 923.233 -20.9209 l 2,21,22
 677.731 -20.9209 677.731 -20.9209 499.337 149.232 c 2,23,-1
 495.68 152.721 l 1,24,-1
 492.021 149.232 l 2,25,26
 313.025 -21.4502 313.025 -21.4502 64.9473 -21.4502 c 2,27,-1
 -10.9287 -21.4502 l 1,28,-1
 -10.9287 157.668 l 1,29,-1
 39.9951 157.668 l 2,30,31
 330.604 157.668 330.604 157.668 424.146 241.807 c 5,32,33
 333.134 283.29 333.134 283.29 265.659 340.963 c 4,34,35
 206.567 391.467 206.567 391.467 211.012 452.562 c 4,36,37
 215.392 514.732 215.392 514.732 303.961 557.611 c 4,38,39
 375.513 592.527 375.513 592.527 493.203 594.979 c 4,40,41
 551.582 596.165 551.582 596.165 604.027 590.586 c 4,42,43
 723.567 577.539 723.567 577.539 758.214 507.35 c 4,44,45
 777.068 468.833 777.068 468.833 766.907 425.565 c 4,46,47
 745.979 336.938 745.979 336.938 578.336 240.141 c 5,16,17
EndSplineSet
EndChar

StartChar: uniFEDA
Encoding: 65242 65242 226
Width: 1874
VWidth: 2247
GlyphClass: 2
Flags: W
AnchorPoint: "Anchor-10" 467.64 1428.48 basechar 0
AnchorPoint: "Anchor-7" 593.562 -306.337 basechar 0
LayerCount: 2
Fore
SplineSet
1466.91 388.855 m 0,0,-1
 1468.75 445.301 l 2,1,2
 1472.59 563.17 1472.59 563.17 1455.53 970.931 c 0,3,4
 1443.8 1215.89 1443.8 1215.89 1431.31 1295.7 c 5,5,-1
 1592.72 1398.09 l 1,6,-1
 1592.72 410.096 l 2,7,8
 1592.72 158.416 1592.72 158.416 1816.09 158.416 c 2,9,-1
 1884.2 158.416 l 1,10,-1
 1884.2 -20.5967 l 1,11,-1
 1836.71 -20.5967 l 2,12,13
 1579.05 -20.5967 1579.05 -20.5967 1513 161.029 c 1,14,15
 1509.35 149.137 1509.35 149.137 1464 117 c 0,16,17
 1323.93 17.7383 1323.93 17.7383 1174 2.19922 c 0,18,19
 968.703 -19.0781 968.703 -19.0781 927.431 -20.5625 c 16,20,21
 461.388 -37.3242 461.388 -37.3242 275.763 59.6758 c 0,22,23
 84.918 159.401 84.918 159.401 91.3027 456.599 c 0,24,25
 94 583.155 94 583.155 145.753 684.154 c 1,26,-1
 206.763 684 l 1,27,28
 191.182 612.774 191.182 612.774 184.763 555 c 0,29,30
 179.543 508.021 179.543 508.021 181.479 453.573 c 0,31,32
 189.608 224.913 189.608 224.913 549.649 173.732 c 0,33,34
 647.879 159.769 647.879 159.769 963.263 159.172 c 0,35,36
 1066.85 159.044 1066.85 159.044 1146 172.199 c 0,37,38
 1452.05 224.983 1452.05 224.983 1466.91 388.855 c 0,0,-1
1003.82 1230.86 m 1,39,-1
 1003.82 1175.8 l 1,40,41
 929.948 1170.36 929.948 1170.36 889.17 1155.33 c 0,42,43
 786.049 1116.67 786.049 1116.67 786.049 1066.02 c 0,44,45
 786.049 1027.71 786.049 1027.71 805.844 1002.26 c 0,46,47
 824.068 977.961 824.068 977.961 908.968 965.474 c 0,48,49
 961.328 957.774 961.328 957.774 987.758 933.637 c 0,50,51
 1013.65 909.984 1013.65 909.984 1013.65 867.529 c 0,52,53
 1013.65 765.664 1013.65 765.664 919.088 712.188 c 0,54,55
 846.088 670.906 846.088 670.906 746.15 669.979 c 0,56,57
 682.616 669.979 682.616 669.979 626.857 679.291 c 1,58,-1
 626.857 741.25 l 1,59,60
 691.261 732.761 691.261 732.761 735.942 732.761 c 0,61,62
 815.239 732.761 815.239 732.761 866.364 752.888 c 0,63,64
 955.778 787.229 955.778 787.229 955.778 844.845 c 0,65,66
 955.778 909.014 955.778 909.014 851.965 925.93 c 0,67,68
 791.76 935.104 791.76 935.104 759.164 968.44 c 128,-1,69
 726.486 1001.86 726.486 1001.86 727.795 1062.15 c 0,70,71
 729.786 1142.61 729.786 1142.61 804.668 1180.56 c 0,72,73
 889.792 1223.63 889.792 1223.63 1003.82 1230.86 c 1,39,-1
EndSplineSet
EndChar

StartChar: uniFEDB
Encoding: 65243 65243 227
Width: 828
VWidth: 2248
GlyphClass: 2
Flags: W
AnchorPoint: "Anchor-10" 212.208 1266.69 basechar 0
AnchorPoint: "Anchor-7" 324.925 -307.362 basechar 0
LayerCount: 2
Fore
SplineSet
-20 -20.5625 m 1,0,-1
 -20 158.556 l 1,1,-1
 78.5166 158.582 l 2,2,3
 476.631 158.689 476.631 158.689 500.425 310.916 c 0,4,5
 520.177 437.248 520.177 437.248 409.645 515.797 c 2,6,-1
 123.445 719.182 l 2,7,8
 26.5264 788.056 26.5264 788.056 20.1816 861.87 c 0,9,10
 10.5889 973.771 10.5889 973.771 133.764 1038.31 c 2,11,-1
 813.85 1394.65 l 1,12,13
 785.925 1259.92 785.925 1259.92 751.925 1193.92 c 1,14,-1
 148.679 890.96 l 1,15,-1
 159.731 882.98 l 6,16,17
 455.552 669.414 455.552 669.414 520.097 614.843 c 0,18,19
 673.217 485.384 673.217 485.384 642.845 270.938 c 0,20,21
 619.73 107.732 619.73 107.732 488.425 43.916 c 0,22,23
 355.757 -20.5625 355.757 -20.5625 122.326 -20.5625 c 2,24,-1
 -20 -20.5625 l 1,0,-1
EndSplineSet
EndChar

StartChar: uniFEDC
Encoding: 65244 65244 228
Width: 1065
VWidth: 2248
GlyphClass: 2
Flags: W
AnchorPoint: "Anchor-10" 188.208 1297.69 basechar 0
AnchorPoint: "Anchor-7" 305.338 -297.308 basechar 0
LayerCount: 2
Fore
SplineSet
169.285 1039.85 m 2,0,-1
 849.371 1396.19 l 1,1,2
 836.877 1290.54 836.877 1290.54 787.446 1195.46 c 1,3,-1
 163.2 877.501 l 1,4,-1
 811.771 253.111 l 2,5,6
 910.568 157.999 910.568 157.999 1039.62 158.341 c 2,7,-1
 1075.06 158.435 l 1,8,-1
 1075.06 -20.5781 l 1,9,-1
 1007.49 -20.5781 l 2,10,11
 825.798 -20.5781 825.798 -20.5781 616.845 256.585 c 1,12,13
 563.665 -21.1074 563.665 -21.1074 88.665 -21.1074 c 2,14,-1
 -20.3066 -21.1074 l 5,15,-1
 -20.3066 158.011 l 5,16,-1
 83.4648 158.17 l 2,17,18
 450.171 158.733 450.171 158.733 480.105 304.284 c 0,19,20
 491.075 357.625 491.075 357.625 355.877 483.045 c 2,21,-1
 138.831 684.394 l 2,22,23
 42.2539 773.986 42.2539 773.986 40.7354 862.632 c 0,24,25
 38.8867 971.527 38.8867 971.527 169.285 1039.85 c 2,0,-1
EndSplineSet
EndChar

StartChar: uniFEDE
Encoding: 65246 65246 230
Width: 1549
VWidth: 2247
GlyphClass: 2
Flags: W
AnchorPoint: "Anchor-10" 599.667 1165.55 basechar 0
AnchorPoint: "Anchor-7" 225.713 -573.707 basechar 0
LayerCount: 2
Fore
SplineSet
1147.84 144.489 m 2,0,1
 1146.72 365.65 1146.72 365.65 1123.64 979.461 c 0,2,3
 1113.23 1224.42 1113.23 1224.42 1089.42 1294.23 c 5,4,-1
 1260.83 1406.62 l 1,5,-1
 1260.81 404.294 l 2,6,7
 1260.81 273.38 1260.81 273.38 1326.14 216.204 c 128,-1,8
 1391.49 159.013 1391.49 159.013 1501.07 159.013 c 2,9,-1
 1560 159.013 l 1,10,-1
 1560 -20 l 1,11,-1
 1516.07 -20 l 2,12,13
 1379.31 -20 1379.31 -20 1257.55 65.335 c 1,14,15
 1235.3 -480.772 1235.3 -480.772 658.4 -499.643 c 0,16,17
 298.161 -511.488 298.161 -511.488 155.014 -305.849 c 0,18,19
 46.2158 -148.297 46.2158 -148.297 105.505 89.1152 c 0,20,21
 121.134 151.696 121.134 151.696 156.249 255.07 c 0,22,23
 178.157 319.562 178.157 319.562 197.316 360.828 c 1,24,-1
 266.296 322 l 1,25,26
 160.249 26.4482 160.249 26.4482 228.494 -118.585 c 0,27,28
 330.559 -335.492 330.559 -335.492 654.168 -330.084 c 0,29,30
 1120.48 -322.19 1120.48 -322.19 1145.88 -11.332 c 9,31,32
 1147.34 21.3389 1147.34 21.3389 1148.33 47.7959 c 0,33,34
 1149.63 82.6346 1149.63 82.6346 1147.84 144.489 c 2,0,1
EndSplineSet
EndChar

StartChar: uniFEDF
Encoding: 65247 65247 231
Width: 546
VWidth: 2247
GlyphClass: 2
Flags: W
AnchorPoint: "Anchor-10" 304.411 1488.09 basechar 0
AnchorPoint: "Anchor-7" 233.391 -270.301 basechar 0
LayerCount: 2
Fore
SplineSet
244.163 1306.77 m 5,0,1
 405.577 1409.16 l 1,2,-1
 405.577 442.761 l 2,3,4
 405.577 229.786 405.577 229.786 341.385 133 c 0,5,6
 239.823 -20.1309 239.823 -20.1309 54.2188 -20.1309 c 2,7,-1
 -10.8076 -20.1309 l 1,8,-1
 -10.8076 158.988 l 1,9,-1
 2.4375 158.988 l 2,10,11
 175.037 158.988 175.037 158.988 242.383 243.766 c 0,12,13
 285.583 298.15 285.583 298.15 281.604 456.371 c 2,14,15
 288.762 495.171 288.762 495.171 268.385 982 c 0,16,17
 256.656 1226.96 256.656 1226.96 244.163 1306.77 c 5,0,1
EndSplineSet
EndChar

StartChar: uniFEE0
Encoding: 65248 65248 232
Width: 633
VWidth: 2247
GlyphClass: 2
Flags: W
AnchorPoint: "Anchor-10" 275.93 1483.88 basechar 0
AnchorPoint: "Anchor-7" 239.89 -323.269 basechar 0
LayerCount: 2
Fore
SplineSet
213.163 1306.77 m 5,0,1
 368.616 1408.06 l 1,2,-1
 368.616 404.229 l 2,3,4
 368.616 258.909 368.616 258.909 431.899 214.938 c 0,5,6
 512.375 159.021 512.375 159.021 611.822 159.021 c 2,7,-1
 643.548 159.021 l 1,8,-1
 643.548 -20.0986 l 1,9,-1
 605.441 -19.0986 l 2,10,11
 416.195 -14.1324 416.195 -14.1324 314.462 96.5947 c 2,12,-1
 300.23 112.085 l 1,13,-1
 286.196 96.4141 l 2,14,15
 185.569 -15.9503 185.569 -15.9503 37.0781 -19.0986 c 2,16,-1
 -10.0879 -20.0986 l 1,17,-1
 -10.0879 159.021 l 1,18,-1
 2.4375 158.988 l 2,19,20
 139.079 158.628 139.079 158.628 206.383 243.766 c 0,21,22
 249.583 298.148 249.583 298.148 245.604 456.371 c 2,23,24
 247.635 467.382 247.635 467.382 232.385 982 c 0,25,26
 225.014 1193.68 225.014 1193.68 213.163 1306.77 c 5,0,1
EndSplineSet
EndChar

StartChar: uniFEE2
Encoding: 65250 65250 234
Width: 1145
VWidth: 2293
GlyphClass: 2
Flags: W
AnchorPoint: "Anchor-10" 472.183 1041.24 basechar 0
AnchorPoint: "Anchor-7" 247.632 -736.376 basechar 0
LayerCount: 2
Fore
SplineSet
465.451 334.725 m 1,0,1
 469.808 144.693 469.808 144.693 542.451 61.7246 c 0,2,3
 600.161 -3.93555 600.161 -3.93555 686.45 9 c 0,4,5
 821.904 29.6055 821.904 29.6055 800.451 155.023 c 0,6,7
 774.451 307.023 774.451 307.023 628.451 335.023 c 0,8,9
 548.285 351.441 548.285 351.441 465.451 334.725 c 1,0,1
941.473 236.825 m 1,10,11
 993.138 159.09 993.138 159.09 1124.65 158.612 c 2,12,-1
 1155.46 158.5 l 1,13,-1
 1155.46 -19.4707 l 1,14,-1
 1109.76 -19.4707 l 2,15,16
 973.262 -19.4707 973.262 -19.4707 913.451 71.7246 c 1,17,18
 907.105 -30.4199 907.105 -30.4199 833.479 -93 c 0,19,20
 778.782 -139.491 778.782 -139.491 665.451 -144.977 c 0,21,22
 376.191 -158.977 376.191 -158.977 349.951 283.894 c 1,23,24
 273.547 261.76 273.547 261.76 240.451 180.226 c 0,25,26
 185.615 46.1554 185.615 46.1554 220.092 -114.983 c 2,27,-1
 314.451 -556 l 21,28,-1
 151.941 -659.669 l 1,29,-1
 94.4414 -52.002 l 2,30,31
 53.9688 375.72 53.9688 375.72 350.451 428.023 c 1,32,33
 368.451 527.023 368.451 527.023 406.951 572.894 c 1,34,35
 463.786 521.494 463.786 521.494 677.451 469.67 c 0,36,37
 890.479 418 890.479 418 941.473 236.825 c 1,10,11
EndSplineSet
EndChar

StartChar: uniFEE3
Encoding: 65251 65251 235
Width: 874
VWidth: 2274
GlyphClass: 2
Flags: W
AnchorPoint: "Anchor-10" 379.953 991.87 basechar 0
AnchorPoint: "Anchor-7" 341.794 -258.935 basechar 0
LayerCount: 2
Fore
SplineSet
702.863 8.22656 m 128,-1,1
 612.823 -84.9658 612.823 -84.9658 450.774 -47.5703 c 0,2,3
 344.565 -23.0605 344.565 -23.0605 225.927 104.466 c 1,4,5
 117.562 -20.0654 117.562 -20.0654 11.4219 -20.0654 c 2,6,-1
 -10.2021 -20.0654 l 1,7,-1
 -10.2021 159.053 l 1,8,-1
 30.4395 159.053 l 2,9,10
 116.427 159.053 116.427 159.053 187.302 278.158 c 0,11,12
 379.145 602.562 379.145 602.562 552.883 582.062 c 0,13,14
 763.947 557.215 763.947 557.215 782.405 266.202 c 0,15,16
 792.717 101.225 792.717 101.225 702.863 8.22656 c 128,-1,1
421.121 121.436 m 0,17,18
 523.664 70.9629 523.664 70.9629 592.634 112.436 c 0,19,20
 662.807 153.739 662.807 153.739 642.945 298.087 c 0,21,22
 628.127 402.393 628.127 402.393 574.632 426.168 c 0,23,24
 504.114 458.405 504.114 458.405 404.522 353.987 c 0,25,26
 335.632 282.565 335.632 282.565 293.518 211.507 c 5,27,28
 348.662 150.948 348.662 150.948 421.121 121.436 c 0,17,18
EndSplineSet
EndChar

StartChar: uniFEE4
Encoding: 65252 65252 236
Width: 983
VWidth: 2274
GlyphClass: 2
Flags: W
AnchorPoint: "Anchor-10" 428.224 955.825 basechar 0
AnchorPoint: "Anchor-7" 390.064 -268.475 basechar 0
LayerCount: 2
Fore
SplineSet
426.001 117.853 m 0,0,1
 527.378 68.3936 527.378 68.3936 594.869 111.537 c 0,2,3
 661.94 155.266 661.94 155.266 641.945 298.087 c 0,4,5
 629.125 389.657 629.125 389.657 573.869 425.104 c 0,6,7
 512.423 464.906 512.423 464.906 403.759 353.924 c 0,8,9
 331.869 280.501 331.869 280.501 293.518 211.507 c 5,10,11
 354.054 153.26 354.054 153.26 426.001 117.853 c 0,0,1
753.938 85.5 m 1,12,13
 726.919 34.2363 726.919 34.2363 701.863 9.22656 c 0,14,15
 607.991 -84.6611 607.991 -84.6611 450.774 -47.5703 c 0,16,17
 344.565 -23.0605 344.565 -23.0605 225.927 104.466 c 1,18,19
 117.562 -20.0654 117.562 -20.0654 11.4219 -20.0654 c 2,20,-1
 -10.2021 -20.0654 l 1,21,-1
 -10.2021 159.053 l 1,22,-1
 30.4395 159.053 l 2,23,24
 116.427 159.053 116.427 159.053 187.302 278.158 c 0,25,26
 377.971 601.538 377.971 601.538 551.883 581.062 c 0,27,28
 762.946 557.239 762.946 557.239 781.405 266.202 c 0,29,30
 781.862 258.771 781.862 258.771 782.122 251.5 c 8,31,32
 785.456 158.37 785.456 158.37 951.64 158.37 c 2,33,-1
 993.94 158.37 l 1,34,-1
 993.94 -20.6426 l 1,35,-1
 973 -20.6426 l 2,36,37
 825.994 -20.6426 825.994 -20.6426 753.938 85.5 c 1,12,13
EndSplineSet
EndChar

StartChar: uniFEEA
Encoding: 65258 65258 242
Width: 1030
VWidth: 2263
GlyphClass: 2
Flags: W
AnchorPoint: "Anchor-10" 381.234 1168.15 basechar 0
AnchorPoint: "Anchor-7" 367.38 -245.691 basechar 0
LayerCount: 2
Fore
SplineSet
661.206 385.343 m 1,0,1
 626.048 660.857 l 1,2,3
 239.84 621.719 239.84 621.719 248.978 442.019 c 0,4,5
 255.634 297.146 255.634 297.146 661.206 385.343 c 1,0,1
679.013 235.167 m 1,6,7
 175.22 144.542 175.22 144.542 100.827 361.618 c 0,8,9
 93.1699 383.739 93.1699 383.739 90.627 411.617 c 0,10,11
 71.8164 685.938 71.8164 685.938 605.526 779.953 c 5,12,13
 606.182 806.889 606.182 806.889 591.109 916.463 c 1,14,-1
 712.969 953.57 l 17,15,-1
 775.749 431.856 l 0,16,17
 798.914 236.126 798.914 236.126 869.698 191.059 c 0,18,19
 920.56 158.676 920.56 158.676 1022.75 158.609 c 2,20,-1
 1050.26 158.591 l 1,21,-1
 1050.26 -20.5312 l 1,22,-1
 1014.53 -19.5312 l 2,23,24
 717.982 -11.2314 717.982 -11.2314 679.013 235.167 c 1,6,7
EndSplineSet
EndChar

StartChar: uniFEEB
Encoding: 65259 65259 243
Width: 1114
VWidth: 2267
GlyphClass: 2
Flags: W
AnchorPoint: "Anchor-10" 560.85 1241.35 basechar 0
AnchorPoint: "Anchor-7" 374.015 -289.475 basechar 0
LayerCount: 2
Fore
SplineSet
680 485.078 m 1,0,1
 707.767 382.584 707.767 382.584 668.136 300.994 c 0,2,3
 637.507 237.938 637.507 237.938 518.844 165.666 c 2,4,-1
 508.656 159.461 l 1,5,6
 858.439 39.5342 858.439 39.5342 890 199.078 c 4,7,8
 914.807 322.715 914.807 322.715 680 485.078 c 1,0,1
419.634 696.358 m 1,9,10
 389.213 712.102 389.213 712.102 358.793 727.846 c 1,11,12
 375.658 792.634 375.658 792.634 392.525 857.423 c 1,13,-1
 688.136 655.604 l 0,14,15
 1036.13 418.332 1036.13 418.332 1022.62 221.374 c 0,16,17
 1003.54 -41.0898 1003.54 -41.0898 706.625 -32.626 c 0,18,19
 522.958 -27.3906 522.958 -27.3906 342.128 55.1709 c 2,20,-1
 340.111 56.0918 l 1,21,-1
 338.096 55.1709 l 2,22,23
 172.147 -20.6719 172.147 -20.6719 16.668 -20.6719 c 2,24,-1
 -10.9238 -20.6719 l 1,25,-1
 -10.9238 158.447 l 1,26,-1
 21.6152 158.447 l 2,27,28
 21.748 158.447 21.748 158.447 155.318 157.408 c 1,29,30
 104.457 237.61 104.457 237.61 108.678 335.488 c 0,31,32
 114.046 455.697 114.046 455.697 168.038 539.009 c 0,33,34
 239.801 650.707 239.801 650.707 336.774 680.806 c 0,35,36
 395.872 698.691 395.872 698.691 419.634 696.358 c 1,9,10
545.101 352.078 m 0,37,38
 615.049 481.902 615.049 481.902 525.575 559.49 c 128,-1,39
 436.101 637.078 436.101 637.078 317.101 537.078 c 0,40,41
 242.229 474.16 242.229 474.16 235.878 386.368 c 0,42,43
 210.226 220.309 210.226 220.309 333.853 186.251 c 1,44,45
 490.028 249.863 490.028 249.863 545.101 352.078 c 0,37,38
EndSplineSet
EndChar

StartChar: uniFEEC
Encoding: 65260 65260 244
Width: 848
VWidth: 2285
GlyphClass: 2
Flags: W
AnchorPoint: "Anchor-7" 215.672 -760.967 basechar 0
AnchorPoint: "Anchor-10" 363.944 1121.58 basechar 0
LayerCount: 2
Fore
SplineSet
250.073 158.906 m 1,0,-1
 292.492 161.132 l 2,1,2
 386.088 166.044 386.088 166.044 429.763 236.477 c 0,3,4
 488.948 331.927 488.948 331.927 488.948 460.985 c 0,5,6
 488.948 546.862 488.948 546.862 471.632 573.032 c 0,7,8
 443.577 615.432 443.577 615.432 397.432 615.432 c 0,9,10
 301.606 615.432 301.606 615.432 265.25 444.647 c 0,11,12
 229.465 272.921 229.465 272.921 250.073 158.906 c 1,0,-1
187.114 583.996 m 0,13,14
 262.884 759.14 262.884 759.14 398.493 758.007 c 0,15,16
 485.804 757.126 485.804 757.126 540.534 691.229 c 0,17,18
 607.843 610.182 607.843 610.182 607.843 440.617 c 0,19,20
 607.843 188.982 607.843 188.982 461.386 55.5312 c 0,21,22
 378.352 -20.1279 378.352 -20.1279 264.932 -20.1279 c 1,23,24
 254.968 -235.566 254.968 -235.566 366.693 -393.446 c 1,25,26
 409.769 -87.0332 409.769 -87.0332 625.332 73.2119 c 0,27,28
 737.041 155.977 737.041 155.977 837.673 159.157 c 1,29,-1
 858.54 158.451 l 1,30,-1
 858.54 -20.6367 l 1,31,-1
 834.152 -21.1279 l 2,32,33
 544.812 -26.9557 544.812 -26.9557 468.854 -531.323 c 1,34,35
 390.854 -576.323 l 1,36,37
 170.409 -472.725 170.409 -472.725 141.413 -20.1279 c 1,38,-1
 -10.833 -20.1279 l 5,39,-1
 -10.833 158.991 l 5,40,-1
 139.466 159.053 l 1,41,42
 130.513 453.161 130.513 453.161 187.114 583.996 c 0,13,14
EndSplineSet
EndChar

StartChar: uniFEEE
Encoding: 65262 65262 246
Width: 823
VWidth: 2287
GlyphClass: 2
Flags: W
AnchorPoint: "Anchor-10" 309.964 1098.46 basechar 0
AnchorPoint: "Anchor-7" 498.13 -675.167 basechar 0
LayerCount: 2
Fore
SplineSet
436.832 384.629 m 0,0,1
 325.302 382.354 325.302 382.354 305.832 245.63 c 0,2,3
 293.41 157.493 293.41 157.493 371.719 149.839 c 4,4,5
 504.719 136.839 504.719 136.839 605.832 153.628 c 1,6,7
 607.34 229.764 607.34 229.764 583.832 284.629 c 0,8,9
 540.195 386.476 540.195 386.476 436.832 384.629 c 0,0,1
717.062 158.564 m 1,10,11
 839.644 158.94 l 1,12,-1
 839.644 -20.0449 l 1,13,-1
 713.479 -20 l 0,14,15
 612.719 -444.051 612.719 -444.051 319.719 -465.672 c 0,16,17
 144.729 -478.585 144.729 -478.585 11.7939 -355.319 c 1,18,19
 520.131 -297.062 520.131 -297.062 597 -19.75 c 1,20,21
 540.719 -30.1611 540.719 -30.1611 426.719 -24.334 c 0,22,23
 291.272 -16.1943 291.272 -16.1943 247.619 51.1719 c 0,24,25
 198.625 127.662 198.625 127.662 210.619 240.573 c 0,26,27
 230.338 426.196 230.338 426.196 324.832 512.629 c 0,28,29
 389.254 571.94 389.254 571.94 470.832 565.025 c 0,30,31
 538.729 559.46 538.729 559.46 598.832 497.025 c 0,32,33
 696.136 396.297 696.136 396.297 710.516 235.013 c 0,34,35
 714.143 194.324 714.143 194.324 717.062 158.564 c 1,10,11
EndSplineSet
EndChar

StartChar: uniFEF0
Encoding: 65264 65264 248
Width: 1396
VWidth: 2301
GlyphClass: 2
Flags: W
AnchorPoint: "Anchor-10" 602.673 480.833 basechar 0
AnchorPoint: "Anchor-7" 211.215 -792.634 basechar 0
LayerCount: 2
Fore
SplineSet
1033.18 134.958 m 0,0,1
 1097.01 160.041 1097.01 160.041 1288.41 160.032 c 2,2,3
 1392.32 160.027 l 1,4,5
 1405.62 159.944 1405.62 159.944 1418.91 159.861 c 1,6,-1
 1418.91 -19.1475 l 1,7,-1
 1338.76 -19.6787 l 1,8,9
 1135.22 -19.6787 l 2,10,11
 1058.9 -19.6787 1058.9 -19.6787 1058.9 -49.7344 c 0,12,13
 1059.14 -74.9844 1059.14 -74.9844 1192.46 -84.2148 c 0,14,15
 1330.61 -94.8164 1330.61 -94.8164 1344.04 -184.914 c 0,16,17
 1349.46 -221.251 1349.46 -221.251 1328.26 -268.041 c 0,18,19
 1266.14 -410 1266.14 -410 1086.14 -496 c 0,20,21
 911.917 -578.688 911.917 -578.688 565.677 -559.125 c 0,22,23
 152.421 -535.775 152.421 -535.775 89.7881 -256.241 c 0,24,25
 65.875 -147.97 65.875 -147.97 104.629 12.1582 c 0,26,27
 119.013 71.9766 119.013 71.9766 173.746 202.479 c 0,28,29
 206.138 280.056 206.138 280.056 218 301.572 c 1,30,31
 301.638 248.056 l 1,32,33
 291.396 224.577 291.396 224.577 252.931 131.167 c 0,34,35
 215.196 39.5303 215.196 39.5303 204.824 -29.5469 c 0,36,37
 186.734 -157.217 186.734 -157.217 261.509 -252.082 c 0,38,39
 357.096 -374.434 357.096 -374.434 634.629 -385.642 c 4,40,41
 891.137 -396 891.137 -396 1020.14 -353 c 0,42,43
 1191.53 -296.206 1191.53 -296.206 1208.26 -243.182 c 0,44,45
 1214.58 -222.257 1214.58 -222.257 1202 -212.474 c 0,46,47
 1188.82 -201.392 1188.82 -201.392 1087.52 -189.154 c 0,48,49
 899.011 -165.478 899.011 -165.478 893.285 -72.7646 c 0,50,51
 884.401 76.4834 884.401 76.4834 1033.18 134.958 c 0,0,1
EndSplineSet
EndChar

StartChar: uniFEFB
Encoding: 65275 65275 259
Width: 1011
VWidth: 2247
GlyphClass: 3
Flags: W
AnchorPoint: "Anchor-9" 819.258 1513.49 baselig 0
AnchorPoint: "Anchor-6" 783.378 -234.319 baselig 0
AnchorPoint: "Anchor-6" 176.937 -262.691 baselig 1
AnchorPoint: "Anchor-9" 141.146 1405.52 baselig 1
LayerCount: 2
Fore
SplineSet
708.163 1271.77 m 1,0,1
 880.577 1409.16 l 1,2,-1
 880.577 479.761 l 2,3,4
 880.577 290.214 880.577 290.214 783.139 155.94 c 0,5,6
 655.263 -20.2793 655.263 -20.2793 415.219 -20.1309 c 2,7,-1
 203.289 -20 l 17,8,9
 110.202 42.9404 110.202 42.9404 104.48 145.94 c 1,10,11
 370.554 124 370.554 124 434.934 145 c 5,12,13
 283.574 596.598 283.574 596.598 170.934 871.939 c 0,14,15
 111.288 1017.74 111.288 1017.74 37.2891 1113.94 c 1,16,-1
 171.414 1289.33 l 1,17,-1
 554.48 178 l 1,18,19
 648.744 200.636 648.744 200.636 701.139 271.94 c 0,20,21
 758.408 349.85 758.408 349.85 755.604 461.372 c 2,22,23
 761.402 481.538 761.402 481.538 742.386 987 c 0,24,25
 733.17 1231.96 733.17 1231.96 708.163 1271.77 c 1,0,1
EndSplineSet
LCarets2: 1 0 
Ligature2: "'rlig' Required Ligatures in Arabic lookup 16 subtable" uniFEDF uniFE8E
EndChar

StartChar: uniFEFC
Encoding: 65276 65276 260
Width: 1281
VWidth: 2247
GlyphClass: 3
Flags: W
AnchorPoint: "Anchor-9" 894.932 1469.02 baselig 0
AnchorPoint: "Anchor-6" 880.991 -253.368 baselig 0
AnchorPoint: "Anchor-6" 237.16 -280.078 baselig 1
AnchorPoint: "Anchor-9" 105.53 1363.55 baselig 1
LayerCount: 2
Fore
SplineSet
486.139 175.197 m 5,0,1
 389.94 481.798 389.94 481.798 215.562 908.052 c 0,2,3
 155.917 1053.85 155.917 1053.85 81.918 1150.05 c 1,4,-1
 216.043 1325.44 l 1,5,-1
 599.109 214.112 l 1,6,7
 763.453 293.207 763.453 293.207 821.801 496.15 c 1,8,9
 840.873 570.402 840.873 570.402 828.08 851.35 c 2,10,-1
 816.849 1098 l 2,11,12
 811.755 1209.88 811.755 1209.88 799.243 1264.81 c 1,13,-1
 970.657 1407.2 l 1,14,-1
 970.657 649.332 l 2,15,16
 970.657 452.875 970.657 452.875 1013.72 299.633 c 0,17,18
 1053.4 158.425 1053.4 158.425 1224.49 158.425 c 2,19,-1
 1291.64 158.425 l 1,20,-1
 1291.64 -20.5879 l 1,21,-1
 1196.72 -20 l 2,22,23
 951.421 -18.4805 951.421 -18.4805 878.723 347.633 c 1,24,25
 846.274 242.675 846.274 242.675 760.001 147.41 c 0,26,27
 606.474 -22.1172 606.474 -22.1172 313.31 -20.5879 c 0,28,29
 249.155 -20.2939 249.155 -20.2939 185 -20 c 1,30,31
 101 22.2988 101 22.2988 97.7227 146.633 c 1,32,33
 377.968 129.818 377.968 129.818 481.716 173.342 c 6,34,-1
 486.139 175.197 l 5,0,1
EndSplineSet
LCarets2: 1 0 
Ligature2: "'rlig' Required Ligatures in Arabic lookup 16 subtable" uniFEE0 uniFE8E
EndChar

StartChar: arabic_dot
Encoding: 65536 -1 261
Width: 150
GlyphClass: 2
Flags: W
LayerCount: 2
Fore
SplineSet
90.9665 173.16 m 2,0,-1
 169.643 94.4834 l 2,1,2
 177.053 87.0736 177.053 87.0736 177.104 82.4778 c 128,-1,3
 177.154 77.9602 177.154 77.9602 170.143 71.0166 c 2,4,-1
 87.6944 -11.4324 l 2,5,6
 79.5956 -19.2181 79.5956 -19.2181 74.4843 -19.2695 c 0,7,8
 69.1284 -19.3232 69.1284 -19.3232 61.3566 -11.4834 c 2,9,-1
 -20.6942 70.5674 l 2,10,11
 -27.5687 77.0586 -27.5687 77.0586 -27.2361 82.4307 c 0,12,13
 -26.8756 88.2512 -26.8756 88.2512 -17.6434 97.4835 c 2,14,-1
 58.8725 173.999 l 2,15,16
 67.7957 183.003 67.7957 183.003 74.5331 182.864 c 128,-1,17
 81.4055 182.722 81.4055 182.722 90.9665 173.16 c 2,0,-1
EndSplineSet
EndChar

StartChar: arabic_2dots
Encoding: 65537 -1 262
Width: 452
GlyphClass: 2
Flags: W
LayerCount: 2
Fore
SplineSet
360.143 172.984 m 2,0,-1
 438.644 94.483 l 2,1,2
 446.053 87.0737 446.053 87.0737 446.104 82.4774 c 128,-1,3
 446.155 77.9603 446.155 77.9603 439.143 71.0169 c 2,4,-1
 357.143 -10.9832 l 2,5,6
 348.912 -19.2149 348.912 -19.2149 343.484 -19.2689 c 128,-1,7
 338.128 -19.3228 338.128 -19.3228 330.357 -11.4831 c 2,8,-1
 248.306 70.5674 l 2,9,10
 241.431 77.0592 241.431 77.0592 241.763 82.4299 c 0,11,12
 242.124 88.2506 242.124 88.2506 251.357 97.4835 c 2,13,-1
 327.873 174 l 2,14,15
 336.795 183.003 336.795 183.003 343.534 182.863 c 128,-1,16
 350.406 182.721 350.406 182.721 360.143 172.984 c 2,0,-1
123.143 172.983 m 2,17,-1
 201.643 94.4832 l 2,18,19
 209.053 87.0729 209.053 87.0729 209.104 82.4775 c 128,-1,20
 209.154 78.0274 209.154 78.0274 202.143 71.0169 c 2,21,-1
 120.144 -10.983 l 2,22,23
 111.911 -19.2149 111.911 -19.2149 106.484 -19.2689 c 128,-1,24
 101.196 -19.322 101.196 -19.322 93.3568 -11.4831 c 2,25,-1
 10.9532 70.9205 l 2,26,27
 4.47233 77.7291 4.47233 77.7291 4.76387 82.431 c 0,28,29
 5.10553 87.9457 5.10553 87.9457 13.9056 97.0322 c 2,30,-1
 90.8568 173.983 l 2,31,32
 99.8754 183.002 99.8754 183.002 106.534 182.863 c 0,33,34
 113.405 182.721 113.405 182.721 123.143 172.983 c 2,17,-1
EndSplineSet
EndChar

StartChar: arabic_3dots
Encoding: 65538 -1 263
Width: 455
GlyphClass: 2
Flags: W
LayerCount: 2
Fore
SplineSet
242.38 354.073 m 2,0,-1
 321.559 274.893 l 2,1,2
 328.969 267.484 328.969 267.484 329.02 262.888 c 128,-1,3
 329.07 258.37 329.07 258.37 322.059 251.427 c 2,4,-1
 240.059 169.427 l 2,5,6
 231.828 161.195 231.828 161.195 226.401 161.141 c 128,-1,7
 221.044 161.087 221.044 161.087 213.273 168.927 c 2,8,-1
 131.222 250.977 l 2,9,10
 124.347 257.469 124.347 257.469 124.68 262.841 c 0,11,12
 125.041 268.662 125.041 268.662 134.273 277.893 c 2,13,-1
 210.773 354.393 l 2,14,15
 219.955 363.576 219.955 363.576 226.24 363.624 c 128,-1,16
 232.518 363.673 232.518 363.673 242.38 354.073 c 2,0,-1
364.143 160.983 m 2,17,-1
 442.643 82.4832 l 2,18,19
 450.053 75.0732 450.053 75.0732 450.104 70.4783 c 128,-1,20
 450.153 66.0269 450.153 66.0269 443.143 59.0169 c 2,21,-1
 361.143 -22.983 l 2,22,23
 352.911 -31.2149 352.911 -31.2149 347.484 -31.2689 c 128,-1,24
 342.196 -31.322 342.196 -31.322 334.357 -23.4831 c 2,25,-1
 252.357 58.5169 l 2,26,27
 245.453 65.4206 245.453 65.4206 245.763 70.4307 c 0,28,29
 246.124 76.2504 246.124 76.2504 255.357 85.4831 c 2,30,-1
 331.856 161.983 l 2,31,32
 340.875 171.001 340.875 171.001 347.533 170.864 c 0,33,34
 354.405 170.722 354.405 170.722 364.143 160.983 c 2,17,-1
123.143 160.983 m 2,35,-1
 201.643 82.4832 l 2,36,37
 209.053 75.0729 209.053 75.0729 209.104 70.4783 c 128,-1,38
 209.153 66.0267 209.153 66.0267 202.143 59.0169 c 2,39,-1
 120.144 -22.983 l 2,40,41
 111.911 -31.2149 111.911 -31.2149 106.484 -31.2689 c 128,-1,42
 101.196 -31.322 101.196 -31.322 93.3568 -23.4831 c 2,43,-1
 10.9532 58.9205 l 2,44,45
 4.47233 65.7291 4.47233 65.7291 4.76387 70.431 c 0,46,47
 5.12442 76.2506 5.12442 76.2506 14.3568 85.4831 c 2,48,-1
 90.8568 161.983 l 2,49,50
 99.8749 171.001 99.8749 171.001 106.533 170.864 c 0,51,52
 113.405 170.722 113.405 170.722 123.143 160.983 c 2,35,-1
EndSplineSet
EndChar

StartChar: arabic_3dots_a
Encoding: 65539 -1 264
Width: 454
GlyphClass: 2
Flags: W
LayerCount: 2
Fore
SplineSet
237.093 -8.85352 m 6,0,-1
 315.894 -87.6543 l 6,1,2
 323.303 -95.0645 323.303 -95.0645 323.354 -99.6602 c 132,-1,3
 323.404 -104.178 323.404 -104.178 316.394 -111.121 c 6,4,-1
 234.394 -193.121 l 6,5,6
 226.162 -201.353 226.162 -201.353 220.734 -201.407 c 132,-1,7
 215.378 -201.461 215.378 -201.461 207.606 -193.621 c 6,8,-1
 125.556 -111.571 l 6,9,10
 118.682 -105.079 118.682 -105.079 119.015 -99.707 c 4,11,12
 119.375 -93.8867 119.375 -93.8867 128.606 -84.6543 c 6,13,-1
 205.37 -7.8916 l 6,14,15
 214.685 0.956055 214.685 0.956055 221.005 0.720703 c 132,-1,16
 227.507 0.479492 227.507 0.479492 237.093 -8.85352 c 6,0,-1
363.004 181.123 m 2,17,-1
 441.644 102.483 l 2,18,19
 449.053 95.0742 449.053 95.0742 449.104 90.4775 c 128,-1,20
 449.153 86.0264 449.153 86.0264 442.144 79.0166 c 2,21,-1
 360.144 -2.9834 l 2,22,23
 351.912 -11.2148 351.912 -11.2148 346.484 -11.2695 c 128,-1,24
 341.195 -11.3223 341.195 -11.3223 333.356 -3.4834 c 2,25,-1
 251.306 78.5684 l 2,26,27
 244.453 85.421 244.453 85.421 244.764 90.4307 c 0,28,29
 245.124 96.251 245.124 96.251 254.356 105.483 c 2,30,-1
 330.872 181.999 l 2,31,32
 339.874 191.001 339.874 191.001 346.533 190.864 c 0,33,34
 353.405 190.722 353.405 190.722 363.004 181.123 c 2,17,-1
123.144 180.983 m 2,35,-1
 201.644 102.483 l 2,36,37
 209.053 95.0742 209.053 95.0742 209.104 90.4775 c 128,-1,38
 209.153 86.0264 209.153 86.0264 202.144 79.0166 c 2,39,-1
 120.144 -2.9834 l 2,40,41
 111.912 -11.2148 111.912 -11.2148 106.484 -11.2695 c 128,-1,42
 101.195 -11.3223 101.195 -11.3223 93.3564 -3.4834 c 2,43,-1
 11.3057 78.5674 l 2,44,45
 4.4541 85.4189 4.4541 85.4189 4.76367 90.4307 c 0,46,47
 5.12402 96.251 5.12402 96.251 14.3564 105.483 c 2,48,-1
 90.8721 181.999 l 2,49,50
 99.874 191.001 99.874 191.001 106.533 190.864 c 0,51,52
 113.405 190.722 113.405 190.722 123.144 180.983 c 2,35,-1
EndSplineSet
EndChar

StartChar: uni066E.fina
Encoding: 65540 -1 265
Width: 1776
VWidth: 2271
GlyphClass: 2
Flags: W
AnchorPoint: "Anchor-10" 699.344 1083.48 basechar 0
AnchorPoint: "Anchor-7" 699.344 -230.389 basechar 0
LayerCount: 2
Fore
SplineSet
848.662 -20 m 0,0,1
 413.88 -23.998 413.88 -23.998 276.668 49.2324 c 0,2,3
 84.709 150.35 84.709 150.35 91.3027 456.599 c 0,4,5
 94 583.155 94 583.155 145.753 684.154 c 1,6,7
 201.662 655.604 l 1,8,9
 190.113 603.748 190.113 603.748 184.763 555 c 0,10,11
 179.543 508.021 179.543 508.021 181.479 453.573 c 0,12,13
 190.022 219.809 190.022 219.809 528.668 170.232 c 0,14,15
 611.714 158.075 611.714 158.075 963.263 158.172 c 0,16,17
 1183.09 158.233 1183.09 158.233 1324.67 238.232 c 4,18,19
 1398.74 280.088 1398.74 280.088 1452.67 338.232 c 0,20,21
 1519.3 410.074 1519.3 410.074 1552.67 540.232 c 9,22,-1
 1604.66 528.068 l 1,23,24
 1597.66 476.696 1597.66 476.696 1599 401 c 0,25,26
 1602.58 199.481 1602.58 199.481 1753.17 163.895 c 2,27,-1
 1776 158.5 l 1,28,-1
 1786.24 158.895 l 1,29,-1
 1786.24 -20.1182 l 1,30,-1
 1775.33 -19.4258 l 1,31,-1
 1771.94 -19.1182 l 2,32,33
 1527.08 3.10059 1527.08 3.10059 1524 277.676 c 1,34,35
 1496.52 201.078 1496.52 201.078 1364.66 111.067 c 0,36,37
 1173.34 -18.0137 1173.34 -18.0137 848.662 -20 c 0,0,1
EndSplineSet
EndChar

StartChar: uni06A1.fina
Encoding: 65543 -1 268
Width: 1893
VWidth: 2268
GlyphClass: 2
Flags: W
AnchorPoint: "Anchor-10" 509.221 1192.58 basechar 0
AnchorPoint: "Anchor-7" 622.641 -281.885 basechar 0
LayerCount: 2
Fore
SplineSet
1278.54 469.433 m 128,-1,1
 1278.54 407.301 1278.54 407.301 1327.71 359.476 c 128,-1,2
 1376.87 311.65 1376.87 311.65 1446.56 311.65 c 128,-1,3
 1516.24 311.65 1516.24 311.65 1565.41 359.475 c 128,-1,4
 1614.58 407.299 1614.58 407.299 1614.58 469.429 c 128,-1,5
 1614.58 531.56 1614.58 531.56 1565.49 585.001 c 128,-1,6
 1516.24 638.611 1516.24 638.611 1446.56 638.611 c 128,-1,7
 1376.88 638.611 1376.88 638.611 1327.63 585.001 c 128,-1,0
 1278.54 531.565 1278.54 531.565 1278.54 469.433 c 128,-1,1
1345.54 208.455 m 1,8,9
 1210.93 262.901 1210.93 262.901 1173.59 403.205 c 0,10,11
 1151.76 485.251 1151.76 485.251 1172.41 570.17 c 0,12,13
 1207.85 713.553 1207.85 713.553 1329.28 769.445 c 0,14,15
 1381.98 794.165 1381.98 794.165 1450.21 794.63 c 0,16,17
 1527.1 795.12 1527.1 795.12 1585.08 762.361 c 0,18,19
 1681.38 708.121 1681.38 708.121 1713.29 595.104 c 0,20,21
 1739.24 501.393 1739.24 501.393 1711.29 399.405 c 0,22,23
 1681.26 285.905 1681.26 285.905 1543.14 207.505 c 1,24,25
 1657.92 156.581 1657.92 156.581 1862.69 158.6 c 2,26,-1
 1903.86 159.006 l 1,27,-1
 1903.86 -20 l 1,28,-1
 1858.48 -20 l 2,29,30
 1597.18 -20 1597.18 -20 1436.78 91.5674 c 2,31,-1
 1433.85 93.6055 l 1,32,-1
 1430.86 91.6475 l 2,33,34
 1294.36 2.26074 1294.36 2.26074 1106.78 -9.51953 c 2,35,-1
 929.564 -20.6484 l 0,36,37
 444.867 -39.7295 444.867 -39.7295 276.668 49.2324 c 0,38,39
 84.709 150.35 84.709 150.35 91.3027 456.599 c 0,40,41
 94 583.155 94 583.155 145.753 684.154 c 1,42,-1
 200.972 655.604 l 1,43,44
 191.713 610.021 191.713 610.021 184.763 555 c 0,45,46
 179.386 512.433 179.386 512.433 181.479 453.573 c 0,47,48
 190.022 219.81 190.022 219.81 528.668 170.232 c 0,49,50
 611.714 158.075 611.714 158.075 963.263 158.172 c 0,51,-1
 1005.76 158.6 l 2,52,53
 1238.24 160.941 1238.24 160.941 1345.54 208.455 c 1,8,9
EndSplineSet
EndChar

StartChar: uni06A1.init
Encoding: 65544 -1 269
Width: 676
VWidth: 2287
GlyphClass: 2
Flags: W
AnchorPoint: "Anchor-10" 435.699 1250 basechar 0
AnchorPoint: "Anchor-7" 340.299 -228.172 basechar 0
LayerCount: 2
Fore
SplineSet
309.348 748.604 m 4,0,1
 202.53 746.424 202.53 746.424 178.348 609.604 c 4,2,3
 162.079 514.495 162.079 514.495 236.098 489.822 c 4,4,5
 341.098 454.822 341.098 454.822 478.348 500.604 c 5,6,7
 479.894 579.232 479.894 579.232 451.348 642 c 4,8,9
 403.186 749.547 403.186 749.547 309.348 748.604 c 4,0,1
584.516 315.225 m 4,10,11
 558.837 135.407 558.837 135.407 384.912 36.7979 c 0,12,13
 283.019 -20.9717 283.019 -20.9717 145.861 -20.9717 c 2,14,-1
 -10.1064 -20.9717 l 1,15,-1
 -10.1064 158.147 l 1,16,-1
 57.7773 158.147 l 2,17,18
 250.032 158.147 250.032 158.147 288.671 169.828 c 0,19,20
 445.979 218.602 445.979 218.602 469.516 327.225 c 5,21,22
 392.848 307 392.848 307 293.348 316.5 c 4,23,24
 175.258 329.222 175.258 329.222 120.135 415.146 c 4,25,26
 71.1396 491.637 71.1396 491.637 83.1348 604.548 c 4,27,28
 100.994 783.485 100.994 783.485 197.348 876.604 c 4,29,30
 250.57 928.039 250.57 928.039 345.348 920 c 4,31,32
 413.859 913.843 413.859 913.843 481.348 838 c 4,33,34
 562.809 747.942 562.809 747.942 583.03 581.987 c 4,35,36
 600.798 428.562 600.798 428.562 584.516 315.225 c 4,10,11
EndSplineSet
EndChar

StartChar: uni06A1.medi
Encoding: 65545 -1 270
Width: 970
VWidth: 2268
GlyphClass: 2
Flags: W
AnchorPoint: "Anchor-10" 511.04 1023.65 basechar 0
AnchorPoint: "Anchor-7" 511.04 -223.966 basechar 0
LayerCount: 2
Fore
SplineSet
312.059 470.886 m 132,-1,1
 312.059 408.754 312.059 408.754 361.227 360.929 c 132,-1,2
 410.395 313.104 410.395 313.104 480.08 313.104 c 132,-1,3
 549.765 313.104 549.765 313.104 598.932 360.928 c 132,-1,4
 648.099 408.752 648.099 408.752 648.099 470.882 c 132,-1,5
 648.099 533.013 648.099 533.013 599.011 586.454 c 132,-1,6
 549.763 640.064 549.763 640.064 480.08 640.064 c 132,-1,7
 410.396 640.064 410.396 640.064 361.148 586.454 c 132,-1,0
 312.059 533.019 312.059 533.019 312.059 470.886 c 132,-1,1
618.604 763.814 m 4,8,9
 714.895 709.574 714.895 709.574 746.81 596.558 c 4,10,11
 772.761 502.846 772.761 502.846 744.81 400.858 c 4,12,13
 714.779 287.358 714.779 287.358 576.66 208.958 c 5,14,15
 694.495 156.676 694.495 156.676 934.812 158.353 c 2,16,-1
 992.98 158.759 l 1,17,-1
 992.98 -20.2471 l 1,18,-1
 788.188 -20.7666 l 2,19,20
 637.817 -21.1484 637.817 -21.1484 475.902 91.3203 c 2,21,-1
 472.968 93.3584 l 1,22,-1
 469.977 91.4004 l 2,23,24
 298.634 -20.7666 298.634 -20.7666 145.901 -20.7666 c 2,25,-1
 -20.46 -20.7666 l 1,26,-1
 -20.46 158.353 l 1,27,-1
 44.8838 158.353 l 2,28,29
 262.756 158.353 262.756 158.353 379.06 209.908 c 5,30,31
 244.448 264.354 244.448 264.354 207.11 404.658 c 4,32,33
 185.276 486.704 185.276 486.704 205.932 571.623 c 4,34,35
 241.372 715.006 241.372 715.006 362.801 770.898 c 4,36,37
 415.505 795.618 415.505 795.618 483.728 796.083 c 4,38,39
 560.619 796.573 560.619 796.573 618.604 763.814 c 4,8,9
EndSplineSet
EndChar

StartChar: uni066F.fina
Encoding: 65546 -1 271
Width: 1401
VWidth: 2287
GlyphClass: 2
Flags: W
AnchorPoint: "Anchor-10" 348.271 929.913 basechar 0
AnchorPoint: "Anchor-7" 436.935 -786.036 basechar 0
LayerCount: 2
Fore
SplineSet
1021.45 386.402 m 0,0,1
 910.008 384.129 910.008 384.129 890.451 247.403 c 0,2,3
 878.326 160.389 878.326 160.389 951.479 153.188 c 0,4,5
 1084.9 138.749 1084.9 138.749 1190.45 155.401 c 1,6,7
 1191.96 231.537 1191.96 231.537 1168.45 286.402 c 0,8,9
 1124.81 388.249 1124.81 388.249 1021.45 386.402 c 0,0,1
1292.74 158.521 m 0,10,11
 1415.98 158.898 l 1,12,-1
 1415.98 -20.0869 l 1,13,-1
 1291.75 -20.0869 l 1,14,15
 1292.81 -74.1465 1292.81 -74.1465 1282.21 -125.868 c 0,16,17
 1197.78 -537.827 1197.78 -537.827 651.355 -548.928 c 0,18,19
 311.702 -555.507 311.702 -555.507 173.396 -362.848 c 0,20,21
 64.6113 -212.339 64.6113 -212.339 123.886 61.1162 c 0,22,23
 138.575 128.884 138.575 128.884 172.631 227.071 c 0,24,25
 211.333 339.129 211.333 339.129 216.483 352.129 c 1,26,-1
 293.48 306.6 l 1,27,28
 174.74 7.54883 174.74 7.54883 246.876 -175.583 c 0,29,30
 325.523 -375.245 325.523 -375.245 635.55 -379.083 c 0,31,32
 1142.23 -385.355 1142.23 -385.355 1181.62 -17.9766 c 5,33,34
 1148.48 -20 1148.48 -20 1011.34 -18.5605 c 0,35,36
 877.007 -16.1865 877.007 -16.1865 832.238 52.9453 c 0,37,38
 783.244 129.436 783.244 129.436 795.238 242.347 c 0,39,40
 814.957 427.97 814.957 427.97 909.451 514.402 c 0,41,42
 973.873 573.714 973.873 573.714 1055.45 566.799 c 0,43,44
 1122.09 561.336 1122.09 561.336 1183.45 498.799 c 0,45,46
 1275.48 405 1275.48 405 1292.74 158.521 c 0,10,11
EndSplineSet
EndChar

StartChar: arabic_ring
Encoding: 65549 -1 274
Width: 438
GlyphClass: 2
Flags: W
LayerCount: 2
Fore
SplineSet
316 220 m 4,0,1
 316 260 316 260 288 288 c 4,2,3
 260 317 260 317 219 317 c 132,-1,4
 178 317 178 317 150 289 c 132,-1,5
 122 261 122 261 122 220 c 4,6,7
 122 178 122 178 150 150 c 4,8,9
 178 123 178 123 219 123 c 132,-1,10
 260 123 260 123 288 151 c 132,-1,11
 316 179 316 179 316 220 c 4,0,1
438 220 m 132,-1,13
 438 128 438 128 375 64 c 4,14,15
 311 0 311 0 219 0 c 132,-1,16
 127 0 127 0 64 64 c 4,17,18
 0 128 0 128 0 220 c 132,-1,19
 0 312 0 312 64 376 c 4,20,21
 127 439 127 439 219 439 c 132,-1,22
 311 439 311 439 375 376 c 5,23,12
 438 312 438 312 438 220 c 132,-1,13
EndSplineSet
EndChar

StartChar: arabic_gaf_bar
Encoding: 65550 -1 275
Width: 674
GlyphClass: 2
Flags: W
LayerCount: 2
Fore
SplineSet
621 1647.8 m 9,0,-1
 0 1321 l 1,1,2
 47 1459.8 l 9,3,-1
 666 1782 l 1,4,5
 621 1647.8 l 9,0,-1
EndSplineSet
EndChar

StartChar: uni066E.init.math
Encoding: 65560 -1 285
Width: 909
VWidth: 2273
GlyphClass: 2
Flags: W
LayerCount: 2
Fore
SplineSet
588.064 60.9707 m 0,0,1
 511.546 -29.6797 511.546 -29.6797 343.01 -29.6797 c 2,2,-1
 -23.5381 -29.6797 l 1,3,-1
 -23.5381 140.853 l 1,4,-1
 280.629 140.853 l 2,5,6
 400.819 140.853 400.819 140.853 456.311 196.346 c 0,7,8
 517.476 257.51 517.476 257.51 517.476 385.639 c 2,9,-1
 517.476 612.68 l 1,10,-1
 688.008 612.68 l 1,11,-1
 688.008 385.639 l 2,12,13
 688.008 181.073 688.008 181.073 588.064 60.9707 c 0,0,1
EndSplineSet
EndChar

StartChar: guillemotleft
Encoding: 171 171 286
Width: 995
Flags: W
LayerCount: 2
Fore
SplineSet
473.859 931.098 m 5,0,-1
 448.365 886.268 l 6,1,2
 389.045 781.967 389.045 781.967 359.49 680.456 c 4,3,4
 329.055 575.917 329.055 575.917 329.055 468.617 c 132,-1,5
 329.055 361.295 329.055 361.295 359.502 256.018 c 4,6,7
 389.045 153.868 389.045 153.868 448.322 50.0527 c 6,8,-1
 473.945 5.17773 l 5,9,-1
 339.918 5.17773 l 5,10,-1
 331.08 19.0996 l 6,11,12
 258.422 133.541 258.422 133.541 222.07 244.278 c 4,13,14
 185.055 357.089 185.055 357.089 185.055 468.617 c 4,15,16
 185.055 579.72 185.055 579.72 222.08 692.026 c 4,17,18
 258.416 802.234 258.416 802.234 331.057 917.129 c 6,19,-1
 339.889 931.098 l 5,20,-1
 473.859 931.098 l 5,0,-1
849.859 931.098 m 5,21,-1
 824.365 886.268 l 6,22,23
 765.045 781.967 765.045 781.967 735.49 680.456 c 4,24,25
 705.055 575.917 705.055 575.917 705.055 468.617 c 132,-1,26
 705.055 361.295 705.055 361.295 735.502 256.018 c 4,27,28
 765.045 153.868 765.045 153.868 824.322 50.0527 c 6,29,-1
 849.945 5.17773 l 5,30,-1
 715.918 5.17773 l 5,31,-1
 707.08 19.0996 l 6,32,33
 634.422 133.541 634.422 133.541 598.07 244.278 c 4,34,35
 561.055 357.089 561.055 357.089 561.055 468.617 c 4,36,37
 561.055 579.72 561.055 579.72 598.08 692.026 c 4,38,39
 634.416 802.234 634.416 802.234 707.057 917.129 c 6,40,-1
 715.889 931.098 l 5,41,-1
 849.859 931.098 l 5,21,-1
EndSplineSet
EndChar

StartChar: guillemotright
Encoding: 187 187 287
Width: 995
Flags: W
LayerCount: 2
Fore
SplineSet
521.141 931.098 m 1,0,-1
 655.111 931.098 l 1,1,-1
 663.943 917.129 l 2,2,3
 736.584 802.234 736.584 802.234 772.92 692.026 c 0,4,5
 809.945 579.72 809.945 579.72 809.945 468.617 c 0,6,7
 809.945 357.089 809.945 357.089 772.93 244.278 c 0,8,9
 736.578 133.541 736.578 133.541 663.92 19.0996 c 2,10,-1
 655.082 5.17773 l 1,11,-1
 521.055 5.17773 l 1,12,-1
 546.678 50.0527 l 2,13,14
 605.955 153.868 605.955 153.868 635.498 256.018 c 0,15,16
 665.945 361.295 665.945 361.295 665.945 468.617 c 128,-1,17
 665.945 575.917 665.945 575.917 635.51 680.456 c 0,18,19
 605.955 781.967 605.955 781.967 546.635 886.268 c 2,20,-1
 521.141 931.098 l 1,0,-1
145.141 931.098 m 1,21,-1
 279.111 931.098 l 1,22,-1
 287.943 917.129 l 2,23,24
 360.584 802.234 360.584 802.234 396.92 692.026 c 0,25,26
 433.945 579.72 433.945 579.72 433.945 468.617 c 0,27,28
 433.945 357.089 433.945 357.089 396.93 244.278 c 0,29,30
 360.578 133.541 360.578 133.541 287.92 19.0996 c 2,31,-1
 279.082 5.17773 l 1,32,-1
 145.055 5.17773 l 1,33,-1
 170.678 50.0527 l 2,34,35
 229.955 153.868 229.955 153.868 259.498 256.018 c 0,36,37
 289.945 361.295 289.945 361.295 289.945 468.617 c 128,-1,38
 289.945 575.917 289.945 575.917 259.51 680.456 c 0,39,40
 229.955 781.967 229.955 781.967 170.635 886.268 c 2,41,-1
 145.141 931.098 l 1,21,-1
EndSplineSet
EndChar

StartChar: NameMe.337
Encoding: 65562 -1 294
Width: 615
VWidth: 2181
Flags: W
LayerCount: 2
Fore
SplineSet
273.32 94.5264 m 6,0,1
 188.675 -4.05053e-07 188.675 -4.05053e-07 80.7002 0 c 6,2,-1
 -20.4004 0 l 5,3,-1
 -20.4004 168.98 l 5,4,-1
 21.8496 168.98 l 6,5,6
 127.746 168.98 127.746 168.98 186.495 221.642 c 4,7,8
 253.047 281.38 253.047 281.38 247.29 400.31 c 6,9,-1
 208.29 1205.96 l 5,10,-1
 365.17 1275.96 l 5,11,-1
 365.17 400.31 l 6,12,13
 365.17 280.933 365.17 280.933 395.729 237.004 c 4,14,15
 443.051 168.98 443.051 168.98 594.61 168.98 c 6,16,-1
 635.86 168.98 l 5,17,-1
 635.86 0 l 5,18,-1
 535.76 0 l 6,19,20
 386.989 -1.40678e-05 386.989 -1.40678e-05 299.987 94.6973 c 6,21,-1
 286.56 109.312 l 5,22,-1
 273.32 94.5264 l 6,0,1
EndSplineSet
EndChar

StartChar: NameMe.338
Encoding: 65563 -1 295
Width: 532
VWidth: 2181
Flags: W
LayerCount: 2
Fore
SplineSet
393.17 436.69 m 2,0,1
 393.17 192.801 393.17 192.801 289.385 90.0967 c 4,2,3
 195.617 0 195.617 0 54.7002 0 c 2,4,-1
 -20.4004 0 l 1,5,-1
 -20.4004 168.98 l 1,6,-1
 12.8496 168.98 l 2,7,8
 152 168.98 152 168.98 215.957 248.894 c 0,9,10
 278.635 327.221 278.635 327.221 273.29 449.53 c 2,11,-1
 235.29 1319.03 l 1,12,-1
 393.17 1389.03 l 1,13,-1
 393.17 436.69 l 2,0,1
EndSplineSet
EndChar

StartChar: exclam
Encoding: 33 33 298
Width: 819
VWidth: 0
Flags: W
LayerCount: 2
Fore
SplineSet
508.015 184.68 m 2,0,-1
 508.015 21.6602 l 2,1,2
 508.015 8.375 508.015 8.375 504.684 4.1875 c 128,-1,3
 501.354 0 501.354 0 493.195 0 c 2,4,-1
 331.315 0 l 2,5,6
 320.941 0 320.941 0 317.008 4.38281 c 128,-1,7
 313.075 8.76465 313.075 8.76465 313.075 21.6602 c 2,8,-1
 313.075 183.54 l 2,9,10
 313.075 195.047 313.075 195.047 316.868 198.983 c 128,-1,11
 320.66 202.92 320.66 202.92 331.315 202.92 c 2,12,-1
 489.775 202.92 l 2,13,14
 500.572 202.92 500.572 202.92 504.293 199.198 c 128,-1,15
 508.015 195.477 508.015 195.477 508.015 184.68 c 2,0,-1
319 1404 m 1,16,-1
 502 1404 l 5,17,-1
 483 355 l 1,18,-1
 339 355 l 1,19,-1
 319 1404 l 1,16,-1
EndSplineSet
EndChar

StartChar: period
Encoding: 46 46 299
Width: 654
VWidth: 2054
Flags: W
LayerCount: 2
Fore
SplineSet
437.015 184.68 m 6,0,-1
 437.015 21.6602 l 6,1,2
 437.015 8.375 437.015 8.375 433.684 4.1875 c 132,-1,3
 430.354 0 430.354 0 422.195 0 c 6,4,-1
 260.315 0 l 6,5,6
 249.941 0 249.941 0 246.008 4.38281 c 132,-1,7
 242.075 8.76465 242.075 8.76465 242.075 21.6602 c 6,8,-1
 242.075 183.54 l 6,9,10
 242.075 195.047 242.075 195.047 245.868 198.983 c 132,-1,11
 249.66 202.92 249.66 202.92 260.315 202.92 c 6,12,-1
 418.775 202.92 l 6,13,14
 429.572 202.92 429.572 202.92 433.293 199.198 c 132,-1,15
 437.015 195.477 437.015 195.477 437.015 184.68 c 6,0,-1
EndSplineSet
EndChar

StartChar: colon
Encoding: 58 58 300
Width: 654
VWidth: 2054
Flags: W
LayerCount: 2
Fore
SplineSet
437.015 707.68 m 2,0,-1
 437.015 544.66 l 2,1,2
 437.015 531.375 437.015 531.375 433.684 527.188 c 128,-1,3
 430.354 523 430.354 523 422.195 523 c 2,4,-1
 260.315 523 l 2,5,6
 249.941 523 249.941 523 246.008 527.383 c 128,-1,7
 242.075 531.765 242.075 531.765 242.075 544.66 c 2,8,-1
 242.075 706.54 l 2,9,10
 242.075 718.047 242.075 718.047 245.868 721.983 c 128,-1,11
 249.66 725.92 249.66 725.92 260.315 725.92 c 2,12,-1
 418.775 725.92 l 2,13,14
 429.572 725.92 429.572 725.92 433.293 722.198 c 128,-1,15
 437.015 718.477 437.015 718.477 437.015 707.68 c 2,0,-1
437.015 184.68 m 2,16,-1
 437.015 21.6602 l 2,17,18
 437.015 8.375 437.015 8.375 433.684 4.1875 c 128,-1,19
 430.354 0 430.354 0 422.195 0 c 2,20,-1
 260.315 0 l 2,21,22
 249.941 0 249.941 0 246.008 4.38281 c 128,-1,23
 242.075 8.76465 242.075 8.76465 242.075 21.6602 c 2,24,-1
 242.075 183.54 l 2,25,26
 242.075 195.047 242.075 195.047 245.868 198.983 c 128,-1,27
 249.66 202.92 249.66 202.92 260.315 202.92 c 2,28,-1
 418.775 202.92 l 2,29,30
 429.572 202.92 429.572 202.92 433.293 199.198 c 128,-1,31
 437.015 195.477 437.015 195.477 437.015 184.68 c 2,16,-1
EndSplineSet
EndChar
